{"glyphs":{"0":{"ha":1006,"x_min":0,"x_max":0,"o":"m 504 993 b 86 490 229 993 86 778 b 504 -14 86 201 229 -14 b 919 490 776 -14 919 201 b 504 993 919 778 776 993 z m 504 896 b 704 815 589 896 654 867 l 243 253 b 199 490 214 318 199 399 b 504 896 199 726 300 896 z m 504 83 b 301 165 418 83 351 113 l 763 728 b 807 490 792 663 807 582 b 504 83 807 253 707 83 z "},"1":{"ha":669,"x_min":0,"x_max":0,"o":"m 72 544 l 108 447 b 428 947 351 526 414 731 l 461 947 l 442 868 l 442 0 l 556 0 l 556 979 l 325 979 b 72 544 322 786 258 619 z "},"2":{"ha":929,"x_min":0,"x_max":0,"o":"m 74 507 l 188 507 b 497 896 188 799 317 896 b 731 665 646 896 731 817 b 88 199 731 307 188 213 l 88 0 l 844 0 l 844 97 l 201 97 l 121 79 l 121 111 b 844 664 525 175 844 346 b 494 993 844 878 703 993 b 74 507 260 993 74 860 z "},"3":{"ha":940,"x_min":0,"x_max":0,"o":"m 83 374 b 486 -14 83 103 235 -14 b 853 271 721 -14 853 96 b 650 500 853 421 775 475 l 650 532 b 839 733 775 551 839 614 b 486 993 839 883 721 993 b 97 658 235 993 97 876 l 211 658 b 486 896 211 818 289 896 b 725 718 664 896 725 824 b 550 564 725 613 668 564 l 414 564 l 414 467 l 550 467 b 739 288 668 467 739 417 b 486 83 739 156 664 83 b 197 374 289 83 197 161 z "},"4":{"ha":921,"x_min":0,"x_max":0,"o":"m 847 314 l 721 314 l 721 669 l 607 669 l 607 314 l 201 314 l 121 294 l 121 328 b 638 979 451 475 601 706 l 524 979 b 88 419 494 710 310 514 l 88 217 l 607 217 l 607 0 l 721 0 l 721 217 l 847 217 z "},"5":{"ha":979,"x_min":0,"x_max":0,"o":"m 86 349 b 493 -14 86 117 242 -14 b 892 358 732 -14 892 124 b 579 704 892 571 772 704 b 285 550 440 704 338 635 l 257 565 l 275 644 l 275 882 l 822 882 l 822 979 l 163 979 l 163 550 l 308 475 b 557 607 356 546 432 607 b 778 364 707 607 778 514 b 493 83 778 183 674 83 b 199 349 297 83 199 176 z "},"6":{"ha":956,"x_min":0,"x_max":0,"o":"m 88 458 b 481 -14 88 143 246 -14 b 872 351 724 -14 872 139 b 522 704 872 557 742 704 b 179 465 347 704 207 607 l 147 465 l 179 544 b 518 896 206 739 283 919 l 801 868 l 801 965 l 518 993 b 88 458 203 1025 88 776 z m 201 338 b 507 607 201 504 333 607 b 758 351 669 607 758 506 b 481 83 758 181 657 83 b 201 338 303 83 201 213 z "},"7":{"ha":814,"x_min":0,"x_max":0,"o":"m 218 0 l 333 0 b 765 788 333 396 474 640 l 765 979 l 49 979 l 49 882 l 654 882 l 732 900 l 732 868 b 218 0 386 696 218 424 z "},"8":{"ha":932,"x_min":0,"x_max":0,"o":"m 69 269 b 467 -14 69 103 214 -14 b 863 269 717 -14 863 103 b 629 522 863 408 778 483 l 629 556 b 807 761 739 588 807 642 b 467 993 807 921 658 993 b 125 761 274 993 125 921 b 303 556 125 642 193 588 l 303 522 b 69 269 154 483 69 411 z m 239 742 b 467 896 239 857 324 896 b 693 742 608 896 693 857 b 467 586 693 624 608 586 b 239 742 324 586 239 624 z m 183 286 b 467 489 183 407 271 489 b 749 286 661 489 749 407 b 467 83 749 164 661 83 b 183 286 271 83 183 164 z "},"9":{"ha":956,"x_min":0,"x_max":0,"o":"m 868 521 b 475 993 868 836 710 993 b 83 628 232 993 83 840 b 433 275 83 422 214 275 b 776 514 608 275 749 372 l 810 514 l 776 435 b 438 83 750 240 674 60 l 154 111 l 154 14 l 438 -14 b 868 521 753 -46 868 203 z m 754 642 b 449 372 754 475 622 372 b 197 628 288 372 197 474 b 475 896 197 799 299 896 b 754 642 654 896 754 767 z "}," ":{"ha":461,"x_min":0,"x_max":0,"o":""},"A":{"ha":958,"x_min":0,"x_max":0,"o":"m 799 0 l 911 0 l 596 979 l 363 979 l 46 0 l 160 0 l 282 383 l 675 383 z m 314 481 l 463 947 l 494 947 l 644 481 z "},"Á":{"ha":958,"x_min":0,"x_max":0,"o":"m 700 1201 l 678 1290 l 251 1181 l 275 1092 z m 799 0 l 911 0 l 596 979 l 363 979 l 46 0 l 160 0 l 282 383 l 675 383 z m 314 481 l 463 947 l 494 947 l 644 481 z "},"Ă":{"ha":958,"x_min":0,"x_max":0,"o":"m 479 1071 b 696 1310 614 1071 696 1168 l 603 1310 b 479 1161 603 1208 568 1161 b 354 1310 390 1161 354 1208 l 261 1310 b 479 1071 261 1168 343 1071 z m 799 0 l 911 0 l 596 979 l 363 979 l 46 0 l 160 0 l 282 383 l 675 383 z m 314 481 l 463 947 l 494 947 l 644 481 z "},"Â":{"ha":958,"x_min":0,"x_max":0,"o":"m 479 1199 l 639 1068 l 704 1132 l 479 1314 l 254 1132 l 321 1068 z m 799 0 l 911 0 l 596 979 l 363 979 l 46 0 l 160 0 l 282 383 l 675 383 z m 314 481 l 463 947 l 494 947 l 644 481 z "},"Ä":{"ha":958,"x_min":0,"x_max":0,"o":"m 336 1089 b 438 1186 393 1089 438 1131 b 336 1282 438 1239 393 1282 b 235 1186 278 1282 235 1239 b 336 1089 235 1131 278 1089 z m 622 1089 b 724 1186 679 1089 724 1131 b 622 1282 724 1239 679 1282 b 521 1186 564 1282 521 1239 b 622 1089 521 1131 564 1089 z m 799 0 l 911 0 l 596 979 l 363 979 l 46 0 l 160 0 l 282 383 l 675 383 z m 314 481 l 463 947 l 494 947 l 644 481 z "},"À":{"ha":958,"x_min":0,"x_max":0,"o":"m 706 1181 l 281 1290 l 257 1201 l 683 1092 z m 799 0 l 911 0 l 596 979 l 363 979 l 46 0 l 160 0 l 282 383 l 675 383 z m 314 481 l 463 947 l 494 947 l 644 481 z "},"Ā":{"ha":958,"x_min":0,"x_max":0,"o":"m 704 1238 l 256 1238 l 256 1146 l 704 1147 z m 799 0 l 911 0 l 596 979 l 363 979 l 46 0 l 160 0 l 282 383 l 675 383 z m 314 481 l 463 947 l 494 947 l 644 481 z "},"Ą":{"ha":958,"x_min":0,"x_max":0,"o":"m 819 -174 l 910 0 l 911 0 l 911 1 l 596 979 l 363 979 l 46 0 l 160 0 l 282 383 l 675 383 l 799 0 l 811 0 l 728 -156 b 804 -265 697 -212 732 -271 l 1078 -240 l 1078 -147 z m 314 481 l 463 947 l 494 947 l 644 481 z "},"Å":{"ha":958,"x_min":0,"x_max":0,"o":"m 478 1065 b 643 1217 583 1065 643 1138 b 478 1367 643 1296 583 1367 b 314 1217 372 1367 314 1296 b 478 1065 314 1136 372 1065 z m 478 1281 b 550 1217 525 1281 550 1256 b 478 1151 550 1176 526 1151 b 407 1217 432 1151 407 1176 b 478 1281 407 1256 432 1281 z m 799 0 l 911 0 l 596 979 l 363 979 l 46 0 l 160 0 l 282 383 l 675 383 z m 314 481 l 463 947 l 494 947 l 644 481 z "},"Ã":{"ha":958,"x_min":0,"x_max":0,"o":"m 378 1208 b 589 1097 439 1208 472 1097 b 731 1288 669 1097 731 1149 l 638 1288 b 581 1190 638 1204 611 1190 b 369 1301 519 1190 486 1301 b 228 1111 289 1301 228 1249 l 321 1111 b 378 1208 321 1194 347 1208 z m 799 0 l 911 0 l 596 979 l 363 979 l 46 0 l 160 0 l 282 383 l 675 383 z m 314 481 l 463 947 l 494 947 l 644 481 z "},"Æ":{"ha":1392,"x_min":0,"x_max":0,"o":"m 1317 882 l 1317 979 l 592 979 l 46 0 l 167 0 l 381 385 l 711 385 l 711 0 l 1317 0 l 1317 97 l 825 97 l 825 442 l 1247 442 l 1247 539 l 825 539 l 825 882 z m 435 482 l 693 947 l 711 947 l 711 482 z "},"B":{"ha":897,"x_min":0,"x_max":0,"o":"m 101 0 l 424 0 b 810 260 661 0 810 63 b 542 499 810 435 692 496 l 542 532 b 738 739 643 539 738 597 b 361 979 738 932 600 979 l 101 979 z m 215 558 l 215 882 l 365 882 b 624 721 525 882 624 872 b 365 558 624 582 525 558 z m 215 97 l 215 461 l 428 461 b 696 279 594 461 696 422 b 428 97 696 125 594 97 z "},"C":{"ha":1076,"x_min":0,"x_max":0,"o":"m 88 490 b 546 -14 88 204 258 -14 b 989 379 796 -14 960 136 l 875 379 b 546 83 853 192 738 83 b 201 490 318 83 201 253 b 546 896 201 726 318 896 b 875 601 738 896 853 789 l 989 601 b 546 993 960 843 796 993 b 88 490 258 993 88 775 z "},"Ć":{"ha":1076,"x_min":0,"x_max":0,"o":"m 318 1181 l 342 1092 l 767 1201 l 744 1290 z m 88 490 b 546 -14 88 204 258 -14 b 989 379 796 -14 960 136 l 875 379 b 546 83 853 192 738 83 b 201 490 318 83 201 253 b 546 896 201 726 318 896 b 875 601 738 896 853 789 l 989 601 b 546 993 960 843 796 993 b 88 490 258 993 88 775 z "},"Č":{"ha":1076,"x_min":0,"x_max":0,"o":"m 769 1251 l 704 1315 l 544 1185 l 386 1315 l 319 1251 l 544 1069 z m 88 490 b 546 -14 88 204 258 -14 b 989 379 796 -14 960 136 l 875 379 b 546 83 853 192 738 83 b 201 490 318 83 201 253 b 546 896 201 726 318 896 b 875 601 738 896 853 789 l 989 601 b 546 993 960 843 796 993 b 88 490 258 993 88 775 z "},"Ç":{"ha":1076,"x_min":0,"x_max":0,"o":"m 546 83 b 201 490 318 83 201 253 b 546 896 201 726 318 896 b 875 601 738 896 853 789 l 989 601 b 546 993 960 843 796 993 b 88 490 258 993 88 775 b 478 -10 88 228 232 22 l 425 -72 l 474 -136 b 571 -100 524 -106 546 -100 b 603 -128 590 -100 603 -110 b 404 -171 603 -172 531 -171 l 404 -257 b 694 -136 579 -257 694 -243 b 604 -58 694 -81 651 -58 b 514 -79 568 -58 539 -67 l 578 -12 b 989 379 810 -1 961 147 l 875 379 b 546 83 853 192 738 83 z "},"Ċ":{"ha":1076,"x_min":0,"x_max":0,"o":"m 544 1089 b 646 1186 601 1089 646 1131 b 544 1282 646 1239 601 1282 b 443 1186 486 1282 443 1239 b 544 1089 443 1131 486 1089 z m 88 490 b 546 -14 88 204 258 -14 b 989 379 796 -14 960 136 l 875 379 b 546 83 853 192 738 83 b 201 490 318 83 201 253 b 546 896 201 726 318 896 b 875 601 738 896 853 789 l 989 601 b 546 993 960 843 796 993 b 88 490 258 993 88 775 z "},"D":{"ha":990,"x_min":0,"x_max":0,"o":"m 413 979 l 101 979 l 101 0 l 413 0 b 903 490 650 0 903 68 b 413 979 903 911 650 979 z m 413 97 l 215 97 l 215 882 l 413 882 b 789 490 586 882 789 851 b 413 97 789 128 586 97 z "},"Ð":{"ha":1079,"x_min":0,"x_max":0,"o":"m 500 979 l 190 979 l 190 553 l 88 553 l 88 461 l 190 461 l 190 0 l 500 0 b 990 490 738 0 990 68 b 500 979 990 911 738 979 z m 500 97 l 303 97 l 303 461 l 571 461 l 571 553 l 303 553 l 303 882 l 500 882 b 878 490 674 882 878 851 b 500 97 878 128 674 97 z "},"Ď":{"ha":990,"x_min":0,"x_max":0,"o":"m 639 1251 l 574 1315 l 414 1185 l 256 1315 l 189 1251 l 414 1069 z m 413 979 l 101 979 l 101 0 l 413 0 b 903 490 650 0 903 68 b 413 979 903 911 650 979 z m 413 97 l 215 97 l 215 882 l 413 882 b 789 490 586 882 789 851 b 413 97 789 128 586 97 z "},"Đ":{"ha":1079,"x_min":0,"x_max":0,"o":"m 500 979 l 190 979 l 190 553 l 88 553 l 88 461 l 190 461 l 190 0 l 500 0 b 990 490 738 0 990 68 b 500 979 990 911 738 979 z m 500 97 l 303 97 l 303 461 l 571 461 l 571 553 l 303 553 l 303 882 l 500 882 b 878 490 674 882 878 851 b 500 97 878 128 674 97 z "},"E":{"ha":782,"x_min":0,"x_max":0,"o":"m 101 0 l 708 0 l 708 97 l 215 97 l 215 442 l 639 442 l 639 539 l 215 539 l 215 882 l 708 882 l 708 979 l 101 979 z "},"É":{"ha":782,"x_min":0,"x_max":0,"o":"m 179 1181 l 203 1092 l 628 1201 l 606 1290 z m 101 0 l 708 0 l 708 97 l 215 97 l 215 442 l 639 442 l 639 539 l 215 539 l 215 882 l 708 882 l 708 979 l 101 979 z "},"Ě":{"ha":782,"x_min":0,"x_max":0,"o":"m 631 1251 l 565 1315 l 406 1185 l 247 1315 l 181 1251 l 406 1069 z m 101 0 l 708 0 l 708 97 l 215 97 l 215 442 l 639 442 l 639 539 l 215 539 l 215 882 l 708 882 l 708 979 l 101 979 z "},"Ê":{"ha":782,"x_min":0,"x_max":0,"o":"m 631 1132 l 406 1314 l 181 1132 l 247 1068 l 406 1199 l 565 1068 z m 101 0 l 708 0 l 708 97 l 215 97 l 215 442 l 639 442 l 639 539 l 215 539 l 215 882 l 708 882 l 708 979 l 101 979 z "},"Ë":{"ha":782,"x_min":0,"x_max":0,"o":"m 263 1089 b 364 1186 319 1089 364 1131 b 263 1282 364 1239 319 1282 b 161 1186 204 1282 161 1239 b 263 1089 161 1131 204 1089 z m 549 1089 b 650 1186 606 1089 650 1131 b 549 1282 650 1239 606 1282 b 447 1186 490 1282 447 1239 b 549 1089 447 1131 490 1089 z m 101 0 l 708 0 l 708 97 l 215 97 l 215 442 l 639 442 l 639 539 l 215 539 l 215 882 l 708 882 l 708 979 l 101 979 z "},"Ė":{"ha":782,"x_min":0,"x_max":0,"o":"m 404 1089 b 506 1186 461 1089 506 1131 b 404 1282 506 1239 461 1282 b 303 1186 346 1282 303 1239 b 404 1089 303 1131 346 1089 z m 101 0 l 708 0 l 708 97 l 215 97 l 215 442 l 639 442 l 639 539 l 215 539 l 215 882 l 708 882 l 708 979 l 101 979 z "},"È":{"ha":782,"x_min":0,"x_max":0,"o":"m 632 1181 l 207 1290 l 183 1201 l 610 1092 z m 101 0 l 708 0 l 708 97 l 215 97 l 215 442 l 639 442 l 639 539 l 215 539 l 215 882 l 708 882 l 708 979 l 101 979 z "},"Ē":{"ha":782,"x_min":0,"x_max":0,"o":"m 182 1238 l 182 1146 l 631 1147 l 631 1238 z m 101 0 l 708 0 l 708 97 l 215 97 l 215 442 l 639 442 l 639 539 l 215 539 l 215 882 l 708 882 l 708 979 l 101 979 z "},"Ę":{"ha":782,"x_min":0,"x_max":0,"o":"m 708 882 l 708 979 l 101 979 l 101 0 l 429 0 l 346 -156 b 422 -265 315 -212 350 -271 l 696 -240 l 696 -147 l 438 -174 l 528 0 l 708 0 l 708 97 l 215 97 l 215 442 l 639 442 l 639 539 l 215 539 l 215 882 z "},"F":{"ha":817,"x_min":0,"x_max":0,"o":"m 101 0 l 215 0 l 215 393 l 678 421 l 678 519 l 215 492 l 215 882 l 743 882 l 743 979 l 101 979 z "},"G":{"ha":1132,"x_min":0,"x_max":0,"o":"m 88 490 b 517 -14 88 201 229 -14 b 903 490 769 -14 901 149 l 935 490 l 917 365 l 917 0 l 1031 0 l 1031 446 b 947 522 1031 497 1004 522 l 464 522 l 464 431 l 799 431 b 518 83 803 196 711 83 b 201 490 289 83 201 250 b 550 896 201 729 321 896 b 847 629 743 896 825 790 l 961 629 b 550 993 932 843 796 993 b 88 490 267 993 88 778 z "},"Ğ":{"ha":1132,"x_min":0,"x_max":0,"o":"m 760 1310 l 667 1310 b 543 1161 667 1208 632 1161 b 418 1310 454 1161 418 1208 l 325 1310 b 543 1071 325 1168 407 1071 b 760 1310 678 1071 760 1168 z m 88 490 b 517 -14 88 201 229 -14 b 903 490 769 -14 901 149 l 935 490 l 917 365 l 917 0 l 1031 0 l 1031 446 b 947 522 1031 497 1004 522 l 464 522 l 464 431 l 799 431 b 518 83 803 196 711 83 b 201 490 289 83 201 250 b 550 896 201 729 321 896 b 847 629 743 896 825 790 l 961 629 b 550 993 932 843 796 993 b 88 490 267 993 88 778 z "},"Ģ":{"ha":1132,"x_min":0,"x_max":0,"o":"m 88 490 b 517 -14 88 201 229 -14 b 903 490 769 -14 901 149 l 935 490 l 917 365 l 917 0 l 1031 0 l 1031 446 b 947 522 1031 497 1004 522 l 464 522 l 464 431 l 799 431 b 518 83 803 196 711 83 b 201 490 289 83 201 250 b 550 896 201 729 321 896 b 847 629 743 896 825 790 l 961 629 b 550 993 932 843 796 993 b 88 490 267 993 88 778 z m 456 -68 l 382 -297 l 483 -326 l 557 -96 z "},"Ġ":{"ha":1132,"x_min":0,"x_max":0,"o":"m 542 1089 b 643 1186 599 1089 643 1131 b 542 1282 643 1239 599 1282 b 440 1186 483 1282 440 1239 b 542 1089 440 1131 483 1089 z m 88 490 b 517 -14 88 201 229 -14 b 903 490 769 -14 901 149 l 935 490 l 917 365 l 917 0 l 1031 0 l 1031 446 b 947 522 1031 497 1004 522 l 464 522 l 464 431 l 799 431 b 518 83 803 196 711 83 b 201 490 289 83 201 250 b 550 896 201 729 321 896 b 847 629 743 896 825 790 l 961 629 b 550 993 932 843 796 993 b 88 490 267 993 88 778 z "},"H":{"ha":1008,"x_min":0,"x_max":0,"o":"m 793 979 l 793 532 l 215 532 l 215 979 l 101 979 l 101 0 l 215 0 l 215 435 l 793 435 l 793 0 l 906 0 l 906 979 z "},"Ħ":{"ha":1092,"x_min":0,"x_max":0,"o":"m 1031 842 l 947 842 l 947 979 l 835 979 l 835 842 l 257 842 l 257 979 l 143 979 l 143 842 l 60 842 l 60 749 l 143 749 l 143 0 l 257 0 l 257 435 l 835 435 l 835 0 l 947 0 l 947 749 l 1031 749 z m 835 532 l 257 532 l 257 749 l 835 749 z "},"I":{"ha":726,"x_min":0,"x_max":0,"o":"m 639 882 l 639 979 l 88 979 l 88 882 l 307 882 l 307 97 l 88 97 l 88 0 l 639 0 l 639 97 l 421 97 l 421 882 z "},"Í":{"ha":726,"x_min":0,"x_max":0,"o":"m 585 1201 l 563 1290 l 136 1181 l 160 1092 z m 639 882 l 639 979 l 88 979 l 88 882 l 307 882 l 307 97 l 88 97 l 88 0 l 639 0 l 639 97 l 421 97 l 421 882 z "},"Î":{"ha":726,"x_min":0,"x_max":0,"o":"m 364 1199 l 524 1068 l 589 1132 l 364 1314 l 139 1132 l 206 1068 z m 639 882 l 639 979 l 88 979 l 88 882 l 307 882 l 307 97 l 88 97 l 88 0 l 639 0 l 639 97 l 421 97 l 421 882 z "},"Ï":{"ha":726,"x_min":0,"x_max":0,"o":"m 221 1089 b 322 1186 278 1089 322 1131 b 221 1282 322 1239 278 1282 b 119 1186 163 1282 119 1239 b 221 1089 119 1131 163 1089 z m 507 1089 b 608 1186 564 1089 608 1131 b 507 1282 608 1239 564 1282 b 406 1186 449 1282 406 1239 b 507 1089 406 1131 449 1089 z m 639 882 l 639 979 l 88 979 l 88 882 l 307 882 l 307 97 l 88 97 l 88 0 l 639 0 l 639 97 l 421 97 l 421 882 z "},"İ":{"ha":726,"x_min":0,"x_max":0,"o":"m 363 1089 b 464 1186 419 1089 464 1131 b 363 1282 464 1239 419 1282 b 261 1186 304 1282 261 1239 b 363 1089 261 1131 304 1089 z m 639 882 l 639 979 l 88 979 l 88 882 l 307 882 l 307 97 l 88 97 l 88 0 l 639 0 l 639 97 l 421 97 l 421 882 z "},"Ì":{"ha":726,"x_min":0,"x_max":0,"o":"m 590 1181 l 165 1290 l 142 1201 l 568 1092 z m 639 882 l 639 979 l 88 979 l 88 882 l 307 882 l 307 97 l 88 97 l 88 0 l 639 0 l 639 97 l 421 97 l 421 882 z "},"Ī":{"ha":726,"x_min":0,"x_max":0,"o":"m 589 1238 l 140 1238 l 140 1146 l 589 1147 z m 639 882 l 639 979 l 88 979 l 88 882 l 307 882 l 307 97 l 88 97 l 88 0 l 639 0 l 639 97 l 421 97 l 421 882 z "},"Į":{"ha":726,"x_min":0,"x_max":0,"o":"m 400 -174 l 490 0 l 639 0 l 639 97 l 421 97 l 421 882 l 639 882 l 639 979 l 88 979 l 88 882 l 307 882 l 307 97 l 88 97 l 88 0 l 392 0 l 308 -156 b 385 -265 278 -212 313 -271 l 658 -240 l 658 -147 z "},"J":{"ha":657,"x_min":0,"x_max":0,"o":"m 272 -14 b 568 438 539 -31 568 157 l 568 910 b 485 993 568 963 539 996 l 199 979 l 199 882 l 456 896 l 456 450 b 272 83 456 175 435 74 l 46 97 l 46 0 z "},"K":{"ha":932,"x_min":0,"x_max":0,"o":"m 885 979 l 721 979 l 215 563 l 215 979 l 101 979 l 101 0 l 215 0 l 215 417 l 721 0 l 885 0 l 288 490 z "},"Ķ":{"ha":932,"x_min":0,"x_max":0,"o":"m 885 979 l 721 979 l 215 563 l 215 979 l 101 979 l 101 0 l 215 0 l 215 417 l 721 0 l 885 0 l 288 490 z m 321 -297 l 422 -326 l 496 -96 l 394 -68 z "},"L":{"ha":754,"x_min":0,"x_max":0,"o":"m 186 -14 l 708 0 l 708 97 l 215 83 l 215 979 l 101 979 l 101 69 b 186 -14 101 17 132 -15 z "},"Ĺ":{"ha":756,"x_min":0,"x_max":0,"o":"m 103 1181 l 125 1092 l 551 1201 l 529 1290 z m 188 -14 l 710 0 l 710 97 l 217 83 l 217 979 l 104 979 l 104 69 b 188 -14 104 17 133 -15 z "},"Ľ":{"ha":768,"x_min":0,"x_max":0,"o":"m 363 1031 l 363 678 l 467 678 l 467 1031 z m 186 -14 l 708 0 l 708 97 l 215 83 l 215 979 l 101 979 l 101 69 b 186 -14 101 17 132 -15 z "},"Ļ":{"ha":754,"x_min":0,"x_max":0,"o":"m 186 -14 l 708 0 l 708 97 l 215 83 l 215 979 l 101 979 l 101 69 b 186 -14 101 17 132 -15 z m 381 -68 l 307 -297 l 408 -326 l 482 -96 z "},"Ł":{"ha":846,"x_min":0,"x_max":0,"o":"m 293 83 l 293 458 l 575 535 l 553 624 l 293 554 l 293 979 l 179 979 l 179 522 l 74 494 l 97 406 l 179 428 l 179 69 b 263 -14 179 17 210 -15 l 785 0 l 785 97 z "},"M":{"ha":1249,"x_min":0,"x_max":0,"o":"m 101 0 l 215 0 l 215 865 l 197 947 l 229 947 l 510 0 l 739 0 l 1019 947 l 1053 947 l 1033 865 l 1033 0 l 1147 0 l 1147 979 l 919 979 l 640 32 l 608 32 l 331 979 l 101 979 z "},"N":{"ha":1049,"x_min":0,"x_max":0,"o":"m 101 0 l 215 0 l 215 865 l 197 947 l 229 947 l 717 0 l 946 0 l 946 979 l 833 979 l 833 114 l 851 32 l 819 32 l 331 979 l 101 979 z "},"Ń":{"ha":1049,"x_min":0,"x_max":0,"o":"m 325 1181 l 349 1092 l 774 1201 l 751 1290 z m 101 0 l 215 0 l 215 865 l 197 947 l 229 947 l 717 0 l 946 0 l 946 979 l 833 979 l 833 114 l 851 32 l 819 32 l 331 979 l 101 979 z "},"Ň":{"ha":1049,"x_min":0,"x_max":0,"o":"m 776 1251 l 711 1315 l 551 1185 l 393 1315 l 326 1251 l 551 1069 z m 101 0 l 215 0 l 215 865 l 197 947 l 229 947 l 717 0 l 946 0 l 946 979 l 833 979 l 833 114 l 851 32 l 819 32 l 331 979 l 101 979 z "},"Ņ":{"ha":1049,"x_min":0,"x_max":0,"o":"m 101 0 l 215 0 l 215 865 l 197 947 l 229 947 l 717 0 l 946 0 l 946 979 l 833 979 l 833 114 l 851 32 l 819 32 l 331 979 l 101 979 z m 465 -68 l 392 -297 l 493 -326 l 567 -96 z "},"Ŋ":{"ha":1049,"x_min":0,"x_max":0,"o":"m 833 979 l 833 114 l 851 32 l 819 32 l 331 979 l 101 979 l 101 0 l 215 0 l 215 865 l 197 947 l 229 947 l 717 0 l 833 0 l 833 -169 l 585 -156 l 585 -253 l 851 -267 b 946 -183 917 -269 946 -236 l 946 979 z "},"Ñ":{"ha":1049,"x_min":0,"x_max":0,"o":"m 300 1111 l 393 1111 b 450 1208 393 1194 419 1208 b 661 1097 511 1208 544 1097 b 803 1288 742 1097 803 1149 l 710 1288 b 653 1190 710 1204 683 1190 b 442 1301 592 1190 558 1301 b 300 1111 361 1301 300 1249 z m 101 0 l 215 0 l 215 865 l 197 947 l 229 947 l 717 0 l 946 0 l 946 979 l 833 979 l 833 114 l 851 32 l 819 32 l 331 979 l 101 979 z "},"O":{"ha":1089,"x_min":0,"x_max":0,"o":"m 88 490 b 546 -14 88 204 257 -14 b 1001 490 832 -14 1001 204 b 546 993 1001 775 832 993 b 88 490 257 993 88 775 z m 201 490 b 546 896 201 724 314 896 b 888 490 776 896 888 724 b 546 83 888 256 776 83 b 201 490 314 83 201 256 z "},"Ó":{"ha":1089,"x_min":0,"x_max":0,"o":"m 318 1181 l 342 1092 l 767 1201 l 744 1290 z m 88 490 b 546 -14 88 204 257 -14 b 1001 490 832 -14 1001 204 b 546 993 1001 775 832 993 b 88 490 257 993 88 775 z m 201 490 b 546 896 201 724 314 896 b 888 490 776 896 888 724 b 546 83 888 256 776 83 b 201 490 314 83 201 256 z "},"Ô":{"ha":1089,"x_min":0,"x_max":0,"o":"m 769 1132 l 544 1314 l 319 1132 l 386 1068 l 544 1199 l 704 1068 z m 88 490 b 546 -14 88 204 257 -14 b 1001 490 832 -14 1001 204 b 546 993 1001 775 832 993 b 88 490 257 993 88 775 z m 201 490 b 546 896 201 724 314 896 b 888 490 776 896 888 724 b 546 83 888 256 776 83 b 201 490 314 83 201 256 z "},"Ö":{"ha":1089,"x_min":0,"x_max":0,"o":"m 401 1089 b 503 1186 458 1089 503 1131 b 401 1282 503 1239 458 1282 b 300 1186 343 1282 300 1239 b 401 1089 300 1131 343 1089 z m 688 1089 b 789 1186 744 1089 789 1131 b 688 1282 789 1239 744 1282 b 586 1186 629 1282 586 1239 b 688 1089 586 1131 629 1089 z m 88 490 b 546 -14 88 204 257 -14 b 1001 490 832 -14 1001 204 b 546 993 1001 775 832 993 b 88 490 257 993 88 775 z m 201 490 b 546 896 201 724 314 896 b 888 490 776 896 888 724 b 546 83 888 256 776 83 b 201 490 314 83 201 256 z "},"Ò":{"ha":1089,"x_min":0,"x_max":0,"o":"m 771 1181 l 346 1290 l 322 1201 l 749 1092 z m 88 490 b 546 -14 88 204 257 -14 b 1001 490 832 -14 1001 204 b 546 993 1001 775 832 993 b 88 490 257 993 88 775 z m 201 490 b 546 896 201 724 314 896 b 888 490 776 896 888 724 b 546 83 888 256 776 83 b 201 490 314 83 201 256 z "},"Ő":{"ha":1089,"x_min":0,"x_max":0,"o":"m 353 1133 l 418 1071 l 615 1261 l 551 1325 z m 582 1133 l 647 1071 l 844 1261 l 781 1325 z m 88 490 b 546 -14 88 204 257 -14 b 1001 490 832 -14 1001 204 b 546 993 1001 775 832 993 b 88 490 257 993 88 775 z m 201 490 b 546 896 201 724 314 896 b 888 490 776 896 888 724 b 546 83 888 256 776 83 b 201 490 314 83 201 256 z "},"Ō":{"ha":1089,"x_min":0,"x_max":0,"o":"m 321 1238 l 321 1146 l 769 1147 l 769 1238 z m 88 490 b 546 -14 88 204 257 -14 b 1001 490 832 -14 1001 204 b 546 993 1001 775 832 993 b 88 490 257 993 88 775 z m 201 490 b 546 896 201 724 314 896 b 888 490 776 896 888 724 b 546 83 888 256 776 83 b 201 490 314 83 201 256 z "},"Ø":{"ha":1089,"x_min":0,"x_max":0,"o":"m 832 896 l 903 1018 l 825 1063 l 757 944 b 546 992 696 975 625 992 b 88 489 257 992 88 774 b 258 82 88 318 147 172 l 188 -40 l 263 -85 l 331 33 b 546 -15 393 1 464 -15 b 1001 489 832 -15 1001 203 b 832 896 1001 658 942 806 z m 201 489 b 546 894 201 724 314 894 b 707 858 608 894 663 882 l 310 171 b 201 489 238 244 201 357 z m 546 82 b 381 119 482 82 426 94 l 779 806 b 888 489 851 733 888 621 b 546 82 888 254 776 82 z "},"Õ":{"ha":1089,"x_min":0,"x_max":0,"o":"m 294 1111 l 388 1111 b 444 1208 388 1194 414 1208 b 656 1097 506 1208 539 1097 b 797 1288 736 1097 797 1149 l 704 1288 b 647 1190 704 1204 678 1190 b 436 1301 586 1190 553 1301 b 294 1111 356 1301 294 1249 z m 88 490 b 546 -14 88 204 257 -14 b 1001 490 832 -14 1001 204 b 546 993 1001 775 832 993 b 88 490 257 993 88 775 z m 201 490 b 546 896 201 724 314 896 b 888 490 776 896 888 724 b 546 83 888 256 776 83 b 201 490 314 83 201 256 z "},"Œ":{"ha":1582,"x_min":0,"x_max":0,"o":"m 1507 882 l 1507 979 l 901 979 l 901 822 b 546 993 824 928 701 993 b 88 490 257 993 88 775 b 546 -14 88 204 257 -14 b 901 157 701 -14 824 51 l 901 0 l 1507 0 l 1507 97 l 1015 97 l 1015 442 l 1438 442 l 1438 539 l 1015 539 l 1015 882 z m 546 83 b 201 490 314 83 201 256 b 546 896 201 724 314 896 b 888 490 776 896 888 724 b 546 83 888 256 776 83 z "},"P":{"ha":854,"x_min":0,"x_max":0,"o":"m 376 979 l 101 979 l 101 0 l 215 0 l 215 338 l 376 338 b 781 660 624 338 781 403 b 376 979 781 915 624 979 z m 378 435 l 215 435 l 215 882 l 378 882 b 667 660 544 882 667 851 b 378 435 667 465 544 435 z "},"Þ":{"ha":854,"x_min":0,"x_max":0,"o":"m 376 810 l 215 810 l 215 979 l 101 979 l 101 0 l 215 0 l 215 169 l 376 169 b 781 490 624 169 781 233 b 376 810 781 746 624 810 z m 378 267 l 215 267 l 215 713 l 378 713 b 667 490 544 713 667 685 b 378 267 667 294 544 267 z "},"Q":{"ha":1074,"x_min":0,"x_max":0,"o":"m 640 -71 b 1006 490 808 -1 1006 163 b 547 993 1006 778 835 993 b 88 496 260 993 88 781 b 511 0 88 208 271 0 b 696 39 599 0 667 19 l 708 18 b 257 -94 593 -54 397 -74 l 269 -186 b 1165 -218 601 -143 868 -164 l 1165 -121 b 640 -71 961 -82 804 -64 z m 547 94 b 201 496 328 94 201 261 b 547 896 201 731 328 896 b 892 490 767 896 892 724 b 547 94 892 256 767 94 z "},"R":{"ha":922,"x_min":0,"x_max":0,"o":"m 101 0 l 215 0 l 215 393 l 707 393 l 707 0 l 821 0 l 821 368 b 743 442 821 419 799 442 l 626 442 l 626 475 b 808 706 732 493 808 558 b 426 979 808 925 660 979 l 101 979 z m 215 490 l 215 882 l 426 882 b 694 686 593 882 694 867 b 426 490 694 507 593 490 z "},"Ŕ":{"ha":922,"x_min":0,"x_max":0,"o":"m 214 1181 l 238 1092 l 663 1201 l 640 1290 z m 101 0 l 215 0 l 215 393 l 707 393 l 707 0 l 821 0 l 821 368 b 743 442 821 419 799 442 l 626 442 l 626 475 b 808 706 732 493 808 558 b 426 979 808 925 660 979 l 101 979 z m 215 490 l 215 882 l 426 882 b 694 686 593 882 694 867 b 426 490 694 507 593 490 z "},"Ř":{"ha":922,"x_min":0,"x_max":0,"o":"m 665 1251 l 600 1315 l 440 1185 l 282 1315 l 215 1251 l 440 1069 z m 101 0 l 215 0 l 215 393 l 707 393 l 707 0 l 821 0 l 821 368 b 743 442 821 419 799 442 l 626 442 l 626 475 b 808 706 732 493 808 558 b 426 979 808 925 660 979 l 101 979 z m 215 490 l 215 882 l 426 882 b 694 686 593 882 694 867 b 426 490 694 507 593 490 z "},"Ŗ":{"ha":922,"x_min":0,"x_max":0,"o":"m 101 0 l 215 0 l 215 393 l 707 393 l 707 0 l 821 0 l 821 368 b 743 442 821 419 799 442 l 626 442 l 626 475 b 808 706 732 493 808 558 b 426 979 808 925 660 979 l 101 979 z m 215 490 l 215 882 l 426 882 b 694 686 593 882 694 867 b 426 490 694 507 593 490 z m 424 -68 l 350 -297 l 451 -326 l 525 -96 z "},"S":{"ha":939,"x_min":0,"x_max":0,"o":"m 879 247 b 465 564 879 451 657 504 b 218 754 304 614 218 651 b 451 896 218 863 317 896 b 725 657 601 896 725 824 l 839 657 b 451 993 839 817 740 993 b 104 751 210 993 104 901 b 438 467 104 578 244 525 b 765 242 593 421 765 390 b 503 83 765 124 669 83 b 174 367 297 83 174 135 l 60 367 b 503 -14 60 138 161 -14 b 879 247 792 -14 879 101 z "},"Ś":{"ha":939,"x_min":0,"x_max":0,"o":"m 243 1181 l 267 1092 l 692 1201 l 669 1290 z m 879 247 b 465 564 879 451 657 504 b 218 754 304 614 218 651 b 451 896 218 863 317 896 b 725 657 601 896 725 824 l 839 657 b 451 993 839 817 740 993 b 104 751 210 993 104 901 b 438 467 104 578 244 525 b 765 242 593 421 765 390 b 503 83 765 124 669 83 b 174 367 297 83 174 135 l 60 367 b 503 -14 60 138 161 -14 b 879 247 792 -14 879 101 z "},"Š":{"ha":939,"x_min":0,"x_max":0,"o":"m 694 1251 l 629 1315 l 469 1185 l 311 1315 l 244 1251 l 469 1069 z m 879 247 b 465 564 879 451 657 504 b 218 754 304 614 218 651 b 451 896 218 863 317 896 b 725 657 601 896 725 824 l 839 657 b 451 993 839 817 740 993 b 104 751 210 993 104 901 b 438 467 104 578 244 525 b 765 242 593 421 765 390 b 503 83 765 124 669 83 b 174 367 297 83 174 135 l 60 367 b 503 -14 60 138 161 -14 b 879 247 792 -14 879 101 z "},"Ş":{"ha":939,"x_min":0,"x_max":0,"o":"m 879 247 b 465 564 879 451 657 504 b 218 754 304 614 218 651 b 451 896 218 863 317 896 b 725 657 601 896 725 824 l 839 657 b 451 993 839 817 740 993 b 104 751 210 993 104 901 b 438 467 104 578 244 525 b 765 242 593 421 765 390 b 503 83 765 124 669 83 b 174 367 297 83 174 135 l 60 367 b 410 -10 60 160 143 17 l 357 -72 l 406 -136 b 503 -100 456 -106 478 -100 b 535 -128 522 -100 535 -110 b 336 -171 535 -172 463 -171 l 336 -257 b 626 -136 511 -257 626 -243 b 536 -58 626 -81 583 -58 b 446 -79 500 -58 471 -67 l 508 -14 b 879 247 793 -12 879 103 z "},"Ș":{"ha":939,"x_min":0,"x_max":0,"o":"m 879 247 b 465 564 879 451 657 504 b 218 754 304 614 218 651 b 451 896 218 863 317 896 b 725 657 601 896 725 824 l 839 657 b 451 993 839 817 740 993 b 104 751 210 993 104 901 b 438 467 104 578 244 525 b 765 242 593 421 765 390 b 503 83 765 124 669 83 b 174 367 297 83 174 135 l 60 367 b 503 -14 60 138 161 -14 b 879 247 792 -14 879 101 z m 411 -68 l 338 -297 l 439 -326 l 513 -96 z "},"ẞ":{"ha":865,"x_min":0,"x_max":0,"o":"m 293 0 l 511 -14 b 804 265 682 -26 804 54 b 433 504 804 511 617 571 l 426 536 l 679 728 b 413 993 679 890 589 993 b 101 703 239 993 101 911 l 101 0 l 215 0 l 215 686 b 413 896 215 854 283 896 b 565 764 529 896 565 844 l 372 614 l 419 426 b 692 271 525 476 692 475 b 511 85 692 139 629 78 l 293 97 z "},"T":{"ha":914,"x_min":0,"x_max":0,"o":"m 853 979 l 60 979 l 60 882 l 401 882 l 401 0 l 514 0 l 514 882 l 853 882 z "},"Ŧ":{"ha":914,"x_min":0,"x_max":0,"o":"m 853 882 l 853 979 l 60 979 l 60 882 l 401 882 l 401 546 l 185 546 l 185 454 l 401 454 l 401 0 l 514 0 l 514 454 l 729 454 l 729 546 l 514 546 l 514 882 z "},"Ť":{"ha":914,"x_min":0,"x_max":0,"o":"m 682 1251 l 617 1315 l 457 1185 l 299 1315 l 232 1251 l 457 1069 z m 853 979 l 60 979 l 60 882 l 401 882 l 401 0 l 514 0 l 514 882 l 853 882 z "},"Ţ":{"ha":914,"x_min":0,"x_max":0,"o":"m 514 0 l 514 882 l 853 882 l 853 979 l 60 979 l 60 882 l 401 882 l 401 0 l 406 0 l 344 -72 l 393 -136 b 490 -100 443 -106 465 -100 b 522 -128 510 -100 522 -110 b 324 -171 522 -172 450 -171 l 324 -257 b 614 -136 499 -257 614 -243 b 524 -58 614 -81 571 -58 b 433 -79 488 -58 458 -67 l 510 0 z "},"Ț":{"ha":914,"x_min":0,"x_max":0,"o":"m 853 979 l 60 979 l 60 882 l 401 882 l 401 0 l 514 0 l 514 882 l 853 882 z m 325 -297 l 426 -326 l 500 -96 l 399 -68 z "},"U":{"ha":924,"x_min":0,"x_max":0,"o":"m 74 364 b 461 -14 74 119 194 -14 b 850 364 729 -14 850 119 l 850 979 l 736 979 l 736 382 b 461 83 736 183 665 83 b 188 382 257 83 188 183 l 188 979 l 74 979 z "},"Ú":{"ha":924,"x_min":0,"x_max":0,"o":"m 235 1181 l 258 1092 l 683 1201 l 661 1290 z m 74 364 b 461 -14 74 119 194 -14 b 850 364 729 -14 850 119 l 850 979 l 736 979 l 736 382 b 461 83 736 183 665 83 b 188 382 257 83 188 183 l 188 979 l 74 979 z "},"Û":{"ha":924,"x_min":0,"x_max":0,"o":"m 686 1132 l 461 1314 l 236 1132 l 303 1068 l 461 1199 l 621 1068 z m 74 364 b 461 -14 74 119 194 -14 b 850 364 729 -14 850 119 l 850 979 l 736 979 l 736 382 b 461 83 736 183 665 83 b 188 382 257 83 188 183 l 188 979 l 74 979 z "},"Ü":{"ha":924,"x_min":0,"x_max":0,"o":"m 318 1089 b 419 1186 375 1089 419 1131 b 318 1282 419 1239 375 1282 b 217 1186 260 1282 217 1239 b 318 1089 217 1131 260 1089 z m 604 1089 b 706 1186 661 1089 706 1131 b 604 1282 706 1239 661 1282 b 503 1186 546 1282 503 1239 b 604 1089 503 1131 546 1089 z m 74 364 b 461 -14 74 119 194 -14 b 850 364 729 -14 850 119 l 850 979 l 736 979 l 736 382 b 461 83 736 183 665 83 b 188 382 257 83 188 183 l 188 979 l 74 979 z "},"Ù":{"ha":924,"x_min":0,"x_max":0,"o":"m 688 1181 l 263 1290 l 239 1201 l 665 1092 z m 74 364 b 461 -14 74 119 194 -14 b 850 364 729 -14 850 119 l 850 979 l 736 979 l 736 382 b 461 83 736 183 665 83 b 188 382 257 83 188 183 l 188 979 l 74 979 z "},"Ű":{"ha":924,"x_min":0,"x_max":0,"o":"m 269 1133 l 335 1071 l 532 1261 l 468 1325 z m 499 1133 l 564 1071 l 761 1261 l 697 1325 z m 74 364 b 461 -14 74 119 194 -14 b 850 364 729 -14 850 119 l 850 979 l 736 979 l 736 382 b 461 83 736 183 665 83 b 188 382 257 83 188 183 l 188 979 l 74 979 z "},"Ū":{"ha":924,"x_min":0,"x_max":0,"o":"m 238 1238 l 238 1146 l 686 1147 l 686 1238 z m 74 364 b 461 -14 74 119 194 -14 b 850 364 729 -14 850 119 l 850 979 l 736 979 l 736 382 b 461 83 736 183 665 83 b 188 382 257 83 188 183 l 188 979 l 74 979 z "},"Ų":{"ha":924,"x_min":0,"x_max":0,"o":"m 850 364 l 850 979 l 736 979 l 736 382 b 461 83 736 183 665 83 b 188 382 257 83 188 183 l 188 979 l 74 979 l 74 364 b 461 -14 74 119 194 -14 l 490 -14 l 414 -156 b 490 -265 383 -212 418 -271 l 764 -240 l 764 -147 l 506 -174 l 596 0 b 850 364 771 40 850 165 z "},"Ů":{"ha":924,"x_min":0,"x_max":0,"o":"m 460 1065 b 625 1217 565 1065 625 1138 b 460 1367 625 1296 565 1367 b 296 1217 354 1367 296 1296 b 460 1065 296 1136 354 1065 z m 460 1151 b 389 1217 414 1151 389 1176 b 460 1281 389 1256 414 1281 b 532 1217 507 1281 532 1256 b 460 1151 532 1176 508 1151 z m 74 364 b 461 -14 74 119 194 -14 b 850 364 729 -14 850 119 l 850 979 l 736 979 l 736 382 b 461 83 736 183 665 83 b 188 382 257 83 188 183 l 188 979 l 74 979 z "},"V":{"ha":958,"x_min":0,"x_max":0,"o":"m 46 979 l 363 0 l 596 0 l 911 979 l 799 979 l 494 32 l 463 32 l 160 979 z "},"W":{"ha":1407,"x_min":0,"x_max":0,"o":"m 46 979 l 256 0 l 488 0 l 688 947 l 719 947 l 921 0 l 1153 0 l 1361 979 l 1253 979 l 1053 32 l 1019 32 l 821 979 l 586 979 l 388 32 l 354 32 l 154 979 z "},"Ẃ":{"ha":1407,"x_min":0,"x_max":0,"o":"m 476 1181 l 500 1092 l 925 1201 l 903 1290 z m 46 979 l 256 0 l 488 0 l 688 947 l 719 947 l 921 0 l 1153 0 l 1361 979 l 1253 979 l 1053 32 l 1019 32 l 821 979 l 586 979 l 388 32 l 354 32 l 154 979 z "},"Ŵ":{"ha":1407,"x_min":0,"x_max":0,"o":"m 928 1132 l 703 1314 l 478 1132 l 544 1068 l 703 1199 l 863 1068 z m 46 979 l 256 0 l 488 0 l 688 947 l 719 947 l 921 0 l 1153 0 l 1361 979 l 1253 979 l 1053 32 l 1019 32 l 821 979 l 586 979 l 388 32 l 354 32 l 154 979 z "},"Ẅ":{"ha":1407,"x_min":0,"x_max":0,"o":"m 560 1089 b 661 1186 617 1089 661 1131 b 560 1282 661 1239 617 1282 b 458 1186 501 1282 458 1239 b 560 1089 458 1131 501 1089 z m 846 1089 b 947 1186 903 1089 947 1131 b 846 1282 947 1239 903 1282 b 744 1186 788 1282 744 1239 b 846 1089 744 1131 788 1089 z m 46 979 l 256 0 l 488 0 l 688 947 l 719 947 l 921 0 l 1153 0 l 1361 979 l 1253 979 l 1053 32 l 1019 32 l 821 979 l 586 979 l 388 32 l 354 32 l 154 979 z "},"Ẁ":{"ha":1407,"x_min":0,"x_max":0,"o":"m 929 1181 l 504 1290 l 481 1201 l 907 1092 z m 46 979 l 256 0 l 488 0 l 688 947 l 719 947 l 921 0 l 1153 0 l 1361 979 l 1253 979 l 1053 32 l 1019 32 l 821 979 l 586 979 l 388 32 l 354 32 l 154 979 z "},"X":{"ha":954,"x_min":0,"x_max":0,"o":"m 46 0 l 176 0 l 476 422 l 778 0 l 907 0 l 567 469 l 567 511 l 907 979 l 778 979 l 476 558 l 176 979 l 46 979 l 386 511 l 386 469 z "},"Y":{"ha":915,"x_min":0,"x_max":0,"o":"m 747 979 l 474 501 l 474 422 l 442 422 l 442 501 l 168 979 l 46 979 l 401 365 l 401 0 l 514 0 l 514 365 l 869 979 z "},"Ý":{"ha":915,"x_min":0,"x_max":0,"o":"m 231 1181 l 254 1092 l 679 1201 l 657 1290 z m 747 979 l 474 501 l 474 422 l 442 422 l 442 501 l 168 979 l 46 979 l 401 365 l 401 0 l 514 0 l 514 365 l 869 979 z "},"Ŷ":{"ha":915,"x_min":0,"x_max":0,"o":"m 682 1132 l 457 1314 l 232 1132 l 299 1068 l 457 1199 l 617 1068 z m 747 979 l 474 501 l 474 422 l 442 422 l 442 501 l 168 979 l 46 979 l 401 365 l 401 0 l 514 0 l 514 365 l 869 979 z "},"Ÿ":{"ha":915,"x_min":0,"x_max":0,"o":"m 314 1089 b 415 1186 371 1089 415 1131 b 314 1282 415 1239 371 1282 b 213 1186 256 1282 213 1239 b 314 1089 213 1131 256 1089 z m 600 1089 b 701 1186 657 1089 701 1131 b 600 1282 701 1239 657 1282 b 499 1186 542 1282 499 1239 b 600 1089 499 1131 542 1089 z m 747 979 l 474 501 l 474 422 l 442 422 l 442 501 l 168 979 l 46 979 l 401 365 l 401 0 l 514 0 l 514 365 l 869 979 z "},"Ỳ":{"ha":915,"x_min":0,"x_max":0,"o":"m 683 1181 l 258 1290 l 235 1201 l 661 1092 z m 747 979 l 474 501 l 474 422 l 442 422 l 442 501 l 168 979 l 46 979 l 401 365 l 401 0 l 514 0 l 514 365 l 869 979 z "},"Z":{"ha":906,"x_min":0,"x_max":0,"o":"m 74 0 l 832 0 l 832 97 l 185 97 l 107 79 l 107 111 l 832 760 l 832 979 l 74 979 l 74 882 l 721 882 l 799 900 l 799 868 l 74 219 z "},"Ź":{"ha":906,"x_min":0,"x_max":0,"o":"m 226 1181 l 250 1092 l 675 1201 l 653 1290 z m 74 0 l 832 0 l 832 97 l 185 97 l 107 79 l 107 111 l 832 760 l 832 979 l 74 979 l 74 882 l 721 882 l 799 900 l 799 868 l 74 219 z "},"Ž":{"ha":906,"x_min":0,"x_max":0,"o":"m 678 1251 l 613 1315 l 453 1185 l 294 1315 l 228 1251 l 453 1069 z m 74 0 l 832 0 l 832 97 l 185 97 l 107 79 l 107 111 l 832 760 l 832 979 l 74 979 l 74 882 l 721 882 l 799 900 l 799 868 l 74 219 z "},"Ż":{"ha":906,"x_min":0,"x_max":0,"o":"m 453 1089 b 554 1186 510 1089 554 1131 b 453 1282 554 1239 510 1282 b 351 1186 394 1282 351 1239 b 453 1089 351 1131 394 1089 z m 74 0 l 832 0 l 832 97 l 185 97 l 107 79 l 107 111 l 832 760 l 832 979 l 74 979 l 74 882 l 721 882 l 799 900 l 799 868 l 74 219 z "},"a":{"ha":822,"x_min":0,"x_max":0,"o":"m 74 192 b 304 -14 74 119 104 -14 b 571 190 471 -14 544 85 l 604 190 l 586 118 l 586 81 b 668 0 586 29 615 0 l 790 0 l 790 97 l 689 97 l 689 392 b 381 704 689 576 574 704 b 76 433 185 704 76 576 l 188 433 b 381 608 188 564 281 608 b 575 419 500 608 568 546 l 300 393 b 74 192 139 376 74 301 z m 188 206 b 319 308 188 274 232 300 l 575 335 b 318 83 575 192 475 83 b 188 206 238 83 188 126 z "},"á":{"ha":822,"x_min":0,"x_max":0,"o":"m 168 892 l 192 803 l 617 913 l 594 1001 z m 74 192 b 304 -14 74 119 104 -14 b 571 190 471 -14 544 85 l 604 190 l 586 118 l 586 81 b 668 0 586 29 615 0 l 790 0 l 790 97 l 689 97 l 689 392 b 381 704 689 576 574 704 b 76 433 185 704 76 576 l 188 433 b 381 608 188 564 281 608 b 575 419 500 608 568 546 l 300 393 b 74 192 139 376 74 301 z m 188 206 b 319 308 188 274 232 300 l 575 335 b 318 83 575 192 475 83 b 188 206 238 83 188 126 z "},"ă":{"ha":822,"x_min":0,"x_max":0,"o":"m 613 1021 l 519 1021 b 396 872 519 919 485 872 b 271 1021 307 872 271 919 l 178 1021 b 396 782 178 879 260 782 b 613 1021 531 782 613 879 z m 74 192 b 304 -14 74 119 104 -14 b 571 190 471 -14 544 85 l 604 190 l 586 118 l 586 81 b 668 0 586 29 615 0 l 790 0 l 790 97 l 689 97 l 689 392 b 381 704 689 576 574 704 b 76 433 185 704 76 576 l 188 433 b 381 608 188 564 281 608 b 575 419 500 608 568 546 l 300 393 b 74 192 139 376 74 301 z m 188 206 b 319 308 188 274 232 300 l 575 335 b 318 83 575 192 475 83 b 188 206 238 83 188 126 z "},"â":{"ha":822,"x_min":0,"x_max":0,"o":"m 619 843 l 394 1025 l 169 843 l 236 779 l 394 910 l 554 779 z m 74 192 b 304 -14 74 119 104 -14 b 571 190 471 -14 544 85 l 604 190 l 586 118 l 586 81 b 668 0 586 29 615 0 l 790 0 l 790 97 l 689 97 l 689 392 b 381 704 689 576 574 704 b 76 433 185 704 76 576 l 188 433 b 381 608 188 564 281 608 b 575 419 500 608 568 546 l 300 393 b 74 192 139 376 74 301 z m 188 206 b 319 308 188 274 232 300 l 575 335 b 318 83 575 192 475 83 b 188 206 238 83 188 126 z "},"ä":{"ha":822,"x_min":0,"x_max":0,"o":"m 251 800 b 353 897 308 800 353 842 b 251 993 353 950 308 993 b 150 897 193 993 150 950 b 251 800 150 842 193 800 z m 538 800 b 639 897 594 800 639 842 b 538 993 639 950 594 993 b 436 897 479 993 436 950 b 538 800 436 842 479 800 z m 74 192 b 304 -14 74 119 104 -14 b 571 190 471 -14 544 85 l 604 190 l 586 118 l 586 81 b 668 0 586 29 615 0 l 790 0 l 790 97 l 689 97 l 689 392 b 381 704 689 576 574 704 b 76 433 185 704 76 576 l 188 433 b 381 608 188 564 281 608 b 575 419 500 608 568 546 l 300 393 b 74 192 139 376 74 301 z m 188 206 b 319 308 188 274 232 300 l 575 335 b 318 83 575 192 475 83 b 188 206 238 83 188 126 z "},"à":{"ha":822,"x_min":0,"x_max":0,"o":"m 621 892 l 196 1001 l 172 913 l 599 803 z m 74 192 b 304 -14 74 119 104 -14 b 571 190 471 -14 544 85 l 604 190 l 586 118 l 586 81 b 668 0 586 29 615 0 l 790 0 l 790 97 l 689 97 l 689 392 b 381 704 689 576 574 704 b 76 433 185 704 76 576 l 188 433 b 381 608 188 564 281 608 b 575 419 500 608 568 546 l 300 393 b 74 192 139 376 74 301 z m 188 206 b 319 308 188 274 232 300 l 575 335 b 318 83 575 192 475 83 b 188 206 238 83 188 126 z "},"ā":{"ha":822,"x_min":0,"x_max":0,"o":"m 171 949 l 171 857 l 619 858 l 619 949 z m 74 192 b 304 -14 74 119 104 -14 b 571 190 471 -14 544 85 l 604 190 l 586 118 l 586 81 b 668 0 586 29 615 0 l 790 0 l 790 97 l 689 97 l 689 392 b 381 704 689 576 574 704 b 76 433 185 704 76 576 l 188 433 b 381 608 188 564 281 608 b 575 419 500 608 568 546 l 300 393 b 74 192 139 376 74 301 z m 188 206 b 319 308 188 274 232 300 l 575 335 b 318 83 575 192 475 83 b 188 206 238 83 188 126 z "},"ą":{"ha":822,"x_min":0,"x_max":0,"o":"m 699 -174 l 789 0 l 790 0 l 790 97 l 689 97 l 689 392 b 381 704 689 576 574 704 b 76 433 185 704 76 576 l 188 433 b 381 608 188 564 281 608 b 575 419 500 608 568 546 l 300 393 b 74 192 139 376 74 301 b 304 -14 74 119 104 -14 b 571 190 471 -14 544 85 l 604 190 l 586 118 l 586 81 b 668 0 586 29 615 0 l 690 0 l 607 -156 b 683 -265 576 -212 611 -271 l 957 -240 l 957 -147 z m 318 83 b 188 206 238 83 188 126 b 319 308 188 274 232 300 l 575 335 b 318 83 575 192 475 83 z "},"å":{"ha":822,"x_min":0,"x_max":0,"o":"m 393 776 b 558 928 499 776 558 849 b 393 1078 558 1007 499 1078 b 229 928 288 1078 229 1007 b 393 776 229 847 288 776 z m 393 863 b 322 928 347 863 322 888 b 393 992 322 967 347 992 b 465 928 440 992 465 967 b 393 863 465 888 442 863 z m 74 192 b 304 -14 74 119 104 -14 b 571 190 471 -14 544 85 l 604 190 l 586 118 l 586 81 b 668 0 586 29 615 0 l 790 0 l 790 97 l 689 97 l 689 392 b 381 704 689 576 574 704 b 76 433 185 704 76 576 l 188 433 b 381 608 188 564 281 608 b 575 419 500 608 568 546 l 300 393 b 74 192 139 376 74 301 z m 188 206 b 319 308 188 274 232 300 l 575 335 b 318 83 575 192 475 83 b 188 206 238 83 188 126 z "},"ã":{"ha":822,"x_min":0,"x_max":0,"o":"m 143 822 l 236 822 b 293 919 236 906 263 919 b 504 808 354 919 388 808 b 646 999 585 808 646 860 l 553 999 b 496 901 553 915 526 901 b 285 1013 435 901 401 1013 b 143 822 204 1013 143 960 z m 74 192 b 304 -14 74 119 104 -14 b 571 190 471 -14 544 85 l 604 190 l 586 118 l 586 81 b 668 0 586 29 615 0 l 790 0 l 790 97 l 689 97 l 689 392 b 381 704 689 576 574 704 b 76 433 185 704 76 576 l 188 433 b 381 608 188 564 281 608 b 575 419 500 608 568 546 l 300 393 b 74 192 139 376 74 301 z m 188 206 b 319 308 188 274 232 300 l 575 335 b 318 83 575 192 475 83 b 188 206 238 83 188 126 z "},"æ":{"ha":1353,"x_min":0,"x_max":0,"o":"m 1165 242 b 949 81 1139 136 1064 81 b 710 324 778 81 717 193 l 1254 324 l 1254 368 b 932 704 1254 581 1126 704 b 647 553 807 704 704 651 b 381 704 601 647 510 704 b 76 433 185 704 76 576 l 188 433 b 381 608 188 564 281 608 b 575 419 500 608 568 546 l 300 393 b 74 192 139 376 74 301 b 304 -14 74 119 104 -14 b 606 190 469 -14 568 85 l 626 190 b 949 -14 672 71 775 -14 b 1278 242 1168 -14 1253 135 z m 932 608 b 1143 410 1071 608 1143 521 l 710 410 b 932 608 710 521 797 608 z m 318 83 b 188 206 238 83 188 125 b 319 308 188 274 232 300 l 575 335 b 318 83 575 192 475 83 z "},"b":{"ha":911,"x_min":0,"x_max":0,"o":"m 101 0 l 215 0 l 215 101 l 197 179 l 229 179 b 510 -14 258 72 351 -14 b 838 346 710 -14 838 140 b 510 704 838 550 710 704 b 229 510 351 704 258 618 l 197 510 l 215 589 l 215 1021 l 101 1021 z m 215 346 b 475 607 215 529 333 607 b 724 346 618 607 724 529 b 475 83 724 161 618 83 b 215 346 333 83 215 161 z "},"c":{"ha":822,"x_min":0,"x_max":0,"o":"m 74 346 b 426 -14 74 146 203 -14 b 749 261 560 -14 731 61 l 633 261 b 426 83 614 129 526 83 b 188 346 263 83 188 203 b 426 607 188 488 263 607 b 633 429 526 607 614 561 l 749 429 b 426 704 731 629 560 704 b 74 346 203 704 74 544 z "},"ć":{"ha":822,"x_min":0,"x_max":0,"o":"m 199 892 l 222 803 l 647 913 l 625 1001 z m 74 346 b 426 -14 74 146 203 -14 b 749 261 560 -14 731 61 l 633 261 b 426 83 614 129 526 83 b 188 346 263 83 188 203 b 426 607 188 488 263 607 b 633 429 526 607 614 561 l 749 429 b 426 704 731 629 560 704 b 74 346 203 704 74 544 z "},"č":{"ha":822,"x_min":0,"x_max":0,"o":"m 651 963 l 586 1026 l 426 896 l 268 1026 l 201 963 l 426 781 z m 74 346 b 426 -14 74 146 203 -14 b 749 261 560 -14 731 61 l 633 261 b 426 83 614 129 526 83 b 188 346 263 83 188 203 b 426 607 188 488 263 607 b 633 429 526 607 614 561 l 749 429 b 426 704 731 629 560 704 b 74 346 203 704 74 544 z "},"ç":{"ha":822,"x_min":0,"x_max":0,"o":"m 426 83 b 188 346 263 83 188 203 b 426 607 188 488 263 607 b 633 429 526 607 614 561 l 749 429 b 426 704 731 629 560 704 b 74 346 203 704 74 544 b 353 -8 74 169 175 24 l 299 -72 l 347 -136 b 444 -100 397 -106 419 -100 b 476 -128 464 -100 476 -110 b 278 -171 476 -172 404 -171 l 278 -257 b 568 -136 453 -257 568 -243 b 478 -58 568 -81 525 -58 b 388 -79 442 -58 413 -67 l 451 -12 b 749 261 581 -4 732 74 l 633 261 b 426 83 614 129 526 83 z "},"ċ":{"ha":822,"x_min":0,"x_max":0,"o":"m 425 800 b 526 897 482 800 526 842 b 425 993 526 950 482 993 b 324 897 367 993 324 950 b 425 800 324 842 367 800 z m 74 346 b 426 -14 74 146 203 -14 b 749 261 560 -14 731 61 l 633 261 b 426 83 614 129 526 83 b 188 346 263 83 188 203 b 426 607 188 488 263 607 b 633 429 526 607 614 561 l 749 429 b 426 704 731 629 560 704 b 74 346 203 704 74 544 z "},"d":{"ha":913,"x_min":0,"x_max":0,"o":"m 810 0 l 810 1021 l 696 1021 l 696 589 l 715 510 l 682 510 b 403 704 653 618 560 704 b 74 346 203 704 74 550 b 403 -14 74 140 203 -14 b 682 179 560 -14 653 72 l 715 179 l 696 101 l 696 0 z m 696 346 b 436 83 696 161 579 83 b 188 346 293 83 188 161 b 436 607 188 529 293 607 b 696 346 579 607 696 529 z "},"ð":{"ha":904,"x_min":0,"x_max":0,"o":"m 596 894 l 722 961 l 656 1028 l 504 949 b 210 1031 418 990 318 1018 l 210 933 b 394 890 275 924 338 910 l 260 819 l 326 753 l 501 844 b 756 511 643 772 738 660 l 775 432 l 742 432 b 431 704 714 600 596 704 b 74 350 211 704 74 553 b 447 -14 74 139 207 -14 b 831 443 682 -14 831 157 b 596 894 831 643 740 794 z m 449 83 b 188 350 275 83 188 183 b 438 607 188 506 278 607 b 717 350 608 607 717 507 b 449 83 717 210 625 83 z "},"ď":{"ha":1064,"x_min":0,"x_max":0,"o":"m 900 1031 l 900 678 l 1004 678 l 1004 1031 z m 810 0 l 810 1021 l 696 1021 l 696 589 l 715 510 l 682 510 b 403 704 653 618 560 704 b 74 346 203 704 74 550 b 403 -14 74 140 203 -14 b 682 179 560 -14 653 72 l 715 179 l 696 101 l 696 0 z m 696 346 b 436 83 696 161 579 83 b 188 346 293 83 188 161 b 436 607 188 529 293 607 b 696 346 579 607 696 529 z "},"đ":{"ha":953,"x_min":0,"x_max":0,"o":"m 893 940 l 810 940 l 810 1021 l 696 1021 l 696 940 l 503 940 l 503 847 l 696 847 l 696 589 l 715 510 l 682 510 b 403 704 653 618 560 704 b 74 346 203 704 74 550 b 403 -14 74 140 203 -14 b 682 179 560 -14 653 72 l 715 179 l 696 101 l 696 0 l 810 0 l 810 847 l 893 847 z m 436 83 b 188 346 293 83 188 161 b 436 607 188 529 293 607 b 696 346 579 607 696 529 b 436 83 696 161 579 83 z "},"e":{"ha":828,"x_min":0,"x_max":0,"o":"m 74 354 b 425 -14 74 156 178 -14 b 754 242 644 -14 728 135 l 640 242 b 425 81 615 136 539 81 b 185 324 254 81 192 193 l 731 324 l 731 368 b 408 704 731 581 603 704 b 74 354 213 704 74 576 z m 185 410 b 408 608 185 521 272 608 b 619 410 546 608 619 521 z "},"é":{"ha":828,"x_min":0,"x_max":0,"o":"m 188 892 l 211 803 l 636 913 l 614 1001 z m 74 354 b 425 -14 74 156 178 -14 b 754 242 644 -14 728 135 l 640 242 b 425 81 615 136 539 81 b 185 324 254 81 192 193 l 731 324 l 731 368 b 408 704 731 581 603 704 b 74 354 213 704 74 576 z m 185 410 b 408 608 185 521 272 608 b 619 410 546 608 619 521 z "},"ě":{"ha":828,"x_min":0,"x_max":0,"o":"m 639 963 l 574 1026 l 414 896 l 256 1026 l 189 963 l 414 781 z m 74 354 b 425 -14 74 156 178 -14 b 754 242 644 -14 728 135 l 640 242 b 425 81 615 136 539 81 b 185 324 254 81 192 193 l 731 324 l 731 368 b 408 704 731 581 603 704 b 74 354 213 704 74 576 z m 185 410 b 408 608 185 521 272 608 b 619 410 546 608 619 521 z "},"ê":{"ha":828,"x_min":0,"x_max":0,"o":"m 639 843 l 414 1025 l 189 843 l 256 779 l 414 910 l 574 779 z m 74 354 b 425 -14 74 156 178 -14 b 754 242 644 -14 728 135 l 640 242 b 425 81 615 136 539 81 b 185 324 254 81 192 193 l 731 324 l 731 368 b 408 704 731 581 603 704 b 74 354 213 704 74 576 z m 185 410 b 408 608 185 521 272 608 b 619 410 546 608 619 521 z "},"ë":{"ha":828,"x_min":0,"x_max":0,"o":"m 271 800 b 372 897 328 800 372 842 b 271 993 372 950 328 993 b 169 897 213 993 169 950 b 271 800 169 842 213 800 z m 557 800 b 658 897 614 800 658 842 b 557 993 658 950 614 993 b 456 897 499 993 456 950 b 557 800 456 842 499 800 z m 74 354 b 425 -14 74 156 178 -14 b 754 242 644 -14 728 135 l 640 242 b 425 81 615 136 539 81 b 185 324 254 81 192 193 l 731 324 l 731 368 b 408 704 731 581 603 704 b 74 354 213 704 74 576 z m 185 410 b 408 608 185 521 272 608 b 619 410 546 608 619 521 z "},"ė":{"ha":828,"x_min":0,"x_max":0,"o":"m 414 800 b 515 897 471 800 515 842 b 414 993 515 950 471 993 b 313 897 356 993 313 950 b 414 800 313 842 356 800 z m 74 354 b 425 -14 74 156 178 -14 b 754 242 644 -14 728 135 l 640 242 b 425 81 615 136 539 81 b 185 324 254 81 192 193 l 731 324 l 731 368 b 408 704 731 581 603 704 b 74 354 213 704 74 576 z m 185 410 b 408 608 185 521 272 608 b 619 410 546 608 619 521 z "},"è":{"ha":828,"x_min":0,"x_max":0,"o":"m 640 892 l 215 1001 l 192 913 l 618 803 z m 74 354 b 425 -14 74 156 178 -14 b 754 242 644 -14 728 135 l 640 242 b 425 81 615 136 539 81 b 185 324 254 81 192 193 l 731 324 l 731 368 b 408 704 731 581 603 704 b 74 354 213 704 74 576 z m 185 410 b 408 608 185 521 272 608 b 619 410 546 608 619 521 z "},"ē":{"ha":828,"x_min":0,"x_max":0,"o":"m 190 949 l 190 857 l 639 858 l 639 949 z m 74 354 b 425 -14 74 156 178 -14 b 754 242 644 -14 728 135 l 640 242 b 425 81 615 136 539 81 b 185 324 254 81 192 193 l 731 324 l 731 368 b 408 704 731 581 603 704 b 74 354 213 704 74 576 z m 185 410 b 408 608 185 521 272 608 b 619 410 546 608 619 521 z "},"ę":{"ha":828,"x_min":0,"x_max":0,"o":"m 522 -3 b 754 242 671 35 732 153 l 640 242 b 425 81 615 136 539 81 b 185 324 254 81 192 193 l 731 324 l 731 368 b 408 704 731 581 603 704 b 74 354 213 704 74 576 b 418 -14 74 157 176 -11 l 342 -156 b 418 -265 311 -212 346 -271 l 692 -240 l 692 -147 l 433 -174 z m 408 608 b 619 410 546 608 619 521 l 185 410 b 408 608 185 521 272 608 z "},"f":{"ha":597,"x_min":0,"x_max":0,"o":"m 440 924 l 565 924 l 565 1021 l 446 1021 b 213 796 281 1021 213 933 l 213 690 l 60 690 l 60 593 l 213 593 l 213 97 l 60 97 l 60 0 l 526 0 l 526 97 l 325 97 l 325 593 l 526 593 l 526 690 l 325 690 l 325 793 b 440 924 325 883 353 924 z "},"g":{"ha":917,"x_min":0,"x_max":0,"o":"m 824 690 b 663 638 761 690 735 683 b 428 704 597 683 511 704 b 74 425 229 704 74 615 b 490 196 74 211 268 139 l 490 164 b 163 68 383 131 274 99 l 186 -11 b 661 -39 357 40 661 114 b 124 -157 661 -147 519 -157 l 124 -254 b 775 -47 586 -254 775 -231 b 458 101 775 106 619 128 b 783 419 667 178 783 271 b 736 565 783 479 765 529 b 826 593 763 585 788 593 l 885 593 l 885 690 z m 429 236 b 188 422 285 236 188 288 b 429 607 188 556 285 607 b 669 422 575 607 669 556 b 429 236 669 288 575 236 z "},"ğ":{"ha":917,"x_min":0,"x_max":0,"o":"m 431 782 b 647 1021 565 782 647 879 l 554 1021 b 431 872 554 919 519 872 b 306 1021 342 872 306 919 l 213 1021 b 431 782 213 879 294 782 z m 824 690 b 663 638 761 690 735 683 b 428 704 597 683 511 704 b 74 425 229 704 74 615 b 490 196 74 211 268 139 l 490 164 b 163 68 383 131 274 99 l 186 -11 b 661 -39 357 40 661 114 b 124 -157 661 -147 519 -157 l 124 -254 b 775 -47 586 -254 775 -231 b 458 101 775 106 619 128 b 783 419 667 178 783 271 b 736 565 783 479 765 529 b 826 593 763 585 788 593 l 885 593 l 885 690 z m 429 236 b 188 422 285 236 188 288 b 429 607 188 556 285 607 b 669 422 575 607 669 556 b 429 236 669 288 575 236 z "},"ģ":{"ha":917,"x_min":0,"x_max":0,"o":"m 556 1051 l 456 1078 l 383 826 l 485 800 z m 824 690 b 663 638 761 690 735 683 b 428 704 597 683 511 704 b 74 425 229 704 74 615 b 490 196 74 211 268 139 l 490 164 b 163 68 383 131 274 99 l 186 -11 b 661 -39 357 40 661 114 b 124 -157 661 -147 519 -157 l 124 -254 b 775 -47 586 -254 775 -231 b 458 101 775 106 619 128 b 783 419 667 178 783 271 b 736 565 783 479 765 529 b 826 593 763 585 788 593 l 885 593 l 885 690 z m 429 236 b 188 422 285 236 188 288 b 429 607 188 556 285 607 b 669 422 575 607 669 556 b 429 236 669 288 575 236 z "},"ġ":{"ha":917,"x_min":0,"x_max":0,"o":"m 429 800 b 531 897 486 800 531 842 b 429 993 531 950 486 993 b 328 897 371 993 328 950 b 429 800 328 842 371 800 z m 824 690 b 663 638 761 690 735 683 b 428 704 597 683 511 704 b 74 425 229 704 74 615 b 490 196 74 211 268 139 l 490 164 b 163 68 383 131 274 99 l 186 -11 b 661 -39 357 40 661 114 b 124 -157 661 -147 519 -157 l 124 -254 b 775 -47 586 -254 775 -231 b 458 101 775 106 619 128 b 783 419 667 178 783 271 b 736 565 783 479 765 529 b 826 593 763 585 788 593 l 885 593 l 885 690 z m 429 236 b 188 422 285 236 188 288 b 429 607 188 556 285 607 b 669 422 575 607 669 556 b 429 236 669 288 575 236 z "},"h":{"ha":840,"x_min":0,"x_max":0,"o":"m 494 704 b 229 492 344 704 257 617 l 197 492 l 215 571 l 215 1021 l 101 1021 l 101 0 l 215 0 l 215 306 b 464 607 215 492 318 607 b 639 407 582 607 639 551 l 639 0 l 751 0 l 751 422 b 494 704 751 614 650 704 z "},"ħ":{"ha":883,"x_min":0,"x_max":0,"o":"m 539 704 b 274 492 389 704 301 617 l 240 492 l 260 571 l 260 847 l 464 847 l 464 940 l 260 940 l 260 1021 l 146 1021 l 146 940 l 74 940 l 74 847 l 146 847 l 146 0 l 260 0 l 260 306 b 508 607 260 492 361 607 b 682 407 626 607 682 551 l 682 0 l 796 0 l 796 422 b 539 704 796 614 694 704 z "},"i":{"ha":615,"x_min":0,"x_max":0,"o":"m 304 800 b 404 897 360 800 404 842 b 304 993 404 950 360 993 b 204 897 247 993 204 950 b 304 800 204 842 247 800 z m 74 0 l 569 0 l 569 97 l 375 97 l 375 621 b 285 704 375 674 350 710 l 125 690 l 125 593 l 268 606 l 268 97 l 74 97 z "},"ı":{"ha":615,"x_min":0,"x_max":0,"o":"m 74 0 l 569 0 l 569 97 l 374 97 l 374 610 b 282 704 374 674 347 710 l 125 690 l 125 593 l 271 606 l 271 97 l 74 97 z "},"í":{"ha":621,"x_min":0,"x_max":0,"o":"m 53 892 l 76 803 l 501 913 l 479 1001 z m 79 0 l 574 0 l 574 97 l 378 97 l 378 610 b 288 704 378 674 351 710 l 129 690 l 129 593 l 275 606 l 275 97 l 79 97 z "},"î":{"ha":619,"x_min":0,"x_max":0,"o":"m 501 843 l 276 1025 l 53 843 l 118 779 l 276 910 l 436 779 z m 78 0 l 574 0 l 574 97 l 376 97 l 376 610 b 286 704 376 674 351 710 l 129 690 l 129 593 l 274 606 l 274 97 l 78 97 z "},"ï":{"ha":621,"x_min":0,"x_max":0,"o":"m 136 800 b 239 897 194 800 239 842 b 136 993 239 950 194 993 b 36 897 79 993 36 950 b 136 800 36 842 79 800 z m 422 800 b 524 897 479 800 524 842 b 422 993 524 950 479 993 b 322 897 364 993 322 950 b 422 800 322 842 364 800 z m 79 0 l 574 0 l 574 97 l 378 97 l 378 610 b 288 704 378 674 351 710 l 129 690 l 129 593 l 275 606 l 275 97 l 79 97 z "},"ì":{"ha":615,"x_min":0,"x_max":0,"o":"m 499 892 l 74 1001 l 50 913 l 476 803 z m 74 0 l 569 0 l 569 97 l 374 97 l 374 610 b 282 704 374 674 347 710 l 125 690 l 125 593 l 271 606 l 271 97 l 74 97 z "},"ī":{"ha":619,"x_min":0,"x_max":0,"o":"m 56 949 l 56 857 l 504 858 l 504 949 z m 78 0 l 574 0 l 574 97 l 376 97 l 376 610 b 286 704 376 674 351 710 l 129 690 l 129 593 l 274 606 l 274 97 l 78 97 z "},"į":{"ha":615,"x_min":0,"x_max":0,"o":"m 272 800 b 374 897 329 800 374 842 b 272 993 374 950 329 993 b 171 897 214 993 171 950 b 272 800 171 842 214 800 z m 569 0 l 569 97 l 374 97 l 374 610 b 282 704 374 674 347 710 l 125 690 l 125 593 l 271 606 l 271 97 l 74 97 l 74 0 l 289 0 l 206 -156 b 282 -265 175 -212 210 -271 l 556 -240 l 556 -147 l 297 -174 l 388 0 z "},"j":{"ha":396,"x_min":0,"x_max":0,"o":"m 218 800 b 319 897 275 800 319 842 b 218 993 319 950 275 993 b 118 897 161 993 118 950 b 218 800 118 842 161 800 z m 32 -254 l 157 -254 l 271 -53 b 294 42 289 -21 294 6 l 294 621 b 200 703 294 674 265 708 l 32 690 l 32 593 l 181 606 l 181 58 b 157 -36 181 22 175 -4 z "},"k":{"ha":781,"x_min":0,"x_max":0,"o":"m 590 0 l 719 0 l 453 371 l 622 464 b 678 564 661 485 682 518 l 667 690 l 553 690 l 567 553 l 215 361 l 215 1021 l 101 1021 l 101 0 l 215 0 l 215 242 l 360 321 z "},"ķ":{"ha":781,"x_min":0,"x_max":0,"o":"m 453 371 l 622 464 b 678 564 661 485 682 518 l 667 690 l 553 690 l 567 553 l 215 361 l 215 1021 l 101 1021 l 101 0 l 215 0 l 215 242 l 360 321 l 590 0 l 719 0 z m 272 -297 l 374 -326 l 447 -96 l 346 -68 z "},"l":{"ha":607,"x_min":0,"x_max":0,"o":"m 60 0 l 560 0 l 560 97 l 367 97 l 367 939 b 272 1035 367 1004 336 1040 l 111 1021 l 111 924 l 254 936 l 254 97 l 60 97 z "},"ĺ":{"ha":611,"x_min":0,"x_max":0,"o":"m 57 1222 l 81 1133 l 506 1243 l 483 1332 z m 65 0 l 565 0 l 565 97 l 372 97 l 372 939 b 276 1035 372 1004 342 1040 l 117 1021 l 117 924 l 258 936 l 258 97 l 65 97 z "},"ľ":{"ha":626,"x_min":0,"x_max":0,"o":"m 60 0 l 560 0 l 560 97 l 367 97 l 367 939 b 272 1035 367 1004 336 1040 l 111 1021 l 111 924 l 254 936 l 254 97 l 60 97 z m 476 1031 l 476 678 l 581 678 l 581 1031 z "},"ļ":{"ha":607,"x_min":0,"x_max":0,"o":"m 60 0 l 560 0 l 560 97 l 367 97 l 367 939 b 272 1035 367 1004 336 1040 l 111 1021 l 111 924 l 254 936 l 254 97 l 60 97 z m 250 -68 l 176 -297 l 278 -326 l 351 -96 z "},"ł":{"ha":607,"x_min":0,"x_max":0,"o":"m 367 97 l 367 475 l 556 525 l 532 615 l 367 571 l 367 939 b 272 1035 367 1004 336 1040 l 111 1021 l 111 924 l 254 936 l 254 540 l 65 489 l 89 400 l 254 444 l 254 97 l 60 97 l 60 0 l 560 0 l 560 97 z "},"m":{"ha":1253,"x_min":0,"x_max":0,"o":"m 951 704 b 704 494 804 704 732 619 l 683 494 b 476 704 668 618 601 704 b 229 494 329 704 257 619 l 197 494 l 215 572 l 215 690 l 101 690 l 101 0 l 215 0 l 215 304 b 435 607 215 485 297 607 b 576 408 547 607 576 542 l 576 0 l 690 0 l 690 304 b 910 607 690 485 772 607 b 1051 408 1022 607 1051 542 l 1051 0 l 1165 0 l 1165 435 b 951 704 1165 589 1096 704 z "},"n":{"ha":840,"x_min":0,"x_max":0,"o":"m 464 607 b 639 407 582 607 639 551 l 639 0 l 751 0 l 751 422 b 494 704 751 614 650 704 b 229 492 344 704 257 617 l 197 492 l 215 571 l 215 690 l 101 690 l 101 0 l 215 0 l 215 306 b 464 607 215 492 318 607 z "},"ń":{"ha":840,"x_min":0,"x_max":0,"o":"m 226 892 l 250 803 l 675 913 l 653 1001 z m 464 607 b 639 407 582 607 639 551 l 639 0 l 751 0 l 751 422 b 494 704 751 614 650 704 b 229 492 344 704 257 617 l 197 492 l 215 571 l 215 690 l 101 690 l 101 0 l 215 0 l 215 306 b 464 607 215 492 318 607 z "},"ň":{"ha":840,"x_min":0,"x_max":0,"o":"m 678 963 l 613 1026 l 453 896 l 294 1026 l 228 963 l 453 781 z m 464 607 b 639 407 582 607 639 551 l 639 0 l 751 0 l 751 422 b 494 704 751 614 650 704 b 229 492 344 704 257 617 l 197 492 l 215 571 l 215 690 l 101 690 l 101 0 l 215 0 l 215 306 b 464 607 215 492 318 607 z "},"ņ":{"ha":840,"x_min":0,"x_max":0,"o":"m 464 607 b 639 407 582 607 639 551 l 639 0 l 751 0 l 751 422 b 494 704 751 614 650 704 b 229 492 344 704 257 617 l 197 492 l 215 571 l 215 690 l 101 690 l 101 0 l 215 0 l 215 306 b 464 607 215 492 318 607 z m 369 -68 l 296 -297 l 397 -326 l 471 -96 z "},"ŋ":{"ha":840,"x_min":0,"x_max":0,"o":"m 494 704 b 229 492 344 704 257 617 l 197 492 l 215 571 l 215 690 l 101 690 l 101 0 l 215 0 l 215 306 b 464 607 215 492 318 607 b 639 407 582 607 639 551 l 639 -169 l 390 -156 l 390 -253 l 657 -267 b 751 -183 722 -269 751 -236 l 751 422 b 494 704 751 614 650 704 z "},"ñ":{"ha":840,"x_min":0,"x_max":0,"o":"m 203 822 l 296 822 b 353 919 296 906 322 919 b 564 808 414 919 447 808 b 706 999 644 808 706 860 l 613 999 b 556 901 613 915 586 901 b 344 1013 494 901 461 1013 b 203 822 264 1013 203 960 z m 464 607 b 639 407 582 607 639 551 l 639 0 l 751 0 l 751 422 b 494 704 751 614 650 704 b 229 492 344 704 257 617 l 197 492 l 215 571 l 215 690 l 101 690 l 101 0 l 215 0 l 215 306 b 464 607 215 492 318 607 z "},"o":{"ha":876,"x_min":0,"x_max":0,"o":"m 74 346 b 439 -14 74 144 218 -14 b 801 346 658 -14 801 144 b 439 704 801 546 658 704 b 74 346 218 704 74 546 z m 188 346 b 439 607 188 489 275 607 b 689 346 601 607 689 489 b 439 83 689 201 601 83 b 188 346 275 83 188 201 z "},"ó":{"ha":876,"x_min":0,"x_max":0,"o":"m 211 892 l 235 803 l 660 913 l 638 1001 z m 74 346 b 439 -14 74 144 218 -14 b 801 346 658 -14 801 144 b 439 704 801 546 658 704 b 74 346 218 704 74 546 z m 188 346 b 439 607 188 489 275 607 b 689 346 601 607 689 489 b 439 83 689 201 601 83 b 188 346 275 83 188 201 z "},"ô":{"ha":876,"x_min":0,"x_max":0,"o":"m 664 843 l 439 1025 l 214 843 l 281 779 l 439 910 l 599 779 z m 74 346 b 439 -14 74 144 218 -14 b 801 346 658 -14 801 144 b 439 704 801 546 658 704 b 74 346 218 704 74 546 z m 188 346 b 439 607 188 489 275 607 b 689 346 601 607 689 489 b 439 83 689 201 601 83 b 188 346 275 83 188 201 z "},"ö":{"ha":876,"x_min":0,"x_max":0,"o":"m 296 800 b 397 897 353 800 397 842 b 296 993 397 950 353 993 b 194 897 238 993 194 950 b 296 800 194 842 238 800 z m 582 800 b 683 897 639 800 683 842 b 582 993 683 950 639 993 b 481 897 524 993 481 950 b 582 800 481 842 524 800 z m 74 346 b 439 -14 74 144 218 -14 b 801 346 658 -14 801 144 b 439 704 801 546 658 704 b 74 346 218 704 74 546 z m 188 346 b 439 607 188 489 275 607 b 689 346 601 607 689 489 b 439 83 689 201 601 83 b 188 346 275 83 188 201 z "},"ò":{"ha":876,"x_min":0,"x_max":0,"o":"m 665 892 l 240 1001 l 217 913 l 643 803 z m 74 346 b 439 -14 74 144 218 -14 b 801 346 658 -14 801 144 b 439 704 801 546 658 704 b 74 346 218 704 74 546 z m 188 346 b 439 607 188 489 275 607 b 689 346 601 607 689 489 b 439 83 689 201 601 83 b 188 346 275 83 188 201 z "},"ő":{"ha":876,"x_min":0,"x_max":0,"o":"m 247 844 l 313 782 l 510 972 l 446 1036 z m 476 844 l 542 782 l 739 972 l 675 1036 z m 74 346 b 439 -14 74 144 218 -14 b 801 346 658 -14 801 144 b 439 704 801 546 658 704 b 74 346 218 704 74 546 z m 188 346 b 439 607 188 489 275 607 b 689 346 601 607 689 489 b 439 83 689 201 601 83 b 188 346 275 83 188 201 z "},"ō":{"ha":876,"x_min":0,"x_max":0,"o":"m 215 949 l 215 857 l 664 858 l 664 949 z m 74 346 b 439 -14 74 144 218 -14 b 801 346 658 -14 801 144 b 439 704 801 546 658 704 b 74 346 218 704 74 546 z m 188 346 b 439 607 188 489 275 607 b 689 346 601 607 689 489 b 439 83 689 201 601 83 b 188 346 275 83 188 201 z "},"ø":{"ha":876,"x_min":0,"x_max":0,"o":"m 658 638 l 706 718 l 629 761 l 582 679 b 439 704 539 696 492 704 b 74 346 218 704 74 546 b 219 51 74 224 128 117 l 172 -29 l 247 -72 l 296 11 b 439 -14 339 -6 386 -14 b 801 346 658 -14 801 144 b 658 638 801 467 749 572 z m 188 346 b 439 607 188 489 275 607 b 532 592 474 607 504 601 l 271 142 b 188 346 217 190 188 264 z m 439 83 b 346 99 404 83 374 89 l 607 549 b 689 346 661 500 689 426 b 439 83 689 201 601 83 z "},"õ":{"ha":876,"x_min":0,"x_max":0,"o":"m 188 822 l 281 822 b 338 919 281 906 307 919 b 549 808 399 919 432 808 b 690 999 629 808 690 860 l 597 999 b 540 901 597 915 571 901 b 329 1013 479 901 446 1013 b 188 822 249 1013 188 960 z m 74 346 b 439 -14 74 144 218 -14 b 801 346 658 -14 801 144 b 439 704 801 546 658 704 b 74 346 218 704 74 546 z m 188 346 b 439 607 188 489 275 607 b 689 346 601 607 689 489 b 439 83 689 201 601 83 b 188 346 275 83 188 201 z "},"œ":{"ha":1463,"x_min":0,"x_max":0,"o":"m 1275 242 b 1060 81 1250 136 1175 81 b 821 324 889 81 828 193 l 1365 324 l 1365 368 b 1043 704 1365 581 1238 704 b 750 539 911 704 804 646 b 439 704 690 639 581 704 b 74 346 218 704 74 546 b 439 -14 74 144 218 -14 b 753 157 582 -14 693 54 b 1060 -14 804 56 903 -14 b 1389 242 1279 -14 1364 135 z m 1043 608 b 1254 410 1182 608 1254 521 l 821 410 b 1043 608 821 521 908 608 z m 439 83 b 188 346 275 83 188 201 b 439 607 188 489 275 607 b 689 346 601 607 689 489 b 439 83 689 201 601 83 z "},"p":{"ha":911,"x_min":0,"x_max":0,"o":"m 101 690 l 101 -253 l 215 -253 l 215 101 l 197 179 l 229 179 b 508 -14 258 72 350 -14 b 838 344 708 -14 838 140 b 508 704 838 550 708 704 b 229 510 350 704 258 618 l 197 510 l 215 589 l 215 690 z m 215 344 b 475 607 215 529 333 607 b 724 344 618 607 724 526 b 475 83 724 164 618 83 b 215 344 333 83 215 161 z "},"þ":{"ha":911,"x_min":0,"x_max":0,"o":"m 508 704 b 229 510 350 704 258 618 l 197 510 l 215 589 l 215 1021 l 101 1021 l 101 -253 l 215 -253 l 215 101 l 197 179 l 229 179 b 508 -14 258 72 350 -14 b 838 344 708 -14 838 140 b 508 704 838 550 708 704 z m 475 83 b 215 344 333 83 215 161 b 475 607 215 529 333 607 b 724 344 618 607 724 526 b 475 83 724 164 618 83 z "},"q":{"ha":913,"x_min":0,"x_max":0,"o":"m 810 690 l 696 690 l 696 589 l 715 510 l 682 510 b 404 704 653 618 561 704 b 74 344 203 704 74 550 b 404 -14 74 140 203 -14 b 682 179 561 -14 653 72 l 715 179 l 696 101 l 696 -253 l 810 -253 z m 696 344 b 436 83 696 161 579 83 b 188 344 293 83 188 164 b 436 607 188 526 293 607 b 696 344 579 607 696 529 z "},"r":{"ha":613,"x_min":0,"x_max":0,"o":"m 101 0 l 215 0 l 215 606 l 581 593 l 581 690 l 197 703 b 101 608 132 706 101 674 z "},"ŕ":{"ha":615,"x_min":0,"x_max":0,"o":"m 129 892 l 151 803 l 576 913 l 554 1001 z m 104 0 l 218 0 l 218 606 l 583 593 l 583 690 l 200 703 b 104 608 135 706 104 674 z "},"ř":{"ha":617,"x_min":0,"x_max":0,"o":"m 579 963 l 514 1026 l 354 896 l 196 1026 l 129 963 l 354 781 z m 104 0 l 218 0 l 218 606 l 582 593 l 582 690 l 199 703 b 104 608 135 706 104 674 z "},"ŗ":{"ha":610,"x_min":0,"x_max":0,"o":"m 100 0 l 213 0 l 213 606 l 578 593 l 578 690 l 194 703 b 100 608 129 706 100 674 z m 99 -68 l 25 -297 l 126 -326 l 200 -96 z "},"s":{"ha":693,"x_min":0,"x_max":0,"o":"m 647 179 b 364 403 647 328 500 358 b 206 526 253 439 206 460 b 343 611 206 589 267 611 b 510 472 453 611 510 565 l 624 472 b 343 704 624 586 558 704 b 92 522 185 704 92 632 b 328 315 92 397 197 357 b 533 175 440 281 533 265 b 376 79 533 104 483 79 b 174 254 243 79 174 135 l 60 254 b 375 -14 60 90 151 -14 b 647 179 582 -14 647 75 z "},"ś":{"ha":693,"x_min":0,"x_max":0,"o":"m 128 892 l 151 803 l 576 913 l 554 1001 z m 647 179 b 364 403 647 328 500 358 b 206 526 253 439 206 460 b 343 611 206 589 267 611 b 510 472 453 611 510 565 l 624 472 b 343 704 624 586 558 704 b 92 522 185 704 92 632 b 328 315 92 397 197 357 b 533 175 440 281 533 265 b 376 79 533 104 483 79 b 174 254 243 79 174 135 l 60 254 b 375 -14 60 90 151 -14 b 647 179 582 -14 647 75 z "},"š":{"ha":693,"x_min":0,"x_max":0,"o":"m 579 963 l 514 1026 l 354 896 l 196 1026 l 129 963 l 354 781 z m 647 179 b 364 403 647 328 500 358 b 206 526 253 439 206 460 b 343 611 206 589 267 611 b 510 472 453 611 510 565 l 624 472 b 343 704 624 586 558 704 b 92 522 185 704 92 632 b 328 315 92 397 197 357 b 533 175 440 281 533 265 b 376 79 533 104 483 79 b 174 254 243 79 174 135 l 60 254 b 375 -14 60 90 151 -14 b 647 179 582 -14 647 75 z "},"ş":{"ha":693,"x_min":0,"x_max":0,"o":"m 647 179 b 364 403 647 328 500 358 b 206 526 253 439 206 460 b 343 611 206 589 267 611 b 510 472 453 611 510 565 l 624 472 b 343 704 624 586 558 704 b 92 522 185 704 92 632 b 328 315 92 397 197 357 b 533 175 440 281 533 265 b 376 79 533 104 483 79 b 174 254 243 79 174 135 l 60 254 b 296 -8 60 111 129 14 l 242 -72 l 290 -136 b 388 -100 340 -106 363 -100 b 419 -128 407 -100 419 -110 b 221 -171 419 -172 347 -171 l 221 -257 b 511 -136 396 -257 511 -243 b 421 -58 511 -81 468 -58 b 331 -79 385 -58 356 -67 l 393 -14 b 647 179 586 -8 647 78 z "},"ș":{"ha":693,"x_min":0,"x_max":0,"o":"m 647 179 b 364 403 647 328 500 358 b 206 526 253 439 206 460 b 343 611 206 589 267 611 b 510 472 453 611 510 565 l 624 472 b 343 704 624 586 558 704 b 92 522 185 704 92 632 b 328 315 92 397 197 357 b 533 175 440 281 533 265 b 376 79 533 104 483 79 b 174 254 243 79 174 135 l 60 254 b 375 -14 60 90 151 -14 b 647 179 582 -14 647 75 z m 296 -68 l 222 -297 l 324 -326 l 397 -96 z "},"ß":{"ha":764,"x_min":0,"x_max":0,"o":"m 293 0 l 447 -14 b 718 221 601 -28 718 54 b 443 553 718 489 443 432 b 604 806 443 651 604 651 b 375 993 604 901 531 993 b 101 710 238 993 101 931 l 101 0 l 215 0 l 215 693 b 375 896 215 867 283 896 b 490 797 456 896 490 860 b 329 539 490 686 329 692 b 604 226 329 353 604 433 b 442 85 604 136 556 75 l 293 97 z "},"t":{"ha":601,"x_min":0,"x_max":0,"o":"m 297 82 l 297 593 l 513 593 l 513 690 l 297 690 l 297 903 l 185 868 l 185 690 l 32 690 l 32 593 l 185 593 l 185 81 b 279 -14 185 17 214 -18 l 540 0 l 540 97 z "},"ŧ":{"ha":601,"x_min":0,"x_max":0,"o":"m 297 82 l 297 354 l 472 354 l 472 447 l 297 447 l 297 593 l 513 593 l 513 690 l 297 690 l 297 903 l 185 868 l 185 690 l 32 690 l 32 593 l 185 593 l 185 447 l 60 447 l 60 354 l 185 354 l 185 81 b 279 -14 185 17 214 -18 l 540 0 l 540 97 z "},"ť":{"ha":601,"x_min":0,"x_max":0,"o":"m 486 1021 l 382 1021 l 382 771 l 486 771 z m 297 82 l 297 593 l 513 593 l 513 690 l 297 690 l 297 903 l 185 868 l 185 690 l 32 690 l 32 593 l 185 593 l 185 81 b 279 -14 185 17 214 -18 l 540 0 l 540 97 z "},"ţ":{"ha":601,"x_min":0,"x_max":0,"o":"m 540 0 l 540 97 l 297 82 l 297 593 l 513 593 l 513 690 l 297 690 l 297 903 l 185 868 l 185 690 l 32 690 l 32 593 l 185 593 l 185 81 b 279 -14 185 17 214 -18 l 307 -12 l 257 -72 l 306 -136 b 403 -100 356 -106 378 -100 b 435 -128 422 -100 435 -110 b 236 -171 435 -172 363 -171 l 236 -257 b 526 -136 411 -257 526 -243 b 436 -58 526 -81 483 -58 b 346 -79 400 -58 371 -67 l 415 -7 z "},"ț":{"ha":601,"x_min":0,"x_max":0,"o":"m 297 82 l 297 593 l 513 593 l 513 690 l 297 690 l 297 903 l 185 868 l 185 690 l 32 690 l 32 593 l 185 593 l 185 81 b 279 -14 185 17 214 -18 l 540 0 l 540 97 z m 238 -297 l 339 -326 l 413 -96 l 311 -68 z "},"u":{"ha":826,"x_min":0,"x_max":0,"o":"m 376 83 b 201 283 257 83 201 139 l 201 690 l 88 690 l 88 268 b 346 -14 88 76 189 -14 b 611 199 496 -14 583 74 l 643 199 l 625 119 l 625 0 l 738 0 l 738 690 l 625 690 l 625 383 b 376 83 625 199 522 83 z "},"ú":{"ha":826,"x_min":0,"x_max":0,"o":"m 197 892 l 221 803 l 646 913 l 624 1001 z m 376 83 b 201 283 257 83 201 139 l 201 690 l 88 690 l 88 268 b 346 -14 88 76 189 -14 b 611 199 496 -14 583 74 l 643 199 l 625 119 l 625 0 l 738 0 l 738 690 l 625 690 l 625 383 b 376 83 625 199 522 83 z "},"û":{"ha":826,"x_min":0,"x_max":0,"o":"m 650 843 l 425 1025 l 200 843 l 267 779 l 425 910 l 585 779 z m 376 83 b 201 283 257 83 201 139 l 201 690 l 88 690 l 88 268 b 346 -14 88 76 189 -14 b 611 199 496 -14 583 74 l 643 199 l 625 119 l 625 0 l 738 0 l 738 690 l 625 690 l 625 383 b 376 83 625 199 522 83 z "},"ü":{"ha":826,"x_min":0,"x_max":0,"o":"m 282 800 b 383 897 339 800 383 842 b 282 993 383 950 339 993 b 181 897 224 993 181 950 b 282 800 181 842 224 800 z m 568 800 b 669 897 625 800 669 842 b 568 993 669 950 625 993 b 467 897 510 993 467 950 b 568 800 467 842 510 800 z m 376 83 b 201 283 257 83 201 139 l 201 690 l 88 690 l 88 268 b 346 -14 88 76 189 -14 b 611 199 496 -14 583 74 l 643 199 l 625 119 l 625 0 l 738 0 l 738 690 l 625 690 l 625 383 b 376 83 625 199 522 83 z "},"ù":{"ha":826,"x_min":0,"x_max":0,"o":"m 651 892 l 226 1001 l 203 913 l 629 803 z m 376 83 b 201 283 257 83 201 139 l 201 690 l 88 690 l 88 268 b 346 -14 88 76 189 -14 b 611 199 496 -14 583 74 l 643 199 l 625 119 l 625 0 l 738 0 l 738 690 l 625 690 l 625 383 b 376 83 625 199 522 83 z "},"ű":{"ha":826,"x_min":0,"x_max":0,"o":"m 233 844 l 299 782 l 496 972 l 432 1036 z m 463 844 l 528 782 l 725 972 l 661 1036 z m 376 83 b 201 283 257 83 201 139 l 201 690 l 88 690 l 88 268 b 346 -14 88 76 189 -14 b 611 199 496 -14 583 74 l 643 199 l 625 119 l 625 0 l 738 0 l 738 690 l 625 690 l 625 383 b 376 83 625 199 522 83 z "},"ū":{"ha":826,"x_min":0,"x_max":0,"o":"m 201 949 l 201 857 l 650 858 l 650 949 z m 376 83 b 201 283 257 83 201 139 l 201 690 l 88 690 l 88 268 b 346 -14 88 76 189 -14 b 611 199 496 -14 583 74 l 643 199 l 625 119 l 625 0 l 738 0 l 738 690 l 625 690 l 625 383 b 376 83 625 199 522 83 z "},"ų":{"ha":826,"x_min":0,"x_max":0,"o":"m 646 -174 l 736 0 l 738 0 l 738 690 l 625 690 l 625 383 b 376 83 625 199 522 83 b 201 283 257 83 201 139 l 201 690 l 88 690 l 88 268 b 346 -14 88 76 189 -14 b 611 199 496 -14 583 74 l 643 199 l 625 119 l 625 0 l 638 0 l 554 -156 b 631 -265 524 -212 558 -271 l 904 -240 l 904 -147 z "},"ů":{"ha":826,"x_min":0,"x_max":0,"o":"m 424 776 b 589 928 529 776 589 849 b 424 1078 589 1007 529 1078 b 260 928 318 1078 260 1007 b 424 776 260 847 318 776 z m 424 863 b 353 928 378 863 353 888 b 424 992 353 967 378 992 b 496 928 471 992 496 967 b 424 863 496 888 472 863 z m 376 83 b 201 283 257 83 201 139 l 201 690 l 88 690 l 88 268 b 346 -14 88 76 189 -14 b 611 199 496 -14 583 74 l 643 199 l 625 119 l 625 0 l 738 0 l 738 690 l 625 690 l 625 383 b 376 83 625 199 522 83 z "},"v":{"ha":749,"x_min":0,"x_max":0,"o":"m 606 690 l 392 32 l 358 32 l 143 690 l 32 690 l 260 0 l 490 0 l 715 690 z "},"w":{"ha":1194,"x_min":0,"x_max":0,"o":"m 32 690 l 207 0 l 440 0 l 581 657 l 614 657 l 754 0 l 986 0 l 1161 690 l 1054 690 l 886 32 l 854 32 l 714 690 l 479 690 l 340 32 l 307 32 l 140 690 z "},"ẃ":{"ha":1194,"x_min":0,"x_max":0,"o":"m 369 892 l 393 803 l 818 913 l 796 1001 z m 32 690 l 207 0 l 440 0 l 581 657 l 614 657 l 754 0 l 986 0 l 1161 690 l 1054 690 l 886 32 l 854 32 l 714 690 l 479 690 l 340 32 l 307 32 l 140 690 z "},"ŵ":{"ha":1194,"x_min":0,"x_max":0,"o":"m 822 843 l 597 1025 l 372 843 l 439 779 l 597 910 l 757 779 z m 32 690 l 207 0 l 440 0 l 581 657 l 614 657 l 754 0 l 986 0 l 1161 690 l 1054 690 l 886 32 l 854 32 l 714 690 l 479 690 l 340 32 l 307 32 l 140 690 z "},"ẅ":{"ha":1194,"x_min":0,"x_max":0,"o":"m 454 800 b 556 897 511 800 556 842 b 454 993 556 950 511 993 b 353 897 396 993 353 950 b 454 800 353 842 396 800 z m 740 800 b 842 897 797 800 842 842 b 740 993 842 950 797 993 b 639 897 682 993 639 950 b 740 800 639 842 682 800 z m 32 690 l 207 0 l 440 0 l 581 657 l 614 657 l 754 0 l 986 0 l 1161 690 l 1054 690 l 886 32 l 854 32 l 714 690 l 479 690 l 340 32 l 307 32 l 140 690 z "},"ẁ":{"ha":1194,"x_min":0,"x_max":0,"o":"m 824 892 l 399 1001 l 375 913 l 801 803 z m 32 690 l 207 0 l 440 0 l 581 657 l 614 657 l 754 0 l 986 0 l 1161 690 l 1054 690 l 886 32 l 854 32 l 714 690 l 479 690 l 340 32 l 307 32 l 140 690 z "},"x":{"ha":808,"x_min":0,"x_max":0,"o":"m 60 0 l 194 0 l 404 279 l 614 0 l 749 0 l 489 329 l 489 363 l 749 690 l 614 690 l 404 413 l 194 690 l 60 690 l 319 363 l 319 329 z "},"y":{"ha":821,"x_min":0,"x_max":0,"o":"m 651 690 l 435 153 l 435 100 l 401 100 l 401 153 l 185 690 l 60 690 l 361 7 l 361 -171 l 113 -158 l 113 -256 l 379 -268 b 475 -186 444 -271 475 -239 l 475 7 l 775 690 z "},"ý":{"ha":821,"x_min":0,"x_max":0,"o":"m 640 913 l 618 1001 l 192 892 l 215 803 z m 651 690 l 435 153 l 435 100 l 401 100 l 401 153 l 185 690 l 60 690 l 361 7 l 361 -171 l 113 -158 l 113 -256 l 379 -268 b 475 -186 444 -271 475 -239 l 475 7 l 775 690 z "},"ŷ":{"ha":821,"x_min":0,"x_max":0,"o":"m 418 910 l 578 779 l 643 843 l 418 1025 l 193 843 l 260 779 z m 651 690 l 435 153 l 435 100 l 401 100 l 401 153 l 185 690 l 60 690 l 361 7 l 361 -171 l 113 -158 l 113 -256 l 379 -268 b 475 -186 444 -271 475 -239 l 475 7 l 775 690 z "},"ÿ":{"ha":821,"x_min":0,"x_max":0,"o":"m 275 800 b 376 897 332 800 376 842 b 275 993 376 950 332 993 b 174 897 217 993 174 950 b 275 800 174 842 217 800 z m 561 800 b 663 897 618 800 663 842 b 561 993 663 950 618 993 b 460 897 503 993 460 950 b 561 800 460 842 503 800 z m 651 690 l 435 153 l 435 100 l 401 100 l 401 153 l 185 690 l 60 690 l 361 7 l 361 -171 l 113 -158 l 113 -256 l 379 -268 b 475 -186 444 -271 475 -239 l 475 7 l 775 690 z "},"ỳ":{"ha":821,"x_min":0,"x_max":0,"o":"m 644 892 l 219 1001 l 196 913 l 622 803 z m 651 690 l 435 153 l 435 100 l 401 100 l 401 153 l 185 690 l 60 690 l 361 7 l 361 -171 l 113 -158 l 113 -256 l 379 -268 b 475 -186 444 -271 475 -239 l 475 7 l 775 690 z "},"z":{"ha":781,"x_min":0,"x_max":0,"o":"m 74 0 l 707 0 l 707 97 l 185 97 l 107 79 l 107 111 l 707 482 l 707 690 l 74 690 l 74 593 l 596 593 l 674 611 l 674 579 l 74 208 z "},"ź":{"ha":781,"x_min":0,"x_max":0,"o":"m 164 892 l 188 803 l 613 913 l 590 1001 z m 74 0 l 707 0 l 707 97 l 185 97 l 107 79 l 107 111 l 707 482 l 707 690 l 74 690 l 74 593 l 596 593 l 674 611 l 674 579 l 74 208 z "},"ž":{"ha":781,"x_min":0,"x_max":0,"o":"m 615 963 l 550 1026 l 390 896 l 232 1026 l 165 963 l 390 781 z m 74 0 l 707 0 l 707 97 l 185 97 l 107 79 l 107 111 l 707 482 l 707 690 l 74 690 l 74 593 l 596 593 l 674 611 l 674 579 l 74 208 z "},"ż":{"ha":781,"x_min":0,"x_max":0,"o":"m 390 800 b 492 897 447 800 492 842 b 390 993 492 950 447 993 b 289 897 332 993 289 950 b 390 800 289 842 332 800 z m 74 0 l 707 0 l 707 97 l 185 97 l 107 79 l 107 111 l 707 482 l 707 690 l 74 690 l 74 593 l 596 593 l 674 611 l 674 579 l 74 208 z "},"А":{"ha":958,"x_min":0,"x_max":0,"o":"m 799 0 l 911 0 l 596 979 l 363 979 l 46 0 l 160 0 l 282 383 l 675 383 z m 314 481 l 463 947 l 494 947 l 644 481 z "},"Б":{"ha":868,"x_min":0,"x_max":0,"o":"m 399 614 l 215 614 l 215 882 l 678 882 l 678 979 l 101 979 l 101 0 l 399 0 b 781 306 632 0 781 64 b 399 614 781 549 632 614 z m 399 97 l 215 97 l 215 517 l 399 517 b 667 306 571 517 667 485 b 399 97 667 128 571 97 z "},"В":{"ha":897,"x_min":0,"x_max":0,"o":"m 101 0 l 424 0 b 810 260 661 0 810 63 b 542 499 810 435 692 496 l 542 532 b 738 739 643 539 738 597 b 361 979 738 932 600 979 l 101 979 z m 215 558 l 215 882 l 365 882 b 624 721 525 882 624 872 b 365 558 624 582 525 558 z m 215 97 l 215 461 l 428 461 b 696 279 594 461 696 422 b 428 97 696 125 594 97 z "},"Г":{"ha":751,"x_min":0,"x_max":0,"o":"m 101 0 l 215 0 l 215 882 l 692 882 l 692 979 l 101 979 z "},"Ѓ":{"ha":751,"x_min":0,"x_max":0,"o":"m 185 1181 l 208 1092 l 633 1201 l 611 1290 z m 101 0 l 215 0 l 215 882 l 692 882 l 692 979 l 101 979 z "},"Ґ":{"ha":724,"x_min":0,"x_max":0,"o":"m 578 1108 l 578 979 l 101 979 l 101 0 l 215 0 l 215 882 l 692 882 l 692 1108 z "},"Д":{"ha":1003,"x_min":0,"x_max":0,"o":"m 865 97 l 865 979 l 260 979 b 138 97 260 568 226 319 l 46 97 l 46 -183 l 160 -183 l 160 0 l 843 0 l 843 -183 l 957 -183 l 957 97 z m 251 97 b 372 882 333 301 367 528 l 751 882 l 751 97 z "},"Е":{"ha":782,"x_min":0,"x_max":0,"o":"m 101 0 l 708 0 l 708 97 l 215 97 l 215 442 l 639 442 l 639 539 l 215 539 l 215 882 l 708 882 l 708 979 l 101 979 z "},"Ѐ":{"ha":782,"x_min":0,"x_max":0,"o":"m 632 1181 l 207 1290 l 183 1201 l 610 1092 z m 101 0 l 708 0 l 708 97 l 215 97 l 215 442 l 639 442 l 639 539 l 215 539 l 215 882 l 708 882 l 708 979 l 101 979 z "},"Ё":{"ha":782,"x_min":0,"x_max":0,"o":"m 263 1089 b 364 1186 319 1089 364 1131 b 263 1282 364 1239 319 1282 b 161 1186 204 1282 161 1239 b 263 1089 161 1131 204 1089 z m 549 1089 b 650 1186 606 1089 650 1131 b 549 1282 650 1239 606 1282 b 447 1186 490 1282 447 1239 b 549 1089 447 1131 490 1089 z m 101 0 l 708 0 l 708 97 l 215 97 l 215 442 l 639 442 l 639 539 l 215 539 l 215 882 l 708 882 l 708 979 l 101 979 z "},"Ж":{"ha":1410,"x_min":0,"x_max":0,"o":"m 1364 882 l 1364 979 l 1197 979 b 1097 926 1153 979 1124 961 l 797 542 l 763 542 l 763 979 l 649 979 l 649 542 l 613 542 l 313 926 b 213 979 288 961 257 979 l 46 979 l 46 882 l 214 882 l 504 513 l 46 0 l 186 0 l 586 446 b 618 442 596 443 607 442 l 649 442 l 649 0 l 763 0 l 763 442 l 792 442 b 825 446 804 442 815 443 l 1225 0 l 1364 0 l 906 511 l 1196 882 z "},"З":{"ha":944,"x_min":0,"x_max":0,"o":"m 88 374 b 490 -14 88 103 239 -14 b 857 271 725 -14 857 96 b 654 500 857 421 779 475 l 654 532 b 843 733 779 551 843 614 b 490 993 843 883 725 993 b 101 658 239 993 101 876 l 215 658 b 490 896 215 818 294 896 b 729 718 668 896 729 824 b 554 564 729 613 672 564 l 418 564 l 418 467 l 554 467 b 743 288 672 467 743 417 b 490 83 743 156 668 83 b 201 374 294 83 201 161 z "},"И":{"ha":1049,"x_min":0,"x_max":0,"o":"m 947 0 l 947 979 l 718 979 l 229 32 l 197 32 l 215 114 l 215 979 l 103 979 l 103 0 l 332 0 l 819 947 l 851 947 l 833 865 l 833 0 z "},"Й":{"ha":1049,"x_min":0,"x_max":0,"o":"m 726 1310 l 633 1310 b 510 1161 633 1208 599 1161 b 385 1310 421 1161 385 1208 l 292 1310 b 510 1071 292 1168 374 1071 b 726 1310 644 1071 726 1168 z m 947 0 l 947 979 l 718 979 l 229 32 l 197 32 l 215 114 l 215 979 l 103 979 l 103 0 l 332 0 l 819 947 l 851 947 l 833 865 l 833 0 z "},"Ѝ":{"ha":1049,"x_min":0,"x_max":0,"o":"m 736 1181 l 311 1290 l 288 1201 l 714 1092 z m 947 0 l 947 979 l 718 979 l 229 32 l 197 32 l 215 114 l 215 979 l 103 979 l 103 0 l 332 0 l 819 947 l 851 947 l 833 865 l 833 0 z "},"К":{"ha":868,"x_min":0,"x_max":0,"o":"m 822 0 l 364 517 l 650 882 l 818 882 l 818 979 l 651 979 b 551 926 607 979 576 961 l 251 542 l 215 542 l 215 979 l 101 979 l 101 0 l 215 0 l 215 442 l 246 442 b 285 447 260 442 272 443 l 685 0 z "},"Ќ":{"ha":868,"x_min":0,"x_max":0,"o":"m 654 1201 l 632 1290 l 206 1181 l 229 1092 z m 822 0 l 364 517 l 650 882 l 818 882 l 818 979 l 651 979 b 551 926 607 979 576 961 l 251 542 l 215 542 l 215 979 l 101 979 l 101 0 l 215 0 l 215 442 l 246 442 b 285 447 260 442 272 443 l 685 0 z "},"Л":{"ha":958,"x_min":0,"x_max":0,"o":"m 857 979 l 260 979 b 46 97 260 518 264 97 l 46 0 b 374 882 353 0 372 410 l 743 882 l 743 0 l 857 0 z "},"М":{"ha":1249,"x_min":0,"x_max":0,"o":"m 101 0 l 215 0 l 215 865 l 197 947 l 229 947 l 510 0 l 739 0 l 1019 947 l 1053 947 l 1033 865 l 1033 0 l 1147 0 l 1147 979 l 919 979 l 640 32 l 608 32 l 331 979 l 101 979 z "},"Н":{"ha":1008,"x_min":0,"x_max":0,"o":"m 793 979 l 793 532 l 215 532 l 215 979 l 101 979 l 101 0 l 215 0 l 215 435 l 793 435 l 793 0 l 906 0 l 906 979 z "},"О":{"ha":1089,"x_min":0,"x_max":0,"o":"m 88 490 b 546 -14 88 204 257 -14 b 1001 490 832 -14 1001 204 b 546 993 1001 775 832 993 b 88 490 257 993 88 775 z m 201 490 b 546 896 201 724 314 896 b 888 490 776 896 888 724 b 546 83 888 256 776 83 b 201 490 314 83 201 256 z "},"П":{"ha":947,"x_min":0,"x_max":0,"o":"m 846 979 l 101 979 l 101 0 l 215 0 l 215 882 l 732 882 l 732 0 l 846 0 z "},"Р":{"ha":854,"x_min":0,"x_max":0,"o":"m 376 979 l 101 979 l 101 0 l 215 0 l 215 338 l 376 338 b 781 660 624 338 781 403 b 376 979 781 915 624 979 z m 378 435 l 215 435 l 215 882 l 378 882 b 667 660 544 882 667 851 b 378 435 667 465 544 435 z "},"С":{"ha":1076,"x_min":0,"x_max":0,"o":"m 88 490 b 546 -14 88 204 258 -14 b 989 379 796 -14 960 136 l 875 379 b 546 83 853 192 738 83 b 201 490 318 83 201 253 b 546 896 201 726 318 896 b 875 601 738 896 853 789 l 989 601 b 546 993 960 843 796 993 b 88 490 258 993 88 775 z "},"Т":{"ha":914,"x_min":0,"x_max":0,"o":"m 853 979 l 60 979 l 60 882 l 401 882 l 401 0 l 514 0 l 514 882 l 853 882 z "},"У":{"ha":896,"x_min":0,"x_max":0,"o":"m 729 979 l 471 440 l 471 388 l 439 388 l 439 440 l 179 979 l 60 979 l 399 294 l 399 83 l 115 97 l 115 -1 l 417 -14 b 513 69 482 -17 513 15 l 513 294 l 849 979 z "},"Ф":{"ha":1135,"x_min":0,"x_max":0,"o":"m 1075 488 b 622 849 1075 678 942 833 l 622 979 l 514 979 l 514 849 b 60 488 193 833 60 678 b 514 125 60 296 193 140 l 514 0 l 622 0 l 622 125 b 1075 488 942 140 1075 296 z m 174 488 b 514 751 174 626 257 738 l 514 222 b 174 488 257 236 174 347 z m 622 222 l 622 751 b 961 488 878 738 961 626 b 622 222 961 347 878 236 z "},"Х":{"ha":954,"x_min":0,"x_max":0,"o":"m 46 0 l 176 0 l 476 422 l 778 0 l 907 0 l 567 469 l 567 511 l 907 979 l 778 979 l 476 558 l 176 979 l 46 979 l 386 511 l 386 469 z "},"Ч":{"ha":969,"x_min":0,"x_max":0,"o":"m 754 979 l 754 463 l 215 436 l 215 979 l 101 979 l 101 432 b 197 338 101 367 132 335 l 754 365 l 754 0 l 868 0 l 868 979 z "},"Ц":{"ha":1096,"x_min":0,"x_max":0,"o":"m 953 97 l 846 97 l 846 979 l 732 979 l 732 97 l 215 97 l 215 979 l 101 979 l 101 0 l 922 0 l 922 -183 l 1036 -183 l 1036 14 b 953 97 1036 67 1006 97 z "},"Ш":{"ha":1314,"x_min":0,"x_max":0,"o":"m 1099 979 l 1099 97 l 714 97 l 714 979 l 600 979 l 600 97 l 215 97 l 215 979 l 101 979 l 101 0 l 1213 0 l 1213 979 z "},"Щ":{"ha":1463,"x_min":0,"x_max":0,"o":"m 1319 97 l 1213 97 l 1213 979 l 1099 979 l 1099 97 l 714 97 l 714 979 l 600 979 l 600 97 l 215 97 l 215 979 l 101 979 l 101 0 l 1289 0 l 1289 -183 l 1403 -183 l 1403 14 b 1319 97 1403 67 1372 97 z "},"Џ":{"ha":953,"x_min":0,"x_max":0,"o":"m 738 979 l 738 97 l 215 97 l 215 979 l 101 979 l 101 0 l 419 0 l 419 -183 l 533 -183 l 533 0 l 850 0 l 850 979 z "},"Ь":{"ha":854,"x_min":0,"x_max":0,"o":"m 215 979 l 101 979 l 101 0 l 399 0 b 781 306 632 0 781 64 b 399 614 781 549 632 614 l 215 614 z m 215 97 l 215 517 l 399 517 b 667 306 571 517 667 485 b 399 97 667 128 571 97 z "},"Ъ":{"ha":999,"x_min":0,"x_max":0,"o":"m 543 614 l 358 614 l 358 979 l 46 979 l 46 882 l 246 882 l 246 0 l 543 0 b 924 306 776 0 924 64 b 543 614 924 549 776 614 z m 543 97 l 358 97 l 358 517 l 543 517 b 811 306 714 517 811 485 b 543 97 811 128 714 97 z "},"Ы":{"ha":1132,"x_min":0,"x_max":0,"o":"m 215 979 l 101 979 l 101 0 l 399 0 b 781 306 632 0 781 64 b 399 614 781 549 632 614 l 215 614 z m 917 979 l 917 0 l 1031 0 l 1031 979 z m 215 97 l 215 517 l 399 517 b 667 306 571 517 667 485 b 399 97 667 128 571 97 z "},"Љ":{"ha":1496,"x_min":0,"x_max":0,"o":"m 1040 614 l 857 614 l 857 979 l 260 979 b 46 97 260 518 264 97 l 46 0 b 374 882 353 0 372 410 l 743 882 l 743 0 l 1040 0 b 1422 306 1274 0 1422 64 b 1040 614 1422 549 1274 614 z m 1040 97 l 857 97 l 857 517 l 1040 517 b 1308 306 1211 517 1308 485 b 1040 97 1308 128 1211 97 z "},"Њ":{"ha":1546,"x_min":0,"x_max":0,"o":"m 1090 614 l 906 614 l 906 979 l 793 979 l 793 532 l 215 532 l 215 979 l 101 979 l 101 0 l 215 0 l 215 435 l 793 435 l 793 0 l 1090 0 b 1471 306 1324 0 1471 64 b 1090 614 1471 549 1324 614 z m 1090 97 l 906 97 l 906 517 l 1090 517 b 1358 306 1261 517 1358 485 b 1090 97 1358 128 1261 97 z "},"Ѕ":{"ha":939,"x_min":0,"x_max":0,"o":"m 879 247 b 465 564 879 451 657 504 b 218 754 304 614 218 651 b 451 896 218 863 317 896 b 725 657 601 896 725 824 l 839 657 b 451 993 839 817 740 993 b 104 751 210 993 104 901 b 438 467 104 578 244 525 b 765 242 593 421 765 390 b 503 83 765 124 669 83 b 174 367 297 83 174 135 l 60 367 b 503 -14 60 138 161 -14 b 879 247 792 -14 879 101 z "},"Є":{"ha":1076,"x_min":0,"x_max":0,"o":"m 546 83 b 203 442 333 83 218 231 l 617 442 l 617 539 l 203 539 b 546 896 218 749 333 896 b 875 601 738 896 853 789 l 989 601 b 546 993 960 843 796 993 b 88 490 258 993 88 775 b 546 -14 88 204 258 -14 b 989 379 796 -14 960 136 l 875 379 b 546 83 853 192 738 83 z "},"Э":{"ha":1076,"x_min":0,"x_max":0,"o":"m 531 993 b 88 601 281 993 117 843 l 201 601 b 531 896 224 789 339 896 b 874 539 743 896 858 749 l 460 539 l 460 442 l 874 442 b 531 83 858 231 744 83 b 201 379 339 83 224 192 l 88 379 b 531 -14 117 136 281 -14 b 989 490 819 -14 989 204 b 531 993 989 775 819 993 z "},"І":{"ha":726,"x_min":0,"x_max":0,"o":"m 639 882 l 639 979 l 88 979 l 88 882 l 307 882 l 307 97 l 88 97 l 88 0 l 639 0 l 639 97 l 421 97 l 421 882 z "},"Ї":{"ha":726,"x_min":0,"x_max":0,"o":"m 221 1089 b 322 1186 278 1089 322 1131 b 221 1282 322 1239 278 1282 b 119 1186 163 1282 119 1239 b 221 1089 119 1131 163 1089 z m 507 1089 b 608 1186 564 1089 608 1131 b 507 1282 608 1239 564 1282 b 406 1186 449 1282 406 1239 b 507 1089 406 1131 449 1089 z m 639 882 l 639 979 l 88 979 l 88 882 l 307 882 l 307 97 l 88 97 l 88 0 l 639 0 l 639 97 l 421 97 l 421 882 z "},"Ј":{"ha":657,"x_min":0,"x_max":0,"o":"m 272 -14 b 568 438 539 -31 568 157 l 568 910 b 485 993 568 963 539 996 l 199 979 l 199 882 l 456 896 l 456 450 b 272 83 456 175 435 74 l 46 97 l 46 0 z "},"Ћ":{"ha":1143,"x_min":0,"x_max":0,"o":"m 946 642 l 389 614 l 389 882 l 824 882 l 824 979 l 46 979 l 46 882 l 275 882 l 275 0 l 389 0 l 389 517 l 928 543 l 928 0 l 1042 0 l 1042 547 b 946 642 1042 613 1011 644 z "},"Ю":{"ha":1296,"x_min":0,"x_max":0,"o":"m 792 993 b 375 539 531 993 390 801 l 215 539 l 215 979 l 101 979 l 101 0 l 215 0 l 215 442 l 375 442 b 792 -14 390 178 531 -14 b 1207 490 1067 -14 1207 201 b 792 993 1207 778 1067 993 z m 792 83 b 486 490 581 83 486 254 b 792 896 486 726 581 896 b 1094 490 1001 896 1094 726 b 792 83 1094 254 1001 83 z "},"Я":{"ha":882,"x_min":0,"x_max":0,"o":"m 781 979 l 472 979 b 96 715 239 979 96 924 b 344 456 96 546 188 476 l 215 97 l 46 97 l 46 0 l 213 0 b 313 56 258 0 297 17 l 457 449 l 472 449 l 667 449 l 667 0 l 781 0 z m 667 546 l 468 546 b 210 715 306 546 210 565 b 468 882 210 864 306 882 l 667 882 z "},"Ђ":{"ha":1121,"x_min":0,"x_max":0,"o":"m 689 604 l 497 579 l 497 882 l 833 882 l 833 979 l 46 979 l 46 882 l 383 882 l 383 0 l 497 0 l 497 482 l 685 508 b 933 324 851 533 933 479 b 675 97 933 189 882 97 l 675 0 b 1047 326 872 0 1047 64 b 689 604 1047 517 942 636 z "},"а":{"ha":822,"x_min":0,"x_max":0,"o":"m 74 192 b 304 -14 74 119 104 -14 b 571 190 471 -14 544 85 l 604 190 l 586 118 l 586 81 b 668 0 586 29 615 0 l 790 0 l 790 97 l 689 97 l 689 392 b 381 704 689 576 574 704 b 76 433 185 704 76 576 l 188 433 b 381 608 188 564 281 608 b 575 419 500 608 568 546 l 300 393 b 74 192 139 376 74 301 z m 188 206 b 319 308 188 274 232 300 l 575 335 b 318 83 575 192 475 83 b 188 206 238 83 188 126 z "},"б":{"ha":892,"x_min":0,"x_max":0,"o":"m 88 454 b 453 -14 88 146 218 -14 b 817 354 699 -14 817 143 b 489 704 817 557 704 704 b 176 458 328 704 207 604 l 144 458 l 176 538 b 465 826 193 701 279 779 b 790 1031 649 874 765 896 l 653 1031 b 451 917 640 978 608 961 b 88 454 208 846 88 731 z m 201 339 b 479 607 201 506 311 607 b 703 353 636 607 703 507 b 453 83 703 185 625 83 b 201 339 279 83 201 208 z "},"в":{"ha":740,"x_min":0,"x_max":0,"o":"m 101 0 l 403 0 b 679 182 568 0 679 47 b 494 346 679 314 586 344 l 494 379 b 628 525 550 383 628 411 b 351 690 628 657 517 690 l 101 690 z m 213 404 l 213 600 l 351 600 b 517 507 464 600 517 586 b 351 404 517 410 464 404 z m 213 90 l 213 314 l 403 314 b 568 196 514 314 568 293 b 403 90 568 104 514 90 z "},"г":{"ha":615,"x_min":0,"x_max":0,"o":"m 101 0 l 215 0 l 215 593 l 583 593 l 583 690 l 101 690 z "},"ѓ":{"ha":617,"x_min":0,"x_max":0,"o":"m 106 892 l 128 803 l 554 913 l 532 1001 z m 104 0 l 217 0 l 217 593 l 585 593 l 585 690 l 104 690 z "},"ґ":{"ha":615,"x_min":0,"x_max":0,"o":"m 469 881 l 469 690 l 101 690 l 101 0 l 215 0 l 215 593 l 583 593 l 583 881 z "},"д":{"ha":919,"x_min":0,"x_max":0,"o":"m 832 97 l 740 97 l 740 690 l 268 690 b 165 97 268 418 240 249 l 74 97 l 74 -183 l 188 -183 l 188 0 l 718 0 l 718 -183 l 832 -183 z m 279 97 b 381 593 344 229 374 376 l 626 593 l 626 97 z "},"е":{"ha":828,"x_min":0,"x_max":0,"o":"m 74 354 b 425 -14 74 156 178 -14 b 754 242 644 -14 728 135 l 640 242 b 425 81 615 136 539 81 b 185 324 254 81 192 193 l 731 324 l 731 368 b 408 704 731 581 603 704 b 74 354 213 704 74 576 z m 185 410 b 408 608 185 521 272 608 b 619 410 546 608 619 521 z "},"ѐ":{"ha":828,"x_min":0,"x_max":0,"o":"m 640 892 l 215 1001 l 192 913 l 618 803 z m 74 354 b 425 -14 74 156 178 -14 b 754 242 644 -14 728 135 l 640 242 b 425 81 615 136 539 81 b 185 324 254 81 192 193 l 731 324 l 731 368 b 408 704 731 581 603 704 b 74 354 213 704 74 576 z m 185 410 b 408 608 185 521 272 608 b 619 410 546 608 619 521 z "},"ё":{"ha":828,"x_min":0,"x_max":0,"o":"m 271 800 b 372 897 328 800 372 842 b 271 993 372 950 328 993 b 169 897 213 993 169 950 b 271 800 169 842 213 800 z m 557 800 b 658 897 614 800 658 842 b 557 993 658 950 614 993 b 456 897 499 993 456 950 b 557 800 456 842 499 800 z m 74 354 b 425 -14 74 156 178 -14 b 754 242 644 -14 728 135 l 640 242 b 425 81 615 136 539 81 b 185 324 254 81 192 193 l 731 324 l 731 368 b 408 704 731 581 603 704 b 74 354 213 704 74 576 z m 185 410 b 408 608 185 521 272 608 b 619 410 546 608 619 521 z "},"ж":{"ha":1097,"x_min":0,"x_max":0,"o":"m 1051 593 l 1051 690 l 942 690 b 842 639 897 690 867 674 l 661 397 l 606 397 l 606 690 l 492 690 l 492 397 l 436 397 l 256 639 b 156 690 231 674 200 690 l 46 690 l 46 593 l 158 593 l 336 356 l 46 0 l 179 0 l 424 297 b 443 296 429 296 436 296 l 492 296 l 492 0 l 606 0 l 606 296 l 654 296 b 674 297 661 296 668 296 l 918 0 l 1051 0 l 761 356 l 939 593 z "},"з":{"ha":742,"x_min":0,"x_max":0,"o":"m 88 269 b 383 -14 88 72 197 -14 b 654 193 557 -14 654 67 b 501 350 654 292 588 338 l 501 382 b 640 524 588 393 640 438 b 378 704 640 625 551 704 b 101 475 192 704 101 619 l 213 475 b 378 614 213 568 243 614 b 529 511 500 614 529 572 b 419 411 529 447 504 411 l 326 411 l 326 319 l 419 319 b 543 206 504 319 543 285 b 383 76 543 121 504 76 b 199 269 249 76 199 124 z "},"и":{"ha":839,"x_min":0,"x_max":0,"o":"m 764 0 l 764 690 l 536 690 l 229 32 l 197 32 l 215 100 l 215 690 l 101 690 l 101 0 l 331 0 l 638 657 l 669 657 l 651 592 l 651 0 z "},"й":{"ha":839,"x_min":0,"x_max":0,"o":"m 651 1021 l 558 1021 b 435 872 558 919 524 872 b 310 1021 346 872 310 919 l 217 1021 b 435 782 217 879 299 782 b 651 1021 569 782 651 879 z m 764 0 l 764 690 l 536 690 l 229 32 l 197 32 l 215 100 l 215 690 l 101 690 l 101 0 l 331 0 l 638 657 l 669 657 l 651 592 l 651 0 z "},"к":{"ha":724,"x_min":0,"x_max":0,"o":"m 678 0 l 379 365 l 549 593 l 661 593 l 661 690 l 553 690 b 451 639 507 690 476 674 l 272 397 l 215 397 l 215 690 l 101 690 l 101 0 l 215 0 l 215 296 l 264 296 b 299 300 276 296 288 297 l 544 0 z "},"ќ":{"ha":724,"x_min":0,"x_max":0,"o":"m 582 913 l 560 1001 l 133 892 l 157 803 z m 678 0 l 379 365 l 549 593 l 661 593 l 661 690 l 553 690 b 451 639 507 690 476 674 l 272 397 l 215 397 l 215 690 l 101 690 l 101 0 l 215 0 l 215 296 l 264 296 b 299 300 276 296 288 297 l 544 0 z "},"л":{"ha":806,"x_min":0,"x_max":0,"o":"m 704 690 l 207 690 b 74 97 207 299 208 97 l 74 0 b 321 593 300 0 319 214 l 590 593 l 590 0 l 704 0 z "},"м":{"ha":1017,"x_min":0,"x_max":0,"o":"m 101 0 l 215 0 l 215 590 l 197 657 l 229 657 l 394 0 l 622 0 l 788 657 l 821 657 l 801 590 l 801 0 l 915 0 l 915 690 l 686 690 l 524 32 l 492 32 l 329 690 l 101 690 z "},"н":{"ha":819,"x_min":0,"x_max":0,"o":"m 604 690 l 604 394 l 215 394 l 215 690 l 101 690 l 101 0 l 215 0 l 215 297 l 604 297 l 604 0 l 717 0 l 717 690 z "},"о":{"ha":876,"x_min":0,"x_max":0,"o":"m 74 346 b 439 -14 74 144 218 -14 b 801 346 658 -14 801 144 b 439 704 801 546 658 704 b 74 346 218 704 74 546 z m 188 346 b 439 607 188 489 275 607 b 689 346 601 607 689 489 b 439 83 689 201 601 83 b 188 346 275 83 188 201 z "},"п":{"ha":774,"x_min":0,"x_max":0,"o":"m 672 690 l 101 690 l 101 0 l 215 0 l 215 593 l 558 593 l 558 0 l 672 0 z "},"р":{"ha":911,"x_min":0,"x_max":0,"o":"m 101 690 l 101 -253 l 215 -253 l 215 101 l 197 179 l 229 179 b 508 -14 258 72 350 -14 b 838 344 708 -14 838 140 b 508 704 838 550 708 704 b 229 510 350 704 258 618 l 197 510 l 215 589 l 215 690 z m 215 344 b 475 607 215 529 333 607 b 724 344 618 607 724 526 b 475 83 724 164 618 83 b 215 344 333 83 215 161 z "},"с":{"ha":822,"x_min":0,"x_max":0,"o":"m 74 346 b 426 -14 74 146 203 -14 b 749 261 560 -14 731 61 l 633 261 b 426 83 614 129 526 83 b 188 346 263 83 188 203 b 426 607 188 488 263 607 b 633 429 526 607 614 561 l 749 429 b 426 704 731 629 560 704 b 74 346 203 704 74 544 z "},"т":{"ha":754,"x_min":0,"x_max":0,"o":"m 694 690 l 60 690 l 60 593 l 321 593 l 321 0 l 435 0 l 435 593 l 694 593 z "},"у":{"ha":821,"x_min":0,"x_max":0,"o":"m 651 690 l 435 153 l 435 100 l 401 100 l 401 153 l 185 690 l 60 690 l 361 7 l 361 -171 l 113 -158 l 113 -256 l 379 -268 b 475 -186 444 -271 475 -239 l 475 7 l 775 690 z "},"ф":{"ha":1029,"x_min":0,"x_max":0,"o":"m 954 346 b 569 703 954 533 825 683 l 569 938 l 461 938 l 461 703 b 74 346 204 683 74 533 b 461 -12 74 157 204 7 l 461 -250 l 569 -250 l 569 -12 b 954 346 825 7 954 157 z m 188 346 b 461 604 188 479 267 588 l 461 86 b 188 346 267 103 188 211 z m 569 86 l 569 604 b 842 346 763 588 842 478 b 569 86 842 211 763 103 z "},"х":{"ha":808,"x_min":0,"x_max":0,"o":"m 60 0 l 194 0 l 404 279 l 614 0 l 749 0 l 489 329 l 489 363 l 749 690 l 614 690 l 404 413 l 194 690 l 60 690 l 319 363 l 319 329 z "},"ч":{"ha":844,"x_min":0,"x_max":0,"o":"m 629 690 l 629 347 l 215 319 l 215 690 l 101 690 l 101 317 b 197 222 101 251 132 218 l 629 250 l 629 0 l 743 0 l 743 690 z "},"ц":{"ha":904,"x_min":0,"x_max":0,"o":"m 774 97 l 672 97 l 672 690 l 558 690 l 558 97 l 215 97 l 215 690 l 101 690 l 101 0 l 744 0 l 744 -183 l 857 -183 l 857 14 b 774 97 857 67 828 97 z "},"ш":{"ha":1064,"x_min":0,"x_max":0,"o":"m 849 690 l 849 97 l 589 97 l 589 690 l 475 690 l 475 97 l 215 97 l 215 690 l 101 690 l 101 0 l 963 0 l 963 690 z "},"щ":{"ha":1194,"x_min":0,"x_max":0,"o":"m 1064 97 l 963 97 l 963 690 l 849 690 l 849 97 l 589 97 l 589 690 l 475 690 l 475 97 l 215 97 l 215 690 l 101 690 l 101 0 l 1035 0 l 1035 -183 l 1147 -183 l 1147 14 b 1064 97 1147 67 1118 97 z "},"џ":{"ha":818,"x_min":0,"x_max":0,"o":"m 603 688 l 603 97 l 215 97 l 215 688 l 101 688 l 101 0 l 353 0 l 353 -183 l 465 -183 l 465 0 l 717 0 l 717 688 z "},"ь":{"ha":728,"x_min":0,"x_max":0,"o":"m 358 492 l 215 492 l 215 690 l 101 690 l 101 0 l 358 0 b 654 246 522 0 654 53 b 358 492 654 439 522 492 z m 215 97 l 215 394 l 344 394 b 540 246 461 394 540 381 b 344 97 540 111 461 97 z "},"ъ":{"ha":844,"x_min":0,"x_max":0,"o":"m 475 492 l 332 492 l 332 690 l 46 690 l 46 593 l 218 593 l 218 0 l 475 0 b 771 246 639 0 771 53 b 475 492 771 439 639 492 z m 461 97 l 332 97 l 332 394 l 461 394 b 657 246 576 394 657 381 b 461 97 657 111 576 97 z "},"ы":{"ha":967,"x_min":0,"x_max":0,"o":"m 358 492 l 215 492 l 215 690 l 101 690 l 101 0 l 358 0 b 654 246 522 0 654 53 b 358 492 654 439 522 492 z m 751 0 l 864 0 l 864 690 l 751 690 z m 215 97 l 215 394 l 344 394 b 540 246 461 394 540 381 b 344 97 540 111 461 97 z "},"љ":{"ha":1217,"x_min":0,"x_max":0,"o":"m 847 492 l 704 492 l 704 690 l 207 690 b 74 97 207 299 208 97 l 74 0 b 321 593 300 0 319 214 l 590 593 l 590 0 l 847 0 b 1143 246 1011 0 1143 53 b 847 492 1143 439 1011 492 z m 833 97 l 704 97 l 704 394 l 833 394 b 1029 246 949 394 1029 381 b 833 97 1029 111 949 97 z "},"њ":{"ha":1231,"x_min":0,"x_max":0,"o":"m 860 492 l 717 492 l 717 690 l 604 690 l 604 394 l 215 394 l 215 690 l 101 690 l 101 0 l 215 0 l 215 297 l 604 297 l 604 0 l 860 0 b 1156 246 1024 0 1156 53 b 860 492 1156 439 1024 492 z m 846 97 l 717 97 l 717 394 l 846 394 b 1043 246 963 394 1043 381 b 846 97 1043 111 963 97 z "},"ѕ":{"ha":693,"x_min":0,"x_max":0,"o":"m 647 179 b 364 403 647 328 500 358 b 206 526 253 439 206 460 b 343 611 206 589 267 611 b 510 472 453 611 510 565 l 624 472 b 343 704 624 586 558 704 b 92 522 185 704 92 632 b 328 315 92 397 197 357 b 533 175 440 281 533 265 b 376 79 533 104 483 79 b 174 254 243 79 174 135 l 60 254 b 375 -14 60 90 151 -14 b 647 179 582 -14 647 75 z "},"є":{"ha":822,"x_min":0,"x_max":0,"o":"m 426 83 b 190 301 279 83 204 179 l 492 301 l 492 390 l 190 390 b 426 607 204 511 281 607 b 633 429 526 607 614 561 l 749 429 b 426 704 731 629 560 704 b 74 346 203 704 74 544 b 426 -14 74 146 203 -14 b 749 261 560 -14 731 61 l 633 261 b 426 83 614 129 526 83 z "},"э":{"ha":822,"x_min":0,"x_max":0,"o":"m 396 704 b 74 429 263 704 92 629 l 189 429 b 396 607 208 561 296 607 b 632 390 542 607 618 511 l 331 390 l 331 301 l 632 301 b 396 83 618 179 543 83 b 189 261 296 83 208 129 l 74 261 b 396 -14 92 61 263 -14 b 749 346 619 -14 749 146 b 396 704 749 544 619 704 z "},"і":{"ha":615,"x_min":0,"x_max":0,"o":"m 304 800 b 404 897 360 800 404 842 b 304 993 404 950 360 993 b 204 897 247 993 204 950 b 304 800 204 842 247 800 z m 74 0 l 569 0 l 569 97 l 375 97 l 375 621 b 285 704 375 674 350 710 l 125 690 l 125 593 l 268 606 l 268 97 l 74 97 z "},"ї":{"ha":621,"x_min":0,"x_max":0,"o":"m 136 800 b 239 897 194 800 239 842 b 136 993 239 950 194 993 b 36 897 79 993 36 950 b 136 800 36 842 79 800 z m 422 800 b 524 897 479 800 524 842 b 422 993 524 950 479 993 b 322 897 364 993 322 950 b 422 800 322 842 364 800 z m 79 0 l 574 0 l 574 97 l 378 97 l 378 610 b 288 704 378 674 351 710 l 129 690 l 129 593 l 275 606 l 275 97 l 79 97 z "},"ј":{"ha":396,"x_min":0,"x_max":0,"o":"m 218 800 b 319 897 275 800 319 842 b 218 993 319 950 275 993 b 118 897 161 993 118 950 b 218 800 118 842 161 800 z m 32 -254 l 157 -254 l 271 -53 b 294 42 289 -21 294 6 l 294 621 b 200 703 294 674 265 708 l 32 690 l 32 593 l 181 606 l 181 58 b 157 -36 181 22 175 -4 z "},"ћ":{"ha":883,"x_min":0,"x_max":0,"o":"m 539 704 b 274 492 389 704 301 617 l 240 492 l 260 571 l 260 847 l 464 847 l 464 940 l 260 940 l 260 1021 l 146 1021 l 146 940 l 74 940 l 74 847 l 146 847 l 146 0 l 260 0 l 260 306 b 508 607 260 492 361 607 b 682 407 626 607 682 551 l 682 0 l 796 0 l 796 422 b 539 704 796 614 694 704 z "},"ю":{"ha":1117,"x_min":0,"x_max":0,"o":"m 710 704 b 378 394 506 704 394 567 l 215 394 l 215 690 l 101 690 l 101 0 l 215 0 l 215 297 l 378 297 b 710 -14 394 122 504 -14 b 1043 346 932 -14 1043 149 b 710 704 1043 540 932 704 z m 710 83 b 489 346 549 83 489 201 b 710 607 489 489 549 607 b 929 346 869 607 929 489 b 710 83 929 201 869 83 z "},"я":{"ha":676,"x_min":0,"x_max":0,"o":"m 574 690 l 354 690 b 82 496 183 690 82 636 b 264 307 82 376 149 324 l 144 94 l 32 94 l 32 0 l 135 0 b 235 54 179 0 213 19 l 375 301 l 461 301 l 461 0 l 574 0 z m 461 392 l 364 392 b 196 496 253 392 196 413 b 364 600 196 579 253 600 l 461 600 z "},"ђ":{"ha":886,"x_min":0,"x_max":0,"o":"m 540 704 b 275 492 390 704 303 617 l 243 492 l 261 571 l 261 847 l 467 847 l 467 940 l 261 940 l 261 1021 l 149 1021 l 149 940 l 76 940 l 76 847 l 149 847 l 149 0 l 261 0 l 261 306 b 510 607 261 492 364 607 b 685 407 629 607 685 551 l 685 -169 l 436 -156 l 436 -253 l 703 -267 b 799 -183 768 -269 799 -236 l 799 422 b 540 704 799 614 697 704 z "},"⓿":{"ha":1411,"x_min":0,"x_max":0,"o":"m 706 -194 b 1324 422 1078 -194 1324 82 b 706 1040 1324 764 1078 1040 b 88 422 333 1040 88 764 b 706 -194 88 82 333 -194 z m 457 424 b 707 732 457 600 542 732 b 956 424 871 732 956 600 b 707 114 956 246 871 114 b 457 424 542 114 457 246 z m 561 424 b 579 306 561 376 567 338 l 808 599 b 707 640 786 625 753 640 b 561 424 617 640 561 565 z m 607 254 b 707 207 632 222 665 207 b 851 424 811 207 851 282 b 838 543 851 472 847 513 z "},"❶":{"ha":1411,"x_min":0,"x_max":0,"o":"m 706 -194 b 88 422 333 -194 88 82 b 706 1040 88 764 333 1040 b 1324 422 1078 1040 1324 764 b 706 -194 1324 82 1078 -194 z m 490 492 l 529 403 b 697 686 653 461 689 563 l 718 686 l 707 636 l 707 128 l 811 128 l 811 718 l 606 718 b 490 492 604 597 575 549 z "},"❷":{"ha":1411,"x_min":0,"x_max":0,"o":"m 706 -194 b 88 422 333 -194 88 82 b 706 1040 88 764 333 1040 b 1324 422 1078 1040 1324 764 b 706 -194 1324 82 1078 -194 z m 458 453 l 563 453 b 725 654 563 600 619 654 b 847 543 813 654 847 611 b 486 310 847 374 546 318 l 486 139 l 935 139 l 935 226 l 569 226 l 518 217 l 518 238 b 951 543 756 276 951 356 b 725 743 951 667 868 743 b 458 453 579 743 458 654 z "},"❸":{"ha":1411,"x_min":0,"x_max":0,"o":"m 706 -194 b 88 422 333 -194 88 82 b 706 1040 88 764 333 1040 b 1324 422 1078 1040 1324 764 b 706 -194 1324 82 1078 -194 z m 456 351 b 717 114 456 189 560 114 b 956 289 867 114 956 183 b 815 428 956 379 892 413 l 815 449 b 949 574 892 461 949 500 b 717 732 949 660 867 732 b 463 528 560 732 463 657 l 567 528 b 717 644 567 611 614 644 b 844 563 808 644 844 615 b 740 483 844 497 788 483 l 671 483 l 671 394 l 740 394 b 853 300 788 394 853 382 b 717 203 853 232 808 203 b 560 351 614 203 560 235 z "},"❹":{"ha":1411,"x_min":0,"x_max":0,"o":"m 706 -194 b 88 422 333 -194 88 82 b 706 1040 88 764 333 1040 b 1324 422 1078 1040 1324 764 b 706 -194 1324 82 1078 -194 z m 456 247 l 757 247 l 757 136 l 861 136 l 861 247 l 936 247 l 936 339 l 861 339 l 861 532 l 757 532 l 757 339 l 533 339 l 483 328 l 483 349 b 797 726 689 425 779 575 l 693 726 b 456 439 667 585 586 496 z "},"❺":{"ha":1411,"x_min":0,"x_max":0,"o":"m 706 -194 b 88 422 333 -194 88 82 b 706 1040 88 764 333 1040 b 1324 422 1078 1040 1324 764 b 706 -194 1324 82 1078 -194 z m 456 311 b 714 97 456 176 549 97 b 969 321 874 97 969 186 b 768 528 969 444 900 528 b 592 436 682 528 621 483 l 575 446 l 586 489 l 586 608 l 914 608 l 914 697 l 482 697 l 482 428 l 606 364 b 751 440 632 406 676 440 b 865 322 814 440 865 415 b 714 185 865 215 793 185 b 560 311 615 185 560 224 z "},"❻":{"ha":1411,"x_min":0,"x_max":0,"o":"m 706 -194 b 88 422 333 -194 88 82 b 706 1040 88 764 333 1040 b 1324 422 1078 1040 1324 764 b 706 -194 1324 82 1078 -194 z m 453 394 b 704 113 453 206 550 113 b 951 336 856 113 951 204 b 740 553 951 464 876 553 b 525 396 619 553 543 476 l 504 396 l 525 447 b 746 643 525 557 592 658 l 894 629 l 894 717 l 760 731 b 453 394 547 753 453 600 z m 557 335 b 717 464 557 410 617 464 b 847 336 811 464 847 414 b 703 201 847 249 804 201 b 557 335 600 201 557 258 z "},"❼":{"ha":1411,"x_min":0,"x_max":0,"o":"m 706 -194 b 88 422 333 -194 88 82 b 706 1040 88 764 333 1040 b 1324 422 1078 1040 1324 764 b 706 -194 1324 82 1078 -194 z m 590 100 l 694 100 b 936 506 694 311 758 431 l 936 690 l 504 690 l 504 603 l 904 603 l 904 581 b 590 100 693 486 590 356 z "},"❽":{"ha":1411,"x_min":0,"x_max":0,"o":"m 706 -194 b 88 422 333 -194 88 82 b 706 1040 88 764 333 1040 b 1324 422 1078 1040 1324 764 b 706 -194 1324 82 1078 -194 z m 454 286 b 706 114 454 186 543 114 b 958 286 869 114 958 186 b 801 443 958 388 889 431 l 801 461 b 925 589 865 469 925 510 b 706 732 925 679 839 732 b 486 589 571 732 486 679 b 610 461 486 510 544 469 l 610 443 b 454 286 522 431 454 388 z m 590 572 b 706 644 590 614 622 644 b 821 572 789 644 821 614 b 706 496 821 531 789 496 b 590 572 622 496 590 531 z m 558 306 b 706 408 558 357 593 408 b 854 306 817 408 854 357 b 706 203 854 254 817 203 b 558 306 593 203 558 254 z "},"❾":{"ha":1411,"x_min":0,"x_max":0,"o":"m 706 -194 b 88 422 333 -194 88 82 b 706 1040 88 764 333 1040 b 1324 422 1078 1040 1324 764 b 706 -194 1324 82 1078 -194 z m 975 449 b 724 731 975 638 878 731 b 476 507 574 731 476 639 b 688 292 476 381 553 292 b 903 447 810 292 885 367 l 924 447 l 903 396 b 683 200 903 286 836 186 l 533 214 l 533 126 l 669 113 b 975 449 882 90 975 243 z m 871 510 b 711 379 871 433 811 379 b 581 508 617 379 581 429 b 726 643 581 596 624 643 b 871 510 828 643 871 585 z "},"⓪":{"ha":1411,"x_min":0,"x_max":0,"o":"m 706 1040 b 88 422 333 1040 88 764 b 706 -194 88 82 333 -194 b 1324 422 1078 -194 1324 82 b 706 1040 1324 764 1078 1040 z m 706 -107 b 176 422 389 -107 176 138 b 706 953 176 708 389 953 b 1235 422 1022 953 1235 708 b 706 -107 1235 138 1022 -107 z m 707 732 b 457 424 542 732 457 600 b 707 114 457 246 542 114 b 956 424 871 114 956 246 b 707 732 956 600 871 732 z m 707 640 b 807 594 749 640 783 625 l 578 307 b 561 424 567 338 561 378 b 707 640 561 565 617 640 z m 707 207 b 606 254 665 207 631 224 l 835 542 b 851 424 846 510 851 469 b 707 207 851 282 800 207 z "},"①":{"ha":1411,"x_min":0,"x_max":0,"o":"m 706 -194 b 1324 422 1078 -194 1324 82 b 706 1040 1324 764 1078 1040 b 88 422 333 1040 88 764 b 706 -194 88 82 333 -194 z m 706 -107 b 176 422 389 -107 176 138 b 706 953 176 708 389 953 b 1235 422 1022 953 1235 708 b 706 -107 1235 138 1022 -107 z m 490 492 l 529 403 b 697 686 653 461 689 563 l 718 686 l 707 636 l 707 128 l 811 128 l 811 718 l 606 718 b 490 492 604 597 575 549 z "},"②":{"ha":1411,"x_min":0,"x_max":0,"o":"m 706 -194 b 1324 422 1078 -194 1324 82 b 706 1040 1324 764 1078 1040 b 88 422 333 1040 88 764 b 706 -194 88 82 333 -194 z m 706 -107 b 176 422 389 -107 176 138 b 706 953 176 708 389 953 b 1235 422 1022 953 1235 708 b 706 -107 1235 138 1022 -107 z m 458 453 l 563 453 b 725 654 563 600 619 654 b 847 543 813 654 847 611 b 486 310 847 374 546 318 l 486 139 l 935 139 l 935 226 l 569 226 l 518 217 l 518 238 b 951 543 756 276 951 356 b 725 743 951 667 868 743 b 458 453 579 743 458 654 z "},"③":{"ha":1411,"x_min":0,"x_max":0,"o":"m 706 -194 b 1324 422 1078 -194 1324 82 b 706 1040 1324 764 1078 1040 b 88 422 333 1040 88 764 b 706 -194 88 82 333 -194 z m 706 -107 b 176 422 389 -107 176 138 b 706 953 176 708 389 953 b 1235 422 1022 953 1235 708 b 706 -107 1235 138 1022 -107 z m 456 351 b 717 114 456 189 560 114 b 956 289 867 114 956 183 b 815 428 956 379 892 413 l 815 449 b 949 574 892 461 949 500 b 717 732 949 660 867 732 b 463 528 560 732 463 657 l 567 528 b 717 644 567 611 614 644 b 844 563 808 644 844 615 b 740 483 844 497 788 483 l 671 483 l 671 394 l 740 394 b 853 300 788 394 853 382 b 717 203 853 232 808 203 b 560 351 614 203 560 235 z "},"④":{"ha":1411,"x_min":0,"x_max":0,"o":"m 706 -194 b 1324 422 1078 -194 1324 82 b 706 1040 1324 764 1078 1040 b 88 422 333 1040 88 764 b 706 -194 88 82 333 -194 z m 706 -107 b 176 422 389 -107 176 138 b 706 953 176 708 389 953 b 1235 422 1022 953 1235 708 b 706 -107 1235 138 1022 -107 z m 461 247 l 763 247 l 763 136 l 867 136 l 867 247 l 942 247 l 942 340 l 867 340 l 867 533 l 763 533 l 763 340 l 539 340 l 489 328 l 489 349 b 803 726 693 426 785 576 l 699 726 b 461 440 672 586 592 496 z "},"⑤":{"ha":1411,"x_min":0,"x_max":0,"o":"m 706 -194 b 1324 422 1078 -194 1324 82 b 706 1040 1324 764 1078 1040 b 88 422 333 1040 88 764 b 706 -194 88 82 333 -194 z m 706 -107 b 176 422 389 -107 176 138 b 706 953 176 708 389 953 b 1235 422 1022 953 1235 708 b 706 -107 1235 138 1022 -107 z m 456 311 b 714 97 456 176 549 97 b 969 321 874 97 969 186 b 768 528 969 444 900 528 b 592 436 682 528 621 483 l 575 446 l 586 489 l 586 608 l 914 608 l 914 697 l 482 697 l 482 428 l 606 364 b 751 440 632 406 676 440 b 865 322 814 440 865 415 b 714 185 865 215 793 185 b 560 311 615 185 560 224 z "},"⑥":{"ha":1411,"x_min":0,"x_max":0,"o":"m 706 -194 b 1324 422 1078 -194 1324 82 b 706 1040 1324 764 1078 1040 b 88 422 333 1040 88 764 b 706 -194 88 82 333 -194 z m 706 -107 b 176 422 389 -107 176 138 b 706 953 176 708 389 953 b 1235 422 1022 953 1235 708 b 706 -107 1235 138 1022 -107 z m 453 394 b 704 113 453 206 550 113 b 951 336 856 113 951 204 b 740 553 951 464 876 553 b 525 396 619 553 543 476 l 504 396 l 525 447 b 746 643 525 557 592 658 l 894 629 l 894 717 l 760 731 b 453 394 547 753 453 600 z m 557 335 b 717 464 557 410 617 464 b 847 336 811 464 847 414 b 703 201 847 249 804 201 b 557 335 600 201 557 258 z "},"⑦":{"ha":1411,"x_min":0,"x_max":0,"o":"m 706 -194 b 1324 422 1078 -194 1324 82 b 706 1040 1324 764 1078 1040 b 88 422 333 1040 88 764 b 706 -194 88 82 333 -194 z m 706 -107 b 176 422 389 -107 176 138 b 706 953 176 708 389 953 b 1235 422 1022 953 1235 708 b 706 -107 1235 138 1022 -107 z m 590 100 l 694 100 b 936 506 694 311 758 431 l 936 690 l 504 690 l 504 603 l 904 603 l 904 581 b 590 100 693 486 590 356 z "},"⑧":{"ha":1411,"x_min":0,"x_max":0,"o":"m 706 -194 b 1324 422 1078 -194 1324 82 b 706 1040 1324 764 1078 1040 b 88 422 333 1040 88 764 b 706 -194 88 82 333 -194 z m 706 -107 b 176 422 389 -107 176 138 b 706 953 176 708 389 953 b 1235 422 1022 953 1235 708 b 706 -107 1235 138 1022 -107 z m 454 286 b 706 114 454 186 543 114 b 958 286 869 114 958 186 b 801 443 958 388 889 431 l 801 461 b 925 589 865 469 925 510 b 706 732 925 679 839 732 b 486 589 571 732 486 679 b 610 461 486 510 544 469 l 610 443 b 454 286 522 431 454 388 z m 590 572 b 706 644 590 614 622 644 b 821 572 789 644 821 614 b 706 496 821 531 789 496 b 590 572 622 496 590 531 z m 558 306 b 706 408 558 357 593 408 b 854 306 817 408 854 357 b 706 203 854 254 817 203 b 558 306 593 203 558 254 z "},"⑨":{"ha":1411,"x_min":0,"x_max":0,"o":"m 706 -194 b 1324 422 1078 -194 1324 82 b 706 1040 1324 764 1078 1040 b 88 422 333 1040 88 764 b 706 -194 88 82 333 -194 z m 706 -107 b 176 422 389 -107 176 138 b 706 953 176 708 389 953 b 1235 422 1022 953 1235 708 b 706 -107 1235 138 1022 -107 z m 975 449 b 724 731 975 638 878 731 b 476 507 574 731 476 639 b 688 292 476 381 553 292 b 903 447 810 292 885 367 l 924 447 l 903 396 b 683 200 903 286 836 186 l 533 214 l 533 126 l 669 113 b 975 449 882 90 975 243 z m 871 510 b 711 379 871 433 811 379 b 581 508 617 379 581 429 b 726 643 581 596 624 643 b 871 510 828 643 871 585 z "},"⁄":{"ha":519,"x_min":0,"x_max":0,"o":"m 428 1131 l 4 -121 l 92 -151 l 515 1100 z "},"½":{"ha":1413,"x_min":0,"x_max":0,"o":"m 829 1131 l 406 -121 l 493 -151 l 917 1100 z m 60 767 l 99 678 b 267 961 222 736 258 838 l 288 961 l 276 911 l 276 403 l 381 403 l 381 993 l 175 993 b 60 767 174 872 144 824 z m 858 314 l 963 314 b 1125 517 963 461 1021 517 b 1247 404 1214 517 1247 472 b 888 171 1247 235 947 179 l 888 0 l 1336 0 l 1336 88 l 971 88 l 919 78 l 919 99 b 1351 404 1156 138 1351 217 b 1126 604 1351 528 1269 604 b 858 314 981 604 858 515 z "},"¼":{"ha":1368,"x_min":0,"x_max":0,"o":"m 829 1131 l 406 -121 l 493 -151 l 917 1100 z m 60 767 l 99 678 b 267 961 222 736 258 838 l 288 961 l 276 911 l 276 403 l 381 403 l 381 993 l 175 993 b 60 767 174 872 144 824 z m 826 111 l 1129 111 l 1129 0 l 1233 0 l 1233 111 l 1308 111 l 1308 204 l 1233 204 l 1233 397 l 1129 397 l 1129 204 l 906 204 l 854 192 l 854 213 b 1168 590 1060 290 1150 440 l 1064 590 b 826 304 1039 450 957 360 z "},"¾":{"ha":1504,"x_min":0,"x_max":0,"o":"m 940 1131 l 517 -121 l 604 -151 l 1028 1100 z m 60 632 b 322 394 60 468 164 394 b 561 569 471 394 561 464 b 419 708 561 658 497 693 l 419 729 b 553 854 497 742 553 781 b 322 1013 553 940 471 1013 b 68 808 164 1013 68 938 l 172 808 b 322 925 172 892 219 925 b 449 843 414 925 449 896 b 344 764 449 778 392 764 l 276 764 l 276 675 l 344 675 b 457 581 392 675 457 663 b 322 482 457 511 414 482 b 164 632 219 482 164 514 z m 963 111 l 1265 111 l 1265 0 l 1369 0 l 1369 111 l 1444 111 l 1444 204 l 1369 204 l 1369 397 l 1265 397 l 1265 204 l 1042 204 l 990 192 l 990 213 b 1304 590 1196 290 1286 440 l 1200 590 b 963 304 1175 450 1093 360 z "},"⅛":{"ha":1411,"x_min":0,"x_max":0,"o":"m 829 1131 l 406 -121 l 493 -151 l 917 1100 z m 60 767 l 99 678 b 267 961 222 736 258 838 l 288 961 l 276 911 l 276 403 l 381 403 l 381 993 l 175 993 b 60 767 174 872 144 824 z m 847 158 b 1099 -14 847 58 936 -14 b 1351 158 1263 -14 1351 58 b 1194 315 1351 258 1282 303 l 1194 333 b 1318 461 1258 342 1318 381 b 1099 604 1318 550 1232 604 b 879 461 964 604 879 550 b 1003 333 879 381 938 342 l 1003 315 b 847 158 915 303 847 258 z m 983 444 b 1099 517 983 485 1015 517 b 1214 444 1183 517 1214 485 b 1099 368 1214 403 1183 368 b 983 444 1015 368 983 403 z m 951 176 b 1099 281 951 228 986 281 b 1247 176 1210 281 1247 228 b 1099 74 1247 125 1210 74 b 951 176 986 74 951 125 z "},"⅜":{"ha":1578,"x_min":0,"x_max":0,"o":"m 958 1131 l 535 -121 l 622 -151 l 1046 1100 z m 60 632 b 322 394 60 468 164 394 b 561 569 471 394 561 464 b 419 708 561 658 497 693 l 419 729 b 553 854 497 742 553 781 b 322 1013 553 940 471 1013 b 68 808 164 1013 68 938 l 172 808 b 322 925 172 892 219 925 b 449 843 414 925 449 896 b 344 764 449 778 392 764 l 276 764 l 276 675 l 344 675 b 457 581 392 675 457 663 b 322 482 457 511 414 482 b 164 632 219 482 164 514 z m 1014 158 b 1265 -14 1014 58 1103 -14 b 1518 158 1429 -14 1518 58 b 1361 315 1518 258 1449 303 l 1361 333 b 1485 461 1425 342 1485 381 b 1265 604 1485 550 1399 604 b 1046 461 1131 604 1046 550 b 1169 333 1046 381 1104 342 l 1169 315 b 1014 158 1082 303 1014 258 z m 1150 444 b 1265 517 1150 485 1182 517 b 1381 444 1349 517 1381 485 b 1265 368 1381 403 1349 368 b 1150 444 1182 368 1150 403 z m 1118 176 b 1265 281 1118 228 1153 281 b 1414 176 1376 281 1414 228 b 1265 74 1414 125 1376 74 b 1118 176 1153 74 1118 125 z "},"⅝":{"ha":1568,"x_min":0,"x_max":0,"o":"m 949 1131 l 525 -121 l 613 -151 l 1036 1100 z m 60 608 b 319 394 60 474 153 394 b 574 618 479 394 574 483 b 374 825 574 742 506 825 b 196 733 286 825 225 781 l 181 743 l 190 786 l 190 906 l 519 906 l 519 994 l 86 994 l 86 725 l 210 661 b 356 738 236 703 282 738 b 469 619 419 738 469 713 b 318 482 469 513 397 482 b 164 608 219 482 164 521 z m 1004 158 b 1256 -14 1004 58 1093 -14 b 1508 158 1419 -14 1508 58 b 1351 315 1508 258 1439 303 l 1351 333 b 1475 461 1415 342 1475 381 b 1256 604 1475 550 1389 604 b 1036 461 1121 604 1036 550 b 1160 333 1036 381 1094 342 l 1160 315 b 1004 158 1072 303 1004 258 z m 1140 444 b 1256 517 1140 485 1172 517 b 1371 444 1339 517 1371 485 b 1256 368 1371 403 1339 368 b 1140 444 1172 368 1140 403 z m 1108 176 b 1256 281 1108 228 1143 281 b 1404 176 1367 281 1404 228 b 1256 74 1404 125 1367 74 b 1108 176 1143 74 1108 125 z "},"⅞":{"ha":1504,"x_min":0,"x_max":0,"o":"m 861 1131 l 439 -121 l 526 -151 l 949 1100 z m 146 403 l 250 403 b 492 808 250 614 314 733 l 492 993 l 60 993 l 60 906 l 460 906 l 460 883 b 146 403 250 789 146 658 z m 940 158 b 1192 -14 940 58 1029 -14 b 1444 158 1356 -14 1444 58 b 1288 315 1444 258 1375 303 l 1288 333 b 1411 461 1351 342 1411 381 b 1192 604 1411 550 1325 604 b 972 461 1057 604 972 550 b 1096 333 972 381 1031 342 l 1096 315 b 940 158 1008 303 940 258 z m 1076 444 b 1192 517 1076 485 1108 517 b 1307 444 1276 517 1307 485 b 1192 368 1307 403 1276 368 b 1076 444 1108 368 1076 403 z m 1044 176 b 1192 281 1044 228 1079 281 b 1340 176 1303 281 1340 228 b 1192 74 1340 125 1303 74 b 1044 176 1079 74 1044 125 z "},".":{"ha":463,"x_min":0,"x_max":0,"o":"m 231 -14 b 346 103 294 -14 346 36 b 231 217 346 167 294 217 b 115 103 165 217 115 167 b 231 -14 115 36 165 -14 z "},",":{"ha":385,"x_min":0,"x_max":0,"o":"m 168 226 l 60 -175 l 161 -203 l 269 200 z "},":":{"ha":463,"x_min":0,"x_max":0,"o":"m 231 474 b 346 589 294 474 346 524 b 231 704 346 653 294 704 b 115 589 165 704 115 653 b 231 474 115 524 165 474 z m 231 -14 b 346 103 294 -14 346 36 b 231 217 346 167 294 217 b 115 103 165 217 115 167 b 231 -14 115 36 165 -14 z "},";":{"ha":469,"x_min":0,"x_max":0,"o":"m 238 474 b 353 589 301 474 353 524 b 238 704 353 653 301 704 b 122 589 172 704 122 653 b 238 474 122 524 172 474 z m 168 226 l 60 -175 l 161 -203 l 269 200 z "},"…":{"ha":1133,"x_min":0,"x_max":0,"o":"m 231 -14 b 346 103 294 -14 346 36 b 231 217 346 167 294 217 b 115 103 165 217 115 167 b 231 -14 115 36 165 -14 z m 565 -14 b 682 103 629 -14 682 36 b 565 217 682 167 629 217 b 451 103 500 217 451 167 b 565 -14 451 36 500 -14 z m 901 -14 b 1018 103 965 -14 1018 36 b 901 217 1018 167 965 217 b 788 103 836 217 788 167 b 901 -14 788 36 836 -14 z "},"!":{"ha":463,"x_min":0,"x_max":0,"o":"m 175 979 l 188 336 l 275 336 l 289 979 z m 231 -14 b 346 103 294 -14 346 36 b 231 217 346 167 294 217 b 115 103 165 217 115 167 b 231 -14 115 36 165 -14 z "},"¡":{"ha":463,"x_min":0,"x_max":0,"o":"m 231 704 b 117 588 165 704 117 653 b 231 474 117 524 165 474 b 346 588 294 474 346 524 b 231 704 346 653 294 704 z m 175 -289 l 289 -289 l 275 353 l 188 353 z "},"?":{"ha":719,"x_min":0,"x_max":0,"o":"m 88 704 l 192 704 b 378 913 192 843 250 913 b 528 775 482 913 528 858 b 167 514 528 567 260 524 l 167 336 l 551 336 l 551 425 l 258 425 l 199 410 l 199 435 b 632 765 419 469 632 560 b 376 1000 632 904 547 1000 b 88 704 189 1000 88 882 z m 354 -14 b 471 103 418 -14 471 36 b 354 217 471 167 418 217 b 240 103 289 217 240 167 b 354 -14 240 36 289 -14 z "},"¿":{"ha":733,"x_min":0,"x_max":0,"o":"m 379 704 b 264 588 315 704 264 653 b 379 474 264 524 315 474 b 494 588 446 474 494 524 b 379 704 494 653 446 704 z m 646 -14 l 542 -14 b 357 -222 542 -153 485 -222 b 206 -86 251 -222 206 -168 b 568 176 206 124 475 167 l 568 353 l 182 353 l 182 265 l 476 265 l 535 279 l 535 256 b 101 -75 314 221 101 131 b 357 -310 101 -214 188 -310 b 646 -14 546 -310 646 -193 z "},"·":{"ha":463,"x_min":0,"x_max":0,"o":"m 231 231 b 346 346 294 231 346 281 b 231 460 346 410 294 460 b 115 346 165 460 115 410 b 231 231 115 281 165 231 z "},"•":{"ha":904,"x_min":0,"x_max":0,"o":"m 450 8 b 789 347 636 8 789 156 b 450 682 789 535 636 682 b 115 347 258 682 115 535 b 450 8 115 156 258 8 z "},"*":{"ha":704,"x_min":0,"x_max":0,"o":"m 88 797 l 250 744 l 308 742 l 260 707 l 160 569 l 231 518 l 331 656 l 351 711 l 371 654 l 471 518 l 542 569 l 443 707 l 396 740 l 456 743 l 617 796 l 590 879 l 428 828 l 379 792 l 397 851 l 397 1021 l 310 1021 l 310 851 l 326 793 l 276 829 l 115 882 z "},"#":{"ha":1503,"x_min":0,"x_max":0,"o":"m 1386 601 l 1386 690 l 1115 690 l 1235 1044 l 1147 1075 l 1018 690 l 657 690 l 776 1044 l 689 1075 l 560 690 l 250 690 l 250 601 l 529 601 l 418 274 l 115 274 l 115 185 l 389 185 l 267 -176 l 354 -207 l 486 185 l 847 185 l 725 -176 l 813 -207 l 944 185 l 1251 185 l 1251 274 l 975 274 l 1085 601 z m 876 274 l 517 274 l 626 601 l 988 601 z "},"/":{"ha":686,"x_min":0,"x_max":0,"o":"m 511 1131 l 88 -121 l 175 -151 l 599 1100 z "},"\\":{"ha":686,"x_min":0,"x_max":0,"o":"m 175 1131 l 88 1100 l 511 -151 l 599 -121 z "},"(":{"ha":597,"x_min":0,"x_max":0,"o":"m 482 -112 b 219 386 294 -67 219 118 b 482 883 219 654 294 838 l 482 979 b 115 386 217 924 115 692 b 482 -208 115 81 217 -153 z "},")":{"ha":597,"x_min":0,"x_max":0,"o":"m 115 -112 l 115 -208 b 482 386 381 -153 482 81 b 115 979 482 692 381 924 l 115 883 b 378 386 303 838 378 654 b 115 -112 378 118 303 -67 z "},"{":{"ha":824,"x_min":0,"x_max":0,"o":"m 397 892 l 706 892 l 706 979 l 286 979 l 286 828 b 497 538 454 757 497 663 b 490 474 497 515 494 494 b 310 576 442 533 378 576 b 118 389 206 576 118 508 b 310 201 118 269 207 201 b 490 304 378 201 442 244 b 497 240 494 283 497 263 b 286 -50 497 115 454 22 l 286 -201 l 706 -201 l 706 -114 l 397 -114 l 319 -132 l 319 -100 b 596 222 525 -35 596 90 b 547 389 596 269 578 331 b 596 556 578 447 596 508 b 319 878 596 688 525 813 l 319 910 z m 321 286 b 222 389 264 286 222 328 b 321 492 222 450 264 492 b 460 389 374 492 426 451 b 321 286 426 326 374 286 z "},"}":{"ha":819,"x_min":0,"x_max":0,"o":"m 511 201 b 704 389 614 201 704 269 b 511 576 704 508 617 576 b 331 475 443 576 381 533 b 325 538 328 494 325 515 b 535 828 325 663 368 757 l 535 979 l 115 979 l 115 892 l 424 892 l 503 910 l 503 878 b 225 556 296 813 225 688 b 274 389 225 508 243 447 b 225 222 243 331 225 269 b 503 -100 225 90 296 -35 l 503 -132 l 424 -114 l 115 -114 l 115 -201 l 535 -201 l 535 -50 b 325 240 368 22 325 115 b 331 303 325 263 328 283 b 511 201 381 244 443 201 z m 501 492 b 600 389 557 492 600 450 b 501 286 600 328 557 286 b 363 389 449 286 396 326 b 501 492 396 451 449 492 z "},"[":{"ha":599,"x_min":0,"x_max":0,"o":"m 115 979 l 115 -208 l 483 -208 l 483 -121 l 219 -121 l 219 892 l 483 892 l 483 979 z "},"]":{"ha":599,"x_min":0,"x_max":0,"o":"m 483 979 l 115 979 l 115 892 l 379 892 l 379 -121 l 115 -121 l 115 -208 l 483 -208 z "},"-":{"ha":893,"x_min":0,"x_max":0,"o":"m 115 396 l 115 303 l 778 303 l 778 396 z "},"–":{"ha":1174,"x_min":0,"x_max":0,"o":"m 115 396 l 115 303 l 1058 303 l 1058 396 z "},"—":{"ha":1451,"x_min":0,"x_max":0,"o":"m 115 396 l 115 303 l 1336 303 l 1336 396 z "},"_":{"ha":838,"x_min":0,"x_max":0,"o":"m 88 -62 l 88 -156 l 750 -156 l 750 -62 z "},"‚":{"ha":440,"x_min":0,"x_max":0,"o":"m 224 226 l 115 -175 l 217 -203 l 325 200 z "},"„":{"ha":635,"x_min":0,"x_max":0,"o":"m 224 226 l 115 -175 l 217 -203 l 325 200 z m 418 226 l 310 -175 l 411 -203 l 519 200 z "},"“":{"ha":617,"x_min":0,"x_max":0,"o":"m 217 1036 l 115 1010 l 207 669 l 307 696 z m 410 1036 l 308 1010 l 400 669 l 500 696 z "},"”":{"ha":617,"x_min":0,"x_max":0,"o":"m 207 1036 l 117 696 l 217 669 l 308 1010 z m 400 1036 l 310 696 l 410 669 l 501 1010 z "},"‘":{"ha":424,"x_min":0,"x_max":0,"o":"m 217 1036 l 115 1010 l 207 669 l 307 696 z "},"’":{"ha":424,"x_min":0,"x_max":0,"o":"m 207 1036 l 117 696 l 217 669 l 308 1010 z "},"«":{"ha":975,"x_min":0,"x_max":0,"o":"m 575 25 l 254 344 l 575 663 l 501 726 l 115 344 l 501 -39 z m 860 25 l 539 344 l 860 663 l 786 726 l 400 344 l 786 -39 z "},"»":{"ha":975,"x_min":0,"x_max":0,"o":"m 115 25 l 189 -39 l 575 344 l 189 726 l 115 663 l 436 344 z m 400 25 l 474 -39 l 860 344 l 474 726 l 400 663 l 721 344 z "},"‹":{"ha":690,"x_min":0,"x_max":0,"o":"m 575 25 l 254 344 l 575 663 l 501 726 l 115 344 l 501 -39 z "},"›":{"ha":690,"x_min":0,"x_max":0,"o":"m 115 25 l 189 -39 l 575 344 l 189 726 l 115 663 l 436 344 z "},"\"":{"ha":525,"x_min":0,"x_max":0,"o":"m 115 1031 l 115 678 l 219 678 l 219 1031 z m 306 1031 l 306 678 l 410 678 l 410 1031 z "},"'":{"ha":336,"x_min":0,"x_max":0,"o":"m 115 1031 l 115 678 l 219 678 l 219 1031 z "},"¢":{"ha":906,"x_min":0,"x_max":0,"o":"m 497 231 l 496 751 b 675 575 585 743 657 694 l 790 575 b 496 849 774 761 624 839 l 496 1183 l 408 1185 l 408 846 b 115 492 222 821 115 672 b 410 136 115 310 222 161 l 410 -204 l 497 -206 l 497 133 b 790 407 625 143 774 221 l 675 407 b 497 231 657 288 585 239 z m 229 492 b 408 747 229 615 286 721 l 410 235 b 229 492 286 260 229 367 z "},"¤":{"ha":1081,"x_min":0,"x_max":0,"o":"m 828 469 b 775 642 828 533 808 593 l 964 831 l 901 893 l 713 704 b 540 757 665 738 607 757 b 368 703 472 757 414 738 l 178 893 l 115 831 l 306 640 b 253 469 272 592 253 533 b 306 297 253 406 272 346 l 115 107 l 178 44 l 368 235 b 540 182 415 201 474 182 b 711 235 607 182 665 201 l 901 44 l 964 107 l 774 297 b 828 469 808 344 828 404 z m 540 275 b 346 469 426 275 346 364 b 540 664 346 575 426 664 b 736 469 656 664 736 575 b 540 275 736 364 656 275 z "},"$":{"ha":1050,"x_min":0,"x_max":0,"o":"m 935 247 b 569 549 935 435 749 494 l 569 892 b 781 657 690 874 781 800 l 894 657 b 569 990 894 804 810 967 l 569 1185 l 482 1185 l 482 993 b 160 751 258 986 160 896 b 482 469 160 581 294 526 l 482 86 b 229 367 322 100 229 165 l 115 367 b 482 -11 115 156 201 11 l 482 -206 l 569 -206 l 569 -14 b 935 247 850 -11 935 103 z m 274 754 b 482 896 274 856 360 892 l 482 576 b 274 754 346 621 274 660 z m 569 83 l 569 444 b 821 242 700 408 821 367 b 569 83 821 126 729 85 z "},"€":{"ha":1128,"x_min":0,"x_max":0,"o":"m 646 83 b 364 360 474 83 389 190 l 685 360 l 685 447 l 356 447 b 354 490 354 461 354 475 b 356 531 354 504 354 518 l 685 531 l 685 618 l 363 618 b 646 896 389 789 474 896 b 900 672 797 896 881 811 l 1013 672 b 646 993 982 865 856 993 b 250 618 413 993 285 838 l 115 618 l 115 531 l 242 531 b 240 490 240 517 240 504 b 242 447 240 476 240 461 l 115 447 l 115 360 l 250 360 b 646 -14 285 140 414 -14 b 1013 308 856 -14 982 115 l 901 308 b 646 83 881 169 797 83 z "},"£":{"ha":863,"x_min":0,"x_max":0,"o":"m 542 882 l 747 868 l 747 965 l 543 979 b 207 767 376 990 207 960 b 281 526 207 675 249 600 l 115 526 l 115 439 l 310 439 b 315 392 314 424 315 408 b 115 182 315 286 251 226 l 115 0 l 747 0 l 747 97 l 226 97 l 149 79 l 149 111 b 429 385 331 171 429 244 b 425 439 429 404 428 422 l 692 439 l 692 526 l 400 526 b 319 758 368 610 319 676 b 542 882 319 868 396 893 z "},"¥":{"ha":1054,"x_min":0,"x_max":0,"o":"m 939 979 l 817 979 l 543 501 l 543 422 l 511 422 l 511 501 l 238 979 l 115 979 l 438 422 l 235 422 l 235 335 l 471 335 l 471 268 l 235 268 l 235 179 l 471 179 l 471 0 l 583 0 l 583 179 l 819 179 l 819 268 l 583 268 l 583 335 l 819 335 l 819 422 l 617 422 z "},"+":{"ha":893,"x_min":0,"x_max":0,"o":"m 778 396 l 493 396 l 493 681 l 400 681 l 400 396 l 115 396 l 115 303 l 400 303 l 400 18 l 493 18 l 493 303 l 778 303 z "},"−":{"ha":893,"x_min":0,"x_max":0,"o":"m 115 396 l 115 303 l 778 303 l 778 396 z "},"×":{"ha":765,"x_min":0,"x_max":0,"o":"m 650 549 l 585 614 l 383 413 l 182 614 l 117 549 l 318 347 l 117 146 l 182 81 l 383 282 l 585 81 l 650 146 l 449 347 z "},"÷":{"ha":893,"x_min":0,"x_max":0,"o":"m 447 492 b 563 608 511 492 563 543 b 447 722 563 672 511 722 b 332 608 381 722 332 672 b 447 492 332 543 381 492 z m 115 396 l 115 303 l 778 303 l 778 396 z m 447 -24 b 563 93 511 -24 563 28 b 447 207 563 157 511 207 b 332 93 381 207 332 157 b 447 -24 332 28 381 -24 z "},"=":{"ha":893,"x_min":0,"x_max":0,"o":"m 115 538 l 115 444 l 778 444 l 778 538 z m 115 254 l 115 163 l 778 163 l 778 254 z "},"≠":{"ha":893,"x_min":0,"x_max":0,"o":"m 778 444 l 778 538 l 606 538 l 699 699 l 624 743 l 506 538 l 115 538 l 115 444 l 451 444 l 342 254 l 115 254 l 115 163 l 289 163 l 194 0 l 271 -43 l 389 163 l 778 163 l 778 254 l 442 254 l 551 444 z "},">":{"ha":896,"x_min":0,"x_max":0,"o":"m 779 289 l 779 397 l 153 619 l 115 531 l 664 343 l 115 161 l 153 72 z "},"<":{"ha":896,"x_min":0,"x_max":0,"o":"m 115 289 l 743 72 l 779 161 l 232 343 l 779 531 l 743 619 l 115 397 z "},"≥":{"ha":896,"x_min":0,"x_max":0,"o":"m 779 418 l 779 528 l 153 749 l 115 660 l 664 472 l 115 290 l 153 201 z m 115 128 l 115 35 l 778 35 l 778 128 z "},"≤":{"ha":896,"x_min":0,"x_max":0,"o":"m 115 418 l 743 201 l 779 290 l 232 472 l 779 660 l 743 749 l 115 528 z m 779 128 l 118 128 l 118 35 l 779 35 z "},"±":{"ha":893,"x_min":0,"x_max":0,"o":"m 493 508 l 493 707 l 400 707 l 400 508 l 115 508 l 115 415 l 400 415 l 400 218 l 493 218 l 493 415 l 778 415 l 778 508 z m 115 35 l 778 35 l 778 128 l 115 128 z "},"≈":{"ha":890,"x_min":0,"x_max":0,"o":"m 115 400 l 208 400 b 285 500 208 483 247 500 b 611 389 386 500 478 389 b 775 581 689 389 775 440 l 682 581 b 606 482 682 497 643 482 b 279 593 506 482 413 593 b 115 400 203 593 115 540 z m 115 114 l 208 114 b 285 213 208 197 247 213 b 611 101 386 213 478 101 b 775 294 689 101 775 154 l 682 294 b 606 194 682 211 643 194 b 279 306 506 194 413 306 b 115 114 203 306 115 254 z "},"~":{"ha":890,"x_min":0,"x_max":0,"o":"m 115 260 l 208 260 b 285 358 208 343 247 358 b 611 247 386 358 478 247 b 775 440 689 247 775 300 l 682 440 b 606 340 682 357 643 340 b 279 451 506 340 413 451 b 115 260 203 451 115 400 z "},"¬":{"ha":893,"x_min":0,"x_max":0,"o":"m 778 503 l 115 503 l 115 410 l 685 410 l 685 172 l 778 172 z "},"^":{"ha":756,"x_min":0,"x_max":0,"o":"m 535 532 l 640 532 l 485 979 l 274 979 l 115 532 l 222 532 l 363 947 l 394 947 z "},"∅":{"ha":1363,"x_min":0,"x_max":0,"o":"m 1007 861 l 1089 1003 l 1008 1050 l 925 906 b 682 956 853 938 772 956 b 115 390 343 956 115 703 b 356 -81 115 194 206 21 l 274 -222 l 354 -269 l 438 -125 b 682 -175 510 -157 592 -175 b 1247 390 1021 -175 1247 78 b 1007 861 1247 586 1158 760 z m 208 390 b 682 864 208 646 401 864 b 878 824 754 864 819 850 l 404 3 b 208 390 282 89 208 233 z m 682 -83 b 485 -43 610 -83 543 -69 l 958 778 b 1154 390 1081 692 1154 547 b 682 -83 1154 135 961 -83 z "},"∞":{"ha":1413,"x_min":0,"x_max":0,"o":"m 115 417 b 392 150 115 258 232 150 b 706 347 547 150 633 256 b 1019 150 778 256 864 150 b 1296 417 1179 150 1296 258 b 1019 683 1296 575 1179 683 b 706 486 864 683 778 578 b 392 683 633 578 547 683 b 115 417 232 683 115 575 z m 219 417 b 399 590 219 522 289 590 b 653 417 511 590 579 513 b 399 243 579 321 511 243 b 219 417 289 243 219 311 z m 760 417 b 1013 590 833 513 900 590 b 1192 417 1122 590 1192 522 b 1013 243 1192 311 1122 243 b 760 417 900 243 833 321 z "},"∫":{"ha":949,"x_min":0,"x_max":0,"o":"m 115 -250 l 321 -250 b 411 -176 369 -250 401 -225 l 643 886 l 833 886 l 833 979 l 639 979 b 547 906 589 979 558 954 l 315 -157 l 115 -157 z "},"∏":{"ha":1057,"x_min":0,"x_max":0,"o":"m 942 979 l 115 979 l 115 886 l 300 886 l 300 -250 l 404 -250 l 404 886 l 653 886 l 653 -250 l 757 -250 l 757 886 l 942 886 z "},"∑":{"ha":828,"x_min":0,"x_max":0,"o":"m 115 -250 l 713 -250 l 713 -157 l 275 -157 l 196 -176 l 196 -143 l 631 314 l 631 417 l 196 872 l 196 906 l 275 886 l 713 886 l 713 979 l 115 979 l 115 825 l 529 382 l 529 349 l 115 -96 z "},"√":{"ha":1115,"x_min":0,"x_max":0,"o":"m 651 907 l 396 -218 l 363 -218 l 217 285 l 115 285 l 272 -250 l 486 -250 l 744 886 l 1000 886 l 1000 979 l 743 979 b 651 907 693 979 663 957 z "},"∂":{"ha":988,"x_min":0,"x_max":0,"o":"m 872 443 b 251 1031 872 788 604 989 l 251 933 b 797 511 544 892 769 749 l 817 432 l 783 432 b 472 704 756 600 638 704 b 115 350 253 704 115 553 b 489 -14 115 139 249 -14 b 872 443 724 -14 872 157 z m 758 350 b 490 83 758 210 667 83 b 229 350 317 83 229 183 b 479 607 229 506 319 607 b 758 350 650 607 758 507 z "},"%":{"ha":1626,"x_min":0,"x_max":0,"o":"m 978 1128 l 554 -122 l 642 -154 l 1065 1097 z m 403 460 b 690 747 575 460 690 589 b 403 1035 690 906 575 1035 b 115 747 231 1035 115 906 b 403 460 115 589 231 460 z m 403 553 b 208 747 289 553 208 642 b 403 942 208 853 289 942 b 599 747 518 942 599 853 b 403 553 599 642 518 553 z m 1224 -28 b 1511 260 1396 -28 1511 101 b 1224 547 1511 418 1396 547 b 936 260 1051 547 936 418 b 1224 -28 936 101 1051 -28 z m 1224 65 b 1029 260 1108 65 1029 154 b 1224 454 1029 365 1108 454 b 1418 260 1339 454 1418 365 b 1224 65 1418 154 1339 65 z "},"‰":{"ha":2304,"x_min":0,"x_max":0,"o":"m 978 1128 l 554 -122 l 642 -154 l 1065 1097 z m 403 460 b 690 747 575 460 690 589 b 403 1035 690 906 575 1035 b 115 747 231 1035 115 906 b 403 460 115 589 231 460 z m 403 553 b 208 747 289 553 208 642 b 403 942 208 853 289 942 b 599 747 518 942 599 853 b 403 553 599 642 518 553 z m 1224 -28 b 1511 260 1396 -28 1511 101 b 1224 547 1511 418 1396 547 b 936 260 1051 547 936 418 b 1224 -28 936 101 1051 -28 z m 1901 -28 b 2189 260 2074 -28 2189 101 b 1901 547 2189 418 2074 547 b 1614 260 1729 547 1614 418 b 1901 -28 1614 101 1729 -28 z m 1224 65 b 1029 260 1108 65 1029 154 b 1224 454 1029 365 1108 454 b 1418 260 1339 454 1418 365 b 1224 65 1418 154 1339 65 z m 1901 65 b 1707 260 1786 65 1707 154 b 1901 454 1707 365 1786 454 b 2096 260 2017 454 2096 365 b 1901 65 2096 154 2017 65 z "},"↑":{"ha":997,"x_min":0,"x_max":0,"o":"m 882 364 l 499 749 l 115 364 l 181 290 l 449 560 l 449 -54 l 547 -54 l 547 561 l 817 290 z "},"↗":{"ha":832,"x_min":0,"x_max":0,"o":"m 174 636 l 167 539 l 547 540 l 113 106 l 182 36 l 618 471 l 617 89 l 715 94 l 715 639 z "},"→":{"ha":1035,"x_min":0,"x_max":0,"o":"m 533 726 l 460 663 l 731 394 l 115 394 l 115 296 l 732 296 l 460 25 l 533 -39 l 919 344 z "},"↘":{"ha":832,"x_min":0,"x_max":0,"o":"m 617 581 l 618 199 l 182 633 l 113 564 l 547 129 l 167 131 l 174 33 l 715 31 l 715 575 z "},"↓":{"ha":997,"x_min":0,"x_max":0,"o":"m 817 404 l 547 132 l 547 749 l 449 749 l 449 133 l 181 404 l 115 331 l 499 -56 l 882 331 z "},"↙":{"ha":832,"x_min":0,"x_max":0,"o":"m 719 564 l 650 633 l 214 199 l 215 581 l 117 575 l 115 31 l 658 33 l 665 131 l 283 129 z "},"←":{"ha":1035,"x_min":0,"x_max":0,"o":"m 919 394 l 304 394 l 575 663 l 501 726 l 115 344 l 501 -39 l 575 25 l 303 296 l 919 296 z "},"↖":{"ha":832,"x_min":0,"x_max":0,"o":"m 719 106 l 283 540 l 665 539 l 658 636 l 115 639 l 117 94 l 215 89 l 214 471 l 650 36 z "},"↔":{"ha":1589,"x_min":0,"x_max":0,"o":"m 1088 840 l 1014 775 l 1283 508 l 669 508 l 669 410 l 1285 410 l 1014 139 l 1088 74 l 1472 458 z m 575 549 l 501 614 l 115 231 l 501 -153 l 575 -87 l 303 182 l 919 182 l 919 281 l 304 281 z "},"↕":{"ha":1201,"x_min":0,"x_max":0,"o":"m 435 208 l 533 208 l 533 825 l 803 553 l 868 626 l 485 1013 l 101 626 l 167 553 l 435 824 z m 1035 115 l 764 -157 l 764 460 l 667 460 l 667 -157 l 399 115 l 333 42 l 715 -344 l 1100 42 z "},"◊":{"ha":756,"x_min":0,"x_max":0,"o":"m 485 979 l 274 979 l 115 532 l 274 83 l 485 83 l 640 532 z m 394 117 l 363 117 l 222 532 l 363 947 l 394 947 l 535 532 z "},"@":{"ha":1471,"x_min":0,"x_max":0,"o":"m 967 131 b 1043 51 967 79 994 51 l 1094 51 b 1356 414 1296 51 1356 251 b 744 1003 1356 754 1108 1003 b 115 401 382 1003 115 751 b 768 -186 115 43 371 -212 l 1235 -153 l 1235 -65 l 768 -97 b 206 401 421 -122 206 103 b 744 915 206 688 432 915 b 1265 414 1058 915 1265 699 b 1103 139 1265 279 1235 139 l 1071 139 l 1071 718 l 967 718 l 967 647 l 985 568 l 953 568 b 676 767 925 682 828 767 b 346 410 478 767 346 617 b 676 51 346 200 478 51 b 953 249 828 51 925 136 l 985 249 l 967 172 z m 696 139 b 450 410 554 139 450 221 b 696 678 450 596 554 678 b 954 410 839 678 954 596 b 696 139 954 221 839 139 z "},"&":{"ha":1325,"x_min":0,"x_max":0,"o":"m 1208 -24 l 1039 190 b 1181 683 1131 315 1181 485 l 1068 683 b 969 278 1068 521 1035 382 l 493 882 l 1069 882 l 1069 979 l 339 979 l 340 913 l 572 617 l 572 583 b 413 654 547 615 493 654 b 115 335 256 654 115 536 b 565 -35 115 106 303 -35 b 968 111 731 -35 867 18 l 1119 -82 z m 565 63 b 229 333 364 63 229 163 b 464 568 229 483 325 568 b 717 431 572 568 638 532 l 903 193 b 565 63 819 110 707 63 z "},"¶":{"ha":911,"x_min":0,"x_max":0,"o":"m 115 863 b 526 539 115 686 193 539 l 526 -206 l 619 -206 l 619 1185 l 526 1185 b 115 863 193 1185 115 1038 z m 703 1185 l 703 -206 l 794 -206 l 794 1185 z "},"§":{"ha":817,"x_min":0,"x_max":0,"o":"m 115 500 b 399 278 115 354 263 322 b 557 156 510 242 557 222 b 419 71 557 94 497 71 b 253 210 310 71 253 117 l 139 210 b 419 -22 139 96 206 -22 b 671 160 578 -22 671 50 b 568 306 671 228 640 272 b 701 471 669 336 701 401 b 418 693 701 617 554 649 b 260 815 307 729 260 749 b 397 900 260 878 319 900 b 564 763 507 900 564 856 l 678 763 b 397 993 678 875 611 993 b 146 813 239 993 146 921 b 250 665 146 743 176 700 b 115 500 147 635 115 569 z m 226 522 b 400 600 226 596 294 636 b 590 450 494 568 590 542 b 417 371 590 376 521 333 b 226 522 322 404 226 429 z "},"©":{"ha":1467,"x_min":0,"x_max":0,"o":"m 733 -228 b 1351 390 1106 -228 1351 49 b 733 1008 1351 732 1106 1008 b 115 390 361 1008 115 732 b 733 -228 115 49 361 -228 z m 733 -139 b 204 390 417 -139 204 104 b 733 919 204 676 417 919 b 1263 390 1050 919 1263 676 b 733 -139 1263 104 1050 -139 z m 390 392 b 742 32 390 192 518 32 b 1064 307 876 32 1046 107 l 950 307 b 742 129 929 175 843 129 b 504 392 579 129 504 249 b 742 653 504 533 579 653 b 950 475 843 653 929 607 l 1064 475 b 742 750 1046 675 876 750 b 390 392 518 750 390 590 z "},"®":{"ha":906,"x_min":0,"x_max":0,"o":"m 453 375 b 790 713 657 375 790 526 b 453 1050 790 899 657 1050 b 115 713 249 1050 115 899 b 453 375 115 526 249 375 z m 453 447 b 188 713 293 447 188 569 b 453 978 188 856 293 978 b 718 713 613 978 718 856 b 453 447 718 569 613 447 z m 308 549 l 379 549 l 379 657 l 540 657 l 540 549 l 611 549 l 611 647 b 576 682 611 669 599 682 l 517 682 l 517 710 b 611 785 575 715 611 729 b 446 881 611 863 525 881 l 308 881 z m 379 728 l 379 810 l 446 810 b 540 769 504 810 540 810 b 446 728 540 728 504 728 z "},"™":{"ha":1238,"x_min":0,"x_max":0,"o":"m 493 979 l 115 979 l 115 906 l 263 906 l 263 515 l 349 515 l 349 906 l 493 906 z m 944 979 l 842 547 l 826 547 l 725 979 l 547 979 l 547 515 l 636 515 l 636 901 l 625 947 l 643 947 l 746 515 l 925 515 l 1026 947 l 1044 947 l 1033 901 l 1033 515 l 1121 515 l 1121 979 z "},"°":{"ha":807,"x_min":0,"x_max":0,"o":"m 403 460 b 690 747 575 460 690 589 b 403 1035 690 906 575 1035 b 115 747 231 1035 115 906 b 403 460 115 589 231 460 z m 403 553 b 208 747 289 553 208 642 b 403 942 208 853 289 942 b 599 747 518 942 599 853 b 403 553 599 642 518 553 z "},"|":{"ha":324,"x_min":0,"x_max":0,"o":"m 115 1185 l 115 -206 l 208 -206 l 208 1185 z "},"¦":{"ha":324,"x_min":0,"x_max":0,"o":"m 115 671 l 208 671 l 208 1185 l 115 1185 z m 208 308 l 115 308 l 115 -206 l 208 -206 z "},"†":{"ha":774,"x_min":0,"x_max":0,"o":"m 657 915 l 433 915 l 433 1185 l 340 1185 l 340 915 l 115 915 l 115 824 l 340 824 l 340 210 l 433 210 l 433 824 l 657 824 z "},"‡":{"ha":774,"x_min":0,"x_max":0,"o":"m 657 824 l 657 915 l 433 915 l 433 1185 l 340 1185 l 340 915 l 115 915 l 115 824 l 340 824 l 340 571 l 115 571 l 115 479 l 340 479 l 340 210 l 433 210 l 433 479 l 657 479 l 657 571 l 433 571 l 433 824 z "},"̈":{"ha":0,"x_min":0,"x_max":0,"o":"m -503 800 b -401 897 -446 800 -401 842 b -503 993 -401 950 -446 993 b -604 897 -561 993 -604 950 b -503 800 -604 842 -561 800 z m -217 800 b -115 897 -160 800 -115 842 b -217 993 -115 950 -160 993 b -318 897 -275 993 -318 950 b -217 800 -318 842 -275 800 z "},"̇":{"ha":0,"x_min":0,"x_max":0,"o":"m -218 800 b -117 897 -161 800 -117 842 b -218 993 -117 950 -161 993 b -319 897 -276 993 -319 950 b -218 800 -319 842 -276 800 z "},"̀":{"ha":0,"x_min":0,"x_max":0,"o":"m -117 892 l -542 1001 l -565 913 l -139 803 z "},"́":{"ha":0,"x_min":0,"x_max":0,"o":"m -565 892 l -542 803 l -117 913 l -139 1001 z "},"̋":{"ha":0,"x_min":0,"x_max":0,"o":"m -608 844 l -543 782 l -346 972 l -410 1036 z m -379 844 l -314 782 l -117 972 l -181 1036 z "},"̂":{"ha":0,"x_min":0,"x_max":0,"o":"m -115 843 l -340 1025 l -565 843 l -499 779 l -340 910 l -181 779 z "},"̌":{"ha":0,"x_min":0,"x_max":0,"o":"m -115 963 l -181 1026 l -340 896 l -499 1026 l -565 963 l -340 781 z "},"̆":{"ha":0,"x_min":0,"x_max":0,"o":"m -115 1021 l -208 1021 b -332 872 -208 919 -243 872 b -457 1021 -421 872 -457 919 l -550 1021 b -332 782 -550 879 -468 782 b -115 1021 -197 782 -115 879 z "},"̊":{"ha":0,"x_min":0,"x_max":0,"o":"m -281 776 b -115 928 -175 776 -115 849 b -281 1078 -115 1007 -175 1078 b -444 928 -386 1078 -444 1007 b -281 776 -444 847 -386 776 z m -281 863 b -351 928 -326 863 -351 888 b -281 992 -351 967 -326 992 b -208 928 -233 992 -208 967 b -281 863 -208 888 -232 863 z "},"̃":{"ha":0,"x_min":0,"x_max":0,"o":"m -618 819 l -525 819 b -468 917 -525 903 -499 917 b -257 806 -407 917 -374 806 b -115 996 -176 806 -115 857 l -208 996 b -265 899 -208 913 -235 899 b -476 1010 -326 899 -360 1010 b -618 819 -557 1010 -618 957 z "},"̄":{"ha":0,"x_min":0,"x_max":0,"o":"m -564 949 l -564 857 l -115 858 l -115 949 z "},"̒":{"ha":0,"x_min":0,"x_max":0,"o":"m -217 1078 l -289 826 l -187 800 l -117 1051 z "},"̦":{"ha":0,"x_min":0,"x_max":0,"o":"m -224 -68 l -297 -297 l -196 -326 l -122 -96 z "},"̧":{"ha":0,"x_min":0,"x_max":0,"o":"m -207 -58 b -297 -79 -243 -58 -272 -67 l -221 0 l -325 0 l -386 -72 l -337 -136 b -240 -100 -287 -106 -265 -100 b -208 -128 -221 -100 -208 -110 b -407 -171 -208 -172 -281 -171 l -407 -257 b -117 -136 -232 -257 -117 -243 b -207 -58 -117 -81 -160 -58 z "},"̨":{"ha":0,"x_min":0,"x_max":0,"o":"m -117 -147 l -375 -174 l -283 1 l -382 1 l -467 -156 b -390 -265 -497 -212 -462 -271 l -117 -240 z "},"´":{"ha":681,"x_min":0,"x_max":0,"o":"m 115 892 l 139 803 l 564 913 l 542 1001 z "},"˘":{"ha":665,"x_min":0,"x_max":0,"o":"m 550 1021 l 457 1021 b 333 872 457 919 422 872 b 208 1021 244 872 208 919 l 115 1021 b 333 782 115 879 197 782 b 550 1021 468 782 550 879 z "},"ˇ":{"ha":681,"x_min":0,"x_max":0,"o":"m 565 963 l 500 1026 l 340 896 l 182 1026 l 115 963 l 340 781 z "},"¸":{"ha":522,"x_min":0,"x_max":0,"o":"m 315 -58 b 225 -79 279 -58 250 -67 l 301 0 l 197 0 l 136 -72 l 185 -136 b 282 -100 235 -106 257 -100 b 314 -128 301 -100 314 -110 b 115 -171 314 -172 242 -171 l 115 -257 b 406 -136 290 -257 406 -243 b 315 -58 406 -81 363 -58 z "},"ˆ":{"ha":681,"x_min":0,"x_max":0,"o":"m 565 843 l 340 1025 l 115 843 l 182 779 l 340 910 l 500 779 z "},"¨":{"ha":719,"x_min":0,"x_max":0,"o":"m 217 800 b 318 897 274 800 318 842 b 217 993 318 950 274 993 b 115 897 158 993 115 950 b 217 800 115 842 158 800 z m 503 800 b 604 897 560 800 604 842 b 503 993 604 950 560 993 b 401 897 444 993 401 950 b 503 800 401 842 444 800 z "},"˙":{"ha":435,"x_min":0,"x_max":0,"o":"m 217 800 b 318 897 274 800 318 842 b 217 993 318 950 274 993 b 115 897 158 993 115 950 b 217 800 115 842 158 800 z "},"`":{"ha":681,"x_min":0,"x_max":0,"o":"m 564 892 l 139 1001 l 115 913 l 542 803 z "},"˝":{"ha":724,"x_min":0,"x_max":0,"o":"m 115 844 l 181 782 l 378 972 l 314 1036 z m 344 844 l 410 782 l 607 972 l 543 1036 z "},"¯":{"ha":679,"x_min":0,"x_max":0,"o":"m 115 949 l 115 857 l 564 858 l 564 949 z "},"˛":{"ha":594,"x_min":0,"x_max":0,"o":"m 478 -147 l 219 -174 l 311 1 l 213 1 l 128 -156 b 204 -265 97 -212 132 -271 l 478 -240 z "},"˚":{"ha":521,"x_min":0,"x_max":0,"o":"m 279 776 b 444 928 385 776 444 849 b 279 1078 444 1007 385 1078 b 115 928 174 1078 115 1007 b 279 776 115 847 174 776 z m 279 863 b 208 928 233 863 208 888 b 279 992 208 967 233 992 b 351 928 326 992 351 967 b 279 863 351 888 328 863 z "},"˜":{"ha":733,"x_min":0,"x_max":0,"o":"m 115 819 l 208 819 b 265 917 208 903 235 917 b 476 806 326 917 360 806 b 618 996 557 806 618 857 l 525 996 b 468 899 525 913 499 899 b 257 1010 407 899 374 1010 b 115 819 176 1010 115 957 z "}}}
